<svg xmlns="http://www.w3.org/2000/svg" viewBox="0 0 53.07 53.07"><defs><style>.cls-1{fill:#05a;}</style></defs><g id="Layer_2" data-name="Layer 2"><g id="Layer_1-2" data-name="Layer 1"><path class="cls-1" d="M26.54,53.07A26.54,26.54,0,1,1,53.07,26.54,26.56,26.56,0,0,1,26.54,53.07ZM26.54,3A23.54,23.54,0,1,0,50.07,26.54,23.57,23.57,0,0,0,26.54,3Z"></path><path class="cls-1" d="M9.08,23.06h3.6c1.75,0,2.63.77,2.63,2.32a2.29,2.29,0,0,1-.3,1.23,1.45,1.45,0,0,1-.89.62,1.83,1.83,0,0,1,1.05.71,2.32,2.32,0,0,1,.41,1.42,2.26,2.26,0,0,1-.67,1.82,3.15,3.15,0,0,1-2.06.57H9.08Zm3.58,3.41a.42.42,0,0,0,.37-.19.83.83,0,0,0,.13-.49.76.76,0,0,0-.15-.53.44.44,0,0,0-.35-.16H11.35v1.37Zm.12,3.24a.61.61,0,0,0,.48-.2.87.87,0,0,0,.17-.56.84.84,0,0,0-.17-.55.59.59,0,0,0-.48-.21H11.35v1.52Z"></path><path class="cls-1" d="M16.58,23.06h3.6c1.75,0,2.63.77,2.63,2.32a2.29,2.29,0,0,1-.3,1.23,1.42,1.42,0,0,1-.89.62,1.85,1.85,0,0,1,1.06.71,2.32,2.32,0,0,1,.4,1.42,2.23,2.23,0,0,1-.67,1.82,3.12,3.12,0,0,1-2.05.57H16.58Zm3.58,3.41a.41.41,0,0,0,.37-.19.83.83,0,0,0,.13-.49.76.76,0,0,0-.15-.53.43.43,0,0,0-.35-.16H18.85v1.37Zm.13,3.24a.59.59,0,0,0,.47-.2.87.87,0,0,0,.17-.56.84.84,0,0,0-.17-.55.57.57,0,0,0-.47-.21H18.85v1.52Z"></path><path class="cls-1" d="M24.08,23.06h3.6c1.76,0,2.63.77,2.63,2.32A2.38,2.38,0,0,1,30,26.61a1.44,1.44,0,0,1-.9.62,1.85,1.85,0,0,1,1.06.71,2.32,2.32,0,0,1,.4,1.42,2.23,2.23,0,0,1-.67,1.82,3.12,3.12,0,0,1-2.05.57H24.08Zm3.58,3.41a.44.44,0,0,0,.38-.19.91.91,0,0,0,.12-.49.82.82,0,0,0-.14-.53.46.46,0,0,0-.36-.16H26.35v1.37Zm.13,3.24a.59.59,0,0,0,.47-.2.82.82,0,0,0,.17-.56.79.79,0,0,0-.17-.55.57.57,0,0,0-.47-.21H26.35v1.52Z"></path><path class="cls-1" d="M31.59,29.75V25.21a2,2,0,0,1,.63-1.65,2.44,2.44,0,0,1,1.53-.5,37.18,37.18,0,0,1,3.83.18v1.91H34.45c-.4,0-.6.18-.6.52v.72l3.15.12v1.8l-3.15.12v.65a.68.68,0,0,0,.14.46.47.47,0,0,0,.37.15h3.22V31.6a17.34,17.34,0,0,1-1.75.16q-1,.06-1.95.06C32.35,31.82,31.59,31.13,31.59,29.75Z"></path><path class="cls-1" d="M38.63,29.75V25.21a2,2,0,0,1,.64-1.65,2.42,2.42,0,0,1,1.53-.5,37.18,37.18,0,0,1,3.83.18v1.91H41.5c-.4,0-.6.18-.6.52v.72l3.14.12v1.8l-3.14.12v.65a.68.68,0,0,0,.14.46.45.45,0,0,0,.36.15h3.23V31.6c-.48.07-1.07.13-1.75.16s-1.33.06-2,.06C39.4,31.82,38.63,31.13,38.63,29.75Z"></path><path class="cls-1" d="M16.13,16h.93v4.27H19.2V21H16.13Z"></path><path class="cls-1" d="M19.67,19.2v-.06a1.79,1.79,0,0,1,1.83-1.89,1.65,1.65,0,0,1,1.73,1.85v.25H20.54c0,.69.38,1.08,1,1.08s.78-.2.84-.56h.82c-.12.77-.74,1.19-1.68,1.19A1.76,1.76,0,0,1,19.67,19.2Zm2.71-.42c0-.63-.36-.91-.88-.91a.93.93,0,0,0-.94.91Z"></path><path class="cls-1" d="M23.6,17.33h.91l1,2.79,1-2.79h.83L25.93,21h-1Z"></path><path class="cls-1" d="M27.63,19.2v-.06a1.78,1.78,0,0,1,1.82-1.89,1.65,1.65,0,0,1,1.73,1.85v.25H28.5c0,.69.38,1.08,1,1.08s.78-.2.84-.56h.82c-.12.77-.74,1.19-1.68,1.19A1.76,1.76,0,0,1,27.63,19.2Zm2.71-.42c0-.63-.36-.91-.89-.91a.93.93,0,0,0-.93.91Z"></path><path class="cls-1" d="M32,15.63h.85V21H32Z"></path><path class="cls-1" d="M36.28,16.91l-1.06.72v-.82L36.38,16h.84v5h-.94Z"></path><path class="cls-1" d="M14.71,34.23h1L17,38.29l1.31-4.06h.88l-1.7,5H16.4Z"></path><path class="cls-1" d="M19.51,37.44v0a1.78,1.78,0,0,1,1.82-1.89,1.65,1.65,0,0,1,1.73,1.85v.24H20.38c0,.69.38,1.09,1,1.09s.77-.21.84-.56h.82c-.12.77-.75,1.19-1.68,1.19A1.76,1.76,0,0,1,19.51,37.44ZM22.22,37c0-.63-.36-.91-.89-.91a1,1,0,0,0-.94.91Z"></path><path class="cls-1" d="M23.75,35.57h.85v.58a1.26,1.26,0,0,1,1.18-.65c.74,0,1.26.42,1.26,1.43v2.31h-.85V37c0-.55-.23-.81-.73-.81a.81.81,0,0,0-.86.88v2.16h-.85Z"></path><path class="cls-1" d="M27.73,37.46v-.05a1.7,1.7,0,0,1,1.65-1.91,1.25,1.25,0,0,1,1.17.63V33.88h.85v5.36h-.85v-.62a1.43,1.43,0,0,1-1.2.69A1.63,1.63,0,0,1,27.73,37.46Zm2.85,0v-.05c0-.81-.37-1.21-1-1.21s-1,.44-1,1.23v0c0,.81.41,1.19,1,1.19S30.58,38.24,30.58,37.42Z"></path><path class="cls-1" d="M32.16,37.44v0a1.88,1.88,0,0,1,3.76,0v.05a1.88,1.88,0,0,1-3.76,0Zm2.89,0v0c0-.76-.38-1.22-1-1.22s-1,.46-1,1.21v.06c0,.75.37,1.22,1,1.22S35.05,38.18,35.05,37.43Z"></path><path class="cls-1" d="M36.66,35.57h.85v.69a1.21,1.21,0,0,1,1.19-.74v.79c-.74,0-1.19.24-1.19,1v1.91h-.85Z"></path></g></g></svg>