<svg xmlns="http://www.w3.org/2000/svg" id="Layer_1" data-name="Layer 1" viewBox="0 0 1163.55 1086.36"><defs><style>.cls-1{fill:#004185;}.cls-2{fill:#f2f2f2;}.cls-3{fill:#555;}.cls-4{fill:#ccc;}.cls-5{fill:#ebf0f5;}.cls-6{fill:#fff;}.cls-7{fill:#d0d0d0;}.cls-8{fill:#e30613;}.cls-9{fill:#aaa;}.cls-10{fill:#414042;}.cls-11{fill:#888;}.cls-12{fill:#999;}</style></defs><path class="cls-1" d="M197.67,371.17a27.17,27.17,0,0,0-5.76-5.62V152a31.35,31.35,0,0,0-31.34-31.34H155.3A31.34,31.34,0,0,0,124,152V360.42h-7.66V152A31.36,31.36,0,0,0,85,120.64H79.69A31.35,31.35,0,0,0,48.36,152V365.56a27.78,27.78,0,0,0-11.48,22.3v26.49a17.61,17.61,0,0,0,1.54,6.8c5.61,12.75,24,25.16,24,27.05v29.34a11.59,11.59,0,0,0,5.08,22A11.61,11.61,0,0,0,56.32,508a11.58,11.58,0,0,0,11.15,14.81,11.61,11.61,0,1,0,0,23.22H80c-1.48,1-2.3,2.09-2.3,3.21,0,5.53,19,9.95,42.41,9.95s42.42-4.42,42.42-9.95c0-1.12-.82-2.2-2.3-3.21h12.6A11.62,11.62,0,0,0,184,531.18a12,12,0,0,0-2.92-5,11.8,11.8,0,0,0-8.18-3.38A11.61,11.61,0,0,0,184,508a12.1,12.1,0,0,0-2.92-5,11.83,11.83,0,0,0-8.18-3.37A11.61,11.61,0,0,0,184,484.75a11.27,11.27,0,0,0-6-7.22V448.2c0-1.89,18.4-14.36,23.94-27.11a17.25,17.25,0,0,0,1.54-6.74V387.86A27,27,0,0,0,197.67,371.17ZM150.11,162.88a6.74,6.74,0,0,1,13.47,0V360.42H150.11Zm-68.85-6.7a6.71,6.71,0,0,1,6.7,6.7V360.42H74.49V162.88A6.73,6.73,0,0,1,81.26,156.18Z" transform="translate(-25.59 -82.71)"></path><path class="cls-2" d="M105,139.71V354.94a31.28,31.28,0,0,1-28.34,31.15V150.62a6.74,6.74,0,0,0-13.47,0V385.84a31.27,31.27,0,0,1-26.14-30.9V139.71a31.36,31.36,0,0,1,31.34-31.33h5.26A31.36,31.36,0,0,1,105,139.71Z" transform="translate(-25.59 -82.71)"></path><path class="cls-2" d="M180.63,139.71V354.94a31.28,31.28,0,0,1-28.34,31.15V150.62a6.73,6.73,0,0,0-13.46,0V385.84a31.28,31.28,0,0,1-26.15-30.9V139.71A31.34,31.34,0,0,1,144,108.38h5.27A31.36,31.36,0,0,1,180.63,139.71Z" transform="translate(-25.59 -82.71)"></path><path class="cls-2" d="M192.1,375.6v26.49a17.47,17.47,0,0,1-1.54,6.74c-5.54,12.74-23.95,25.22-23.95,27.11v33.84a27.41,27.41,0,0,1-27.46,27.38H78.55A27.43,27.43,0,0,1,51.1,469.78V435.94c0-1.89-18.36-14.3-24-27.05a17.45,17.45,0,0,1-1.55-6.8V375.6A27.56,27.56,0,0,1,53,348.16H164.65A27.54,27.54,0,0,1,192.1,375.6Z" transform="translate(-25.59 -82.71)"></path><path class="cls-3" d="M66.44,537c0,5.52,19,9.95,42.4,9.95s42.42-4.43,42.42-9.95-19-9.91-42.42-9.91S66.44,531.5,66.44,537Z" transform="translate(-25.59 -82.71)"></path><path class="cls-4" d="M173.12,475.7a11.56,11.56,0,0,1-11.55,11.6H56.19a11.57,11.57,0,0,1-11.61-11.6,11.76,11.76,0,0,1,.46-3.22,11.62,11.62,0,0,1,11.15-8.39H161.57a11.71,11.71,0,0,1,8.18,3.38,11.73,11.73,0,0,1,3.37,8.23Z" transform="translate(-25.59 -82.71)"></path><path class="cls-4" d="M173.12,498.91a11.57,11.57,0,0,1-11.55,11.61H56.19a11.61,11.61,0,0,1,0-23.22H161.57a11.79,11.79,0,0,1,8.18,3.37,12.23,12.23,0,0,1,2.92,5A12,12,0,0,1,173.12,498.91Z" transform="translate(-25.59 -82.71)"></path><path class="cls-4" d="M173.12,522.13a11.57,11.57,0,0,1-11.55,11.61H56.19a11.61,11.61,0,0,1,0-23.22H161.57a11.83,11.83,0,0,1,8.18,3.37,12.23,12.23,0,0,1,2.92,5A12,12,0,0,1,173.12,522.13Z" transform="translate(-25.59 -82.71)"></path><rect class="cls-4" x="25.62" y="375.46" width="115.29" height="6.76"></rect><path class="cls-5" d="M192.1,375.6v26.49a17.47,17.47,0,0,1-1.54,6.74,8.52,8.52,0,0,1-1.26.06H27.14a17.45,17.45,0,0,1-1.55-6.8V375.6a27,27,0,0,1,5.72-16.69H186.39A27,27,0,0,1,192.1,375.6Z" transform="translate(-25.59 -82.71)"></path><path class="cls-1" d="M1159.55,937.45a132.94,132.94,0,0,0-92.33-216.11h-10.6A132.95,132.95,0,0,0,964.3,937.45h-.16s32.14,84.77,26.66,118.74a14.3,14.3,0,0,0-2,6.88v3.67A14.87,14.87,0,0,0,999.37,1081a12.53,12.53,0,0,0-6.39,7.72,13,13,0,0,0-.5,3.47,12.52,12.52,0,0,0,12.55,12.53,12.56,12.56,0,0,0-12,9.09,13,13,0,0,0-.5,3.47,12.52,12.52,0,0,0,12.55,12.53,12.55,12.55,0,0,0-12,9.08,13,13,0,0,0-.5,3.46,12.52,12.52,0,0,0,12.55,12.54h13.56c-1.61,1.09-2.49,2.26-2.49,3.47,0,6,20.5,10.76,45.82,10.76s45.84-4.79,45.84-10.76c0-1.21-.89-2.38-2.5-3.47h13.63a12.49,12.49,0,0,0,12.47-12.54,12.21,12.21,0,0,0-.49-3.46,13.27,13.27,0,0,0-3.15-5.44,12.73,12.73,0,0,0-8.83-3.64,12.49,12.49,0,0,0,12.47-12.53,12.23,12.23,0,0,0-.49-3.47,13.27,13.27,0,0,0-3.15-5.44,12.69,12.69,0,0,0-8.83-3.65,12.49,12.49,0,0,0,12.47-12.53,12.28,12.28,0,0,0-.49-3.47,13.27,13.27,0,0,0-3.15-5.44,13.13,13.13,0,0,0-3.22-2.28,14.86,14.86,0,0,0,10.53-14.21v-3.67a14.31,14.31,0,0,0-2-6.88c-5.48-34,26.66-118.74,26.66-118.74Z" transform="translate(-25.59 -82.71)"></path><path class="cls-1" d="M845.92,840.41A19.9,19.9,0,0,1,826,860.3H595.8a19.89,19.89,0,0,1-19.9-19.89V610.16a19.89,19.89,0,0,1,19.9-19.89H826a19.89,19.89,0,0,1,19.9,19.89Z" transform="translate(-25.59 -82.71)"></path><path class="cls-1" d="M550,988.63a31.72,31.72,0,0,1-31.76,31.74H150.63a31.71,31.71,0,0,1-31.74-31.74V621a31.7,31.7,0,0,1,31.74-31.73H518.25A31.72,31.72,0,0,1,550,621Z" transform="translate(-25.59 -82.71)"></path><path class="cls-1" d="M545.05,542.21a19.88,19.88,0,0,1-19.89,19.88H294.92a19.86,19.86,0,0,1-19.87-19.88V312a19.87,19.87,0,0,1,19.87-19.88H525.16A19.88,19.88,0,0,1,545.05,312Z" transform="translate(-25.59 -82.71)"></path><path class="cls-2" d="M834.33,826.46a19.9,19.9,0,0,1-19.89,19.89H584.21a19.89,19.89,0,0,1-19.9-19.89V596.21a19.89,19.89,0,0,1,19.9-19.89H814.44a19.89,19.89,0,0,1,19.89,19.89Z" transform="translate(-25.59 -82.71)"></path><path class="cls-6" d="M805.26,837.49H593.39a20.23,20.23,0,0,1-20.23-20.22V605.4a20.24,20.24,0,0,1,20.23-20.23H805.26a20.24,20.24,0,0,1,20.22,20.23V817.27A20.23,20.23,0,0,1,805.26,837.49ZM593.39,589A16.4,16.4,0,0,0,577,605.4V817.27a16.4,16.4,0,0,0,16.4,16.37H805.26a16.4,16.4,0,0,0,16.38-16.37V605.4A16.39,16.39,0,0,0,805.26,589Z" transform="translate(-25.59 -82.71)"></path><path class="cls-7" d="M730.54,770a9.15,9.15,0,0,1-9.14,9.15H677.24a9.12,9.12,0,0,1-9.13-9.15V652.7a9.12,9.12,0,0,1,9.13-9.15H721.4a9.15,9.15,0,0,1,9.14,9.15Z" transform="translate(-25.59 -82.71)"></path><path class="cls-4" d="M739,634v149a11.56,11.56,0,0,1-11.59,11.6H671.31a11.61,11.61,0,0,1-11.65-11.6V634a11.63,11.63,0,0,1,11.65-11.58h56.08A11.58,11.58,0,0,1,739,634Z" transform="translate(-25.59 -82.71)"></path><path class="cls-3" d="M739,712v74.5A11.54,11.54,0,0,1,727.39,798H671.31a11.59,11.59,0,0,1-11.65-11.57V712Z" transform="translate(-25.59 -82.71)"></path><path class="cls-2" d="M538.43,974.68a31.73,31.73,0,0,1-31.77,31.74H139.05a31.72,31.72,0,0,1-31.75-31.74V607a31.71,31.71,0,0,1,31.75-31.73H506.66A31.72,31.72,0,0,1,538.43,607Z" transform="translate(-25.59 -82.71)"></path><path class="cls-6" d="M492.05,992.27H153.7A32.3,32.3,0,0,1,121.39,960V621.67a32.33,32.33,0,0,1,32.31-32.28H492.05a32.32,32.32,0,0,1,32.27,32.28V960A32.29,32.29,0,0,1,492.05,992.27ZM153.7,595.53a26.16,26.16,0,0,0-26.14,26.14V960a26.14,26.14,0,0,0,26.14,26.09H492.05A26.13,26.13,0,0,0,518.17,960V621.67a26.15,26.15,0,0,0-26.12-26.14Z" transform="translate(-25.59 -82.71)"></path><path class="cls-4" d="M449,783.32A126.32,126.32,0,0,1,345.44,907.59V886.77a5.26,5.26,0,0,0-5.29-5.28H307.22a5.26,5.26,0,0,0-5.29,5.28v21.17A126.44,126.44,0,0,1,196.27,783.32c0-62.68,45.79-114.69,105.66-124.6v20a5.33,5.33,0,0,0,5.29,5.3h32.93a5.32,5.32,0,0,0,5.29-5.3V659.08A126.27,126.27,0,0,1,449,783.32Z" transform="translate(-25.59 -82.71)"></path><path class="cls-3" d="M296.1,783.11a28.71,28.71,0,1,1-28.7-28.72A28.71,28.71,0,0,1,296.1,783.11Z" transform="translate(-25.59 -82.71)"></path><path class="cls-3" d="M410.65,783.11a28.71,28.71,0,1,1-28.73-28.72A28.73,28.73,0,0,1,410.65,783.11Z" transform="translate(-25.59 -82.71)"></path><path class="cls-2" d="M533.46,528.26a19.87,19.87,0,0,1-19.89,19.88H283.34a19.87,19.87,0,0,1-19.88-19.88V298a19.87,19.87,0,0,1,19.88-19.88H513.57A19.88,19.88,0,0,1,533.46,298Z" transform="translate(-25.59 -82.71)"></path><path class="cls-6" d="M504.41,539.31H292.54a20.24,20.24,0,0,1-20.23-20.22V307.2A20.24,20.24,0,0,1,292.54,287H504.41a20.25,20.25,0,0,1,20.21,20.22V519.09A20.25,20.25,0,0,1,504.41,539.31ZM292.54,290.83a16.39,16.39,0,0,0-16.38,16.37V519.09a16.38,16.38,0,0,0,16.38,16.36H504.41a16.38,16.38,0,0,0,16.37-16.36V307.2a16.38,16.38,0,0,0-16.37-16.37Z" transform="translate(-25.59 -82.71)"></path><path class="cls-4" d="M493.59,409a95.13,95.13,0,1,1-95.12-95.14A95.12,95.12,0,0,1,493.59,409Z" transform="translate(-25.59 -82.71)"></path><path class="cls-2" d="M480.58,409.76a82.21,82.21,0,1,1-1.26-14.25A78.6,78.6,0,0,1,480.58,409.76Z" transform="translate(-25.59 -82.71)"></path><path class="cls-8" d="M461.27,381c-.26-.49-.6-.95-.91-1.43v0a66.11,66.11,0,0,0-126.49,29.64c4-17.58,18.76-32.79,39-37.84,24.05-5.94,47.79,4.45,57.76,23.64.35.63.67,1.29,1,1.94a.77.77,0,0,0,.17.32,16.52,16.52,0,0,0,18,7.44c.08-.05.15-.06.2-.11l.23,0a16.85,16.85,0,0,0,9.21-5.87,16.12,16.12,0,0,0,3.2-14.1A14.06,14.06,0,0,0,461.27,381Z" transform="translate(-25.59 -82.71)"></path><path class="cls-2" d="M953.65,925.23A132.93,132.93,0,0,1,1046,709.13h10.59a132.93,132.93,0,0,1,92.33,216.1h.14S1116.89,1010,1122.37,1044a14.27,14.27,0,0,1,2,6.88v3.68a14.8,14.8,0,0,1-14.67,14.82H992.83a14.81,14.81,0,0,1-14.68-14.82v-3.68a14.37,14.37,0,0,1,2-6.88c5.48-34-26.66-118.74-26.66-118.74Z" transform="translate(-25.59 -82.71)"></path><path class="cls-4" d="M1079.81,1051.38a28.54,28.54,0,0,1-28.55,28.54h0a28.56,28.56,0,0,1-28.55-28.54V968.22a28.55,28.55,0,0,1,28.55-28.54h0a28.54,28.54,0,0,1,28.55,28.54Z" transform="translate(-25.59 -82.71)"></path><path class="cls-3" d="M1005.44,1146.1c0,6,20.51,10.75,45.82,10.75s45.84-4.78,45.84-10.75-20.53-10.71-45.84-10.71S1005.44,1140.21,1005.44,1146.1Z" transform="translate(-25.59 -82.71)"></path><path class="cls-4" d="M1120.7,1079.92a12.49,12.49,0,0,1-12.47,12.54H994.37a12.51,12.51,0,0,1-12.54-12.54,13,13,0,0,1,.49-3.46,12.57,12.57,0,0,1,12-9.09h113.86a12.74,12.74,0,0,1,8.83,3.65,13.21,13.21,0,0,1,3.15,5.44A12.21,12.21,0,0,1,1120.7,1079.92Z" transform="translate(-25.59 -82.71)"></path><path class="cls-4" d="M1120.7,1105a12.49,12.49,0,0,1-12.47,12.54H994.37A12.51,12.51,0,0,1,981.83,1105a13.1,13.1,0,0,1,.49-3.47,12.57,12.57,0,0,1,12-9.08h113.86a12.73,12.73,0,0,1,8.83,3.64,13.34,13.34,0,0,1,3.15,5.44A12.33,12.33,0,0,1,1120.7,1105Z" transform="translate(-25.59 -82.71)"></path><path class="cls-4" d="M1120.7,1130.08a12.48,12.48,0,0,1-12.47,12.54H994.37a12.5,12.5,0,0,1-12.54-12.54,12.89,12.89,0,0,1,.49-3.45,12.55,12.55,0,0,1,12-9.08h113.86a12.73,12.73,0,0,1,8.83,3.64,13.21,13.21,0,0,1,3.15,5.44A12.14,12.14,0,0,1,1120.7,1130.08Z" transform="translate(-25.59 -82.71)"></path><path class="cls-9" d="M1081.7,1067.37h-6.19l.26-114.51,44.62-102.29c-17,0-41.19-5.52-47.82-11.44a17.62,17.62,0,0,1-3.82-4.75,123.38,123.38,0,0,1-16,2.56,139.75,139.75,0,0,1-18.85-2.83,17.82,17.82,0,0,1-4,5c-6.63,5.93-30.85,11.42-47.86,11.44L1027,954.09v113.28h-6.18V954.74L975.24,850.22a22.85,22.85,0,0,1-7.35-1.89c-4-2-4.39-5.1-4.24-6.75s.61-6.76,4.56-7.71c4.12-1,7.93,4.09,9.36,6.33l1.81,4.15c15.48.51,41-5,46.47-9.83a12.64,12.64,0,0,0,2-2.2c-3.83-1.42-6.67-3.21-7.51-5.43a5.37,5.37,0,0,1,1.35-5.68c3.31-3.53,6.48-3.33,8.06-2.93,2.72.72,4.81,3.09,5.59,6.34a12.19,12.19,0,0,1,.3,3.5,140.78,140.78,0,0,0,17.16,2.69,124.44,124.44,0,0,0,14.18-2.39,12.21,12.21,0,0,1,.28-3.8c.78-3.25,2.86-5.62,5.58-6.34,1.6-.41,4.76-.6,8,2.93a5.42,5.42,0,0,1,1.42,5.82c-.86,2.27-3.68,4.08-7.42,5.5a13.34,13.34,0,0,0,1.83,2c5.42,4.85,31,10.41,46.42,9.83l1.62-3.72c1.66-2.67,5.42-7.75,9.59-6.76,3.94,1,4.41,6,4.56,7.71s-.2,4.72-4.24,6.75a22.53,22.53,0,0,1-7.39,1.89L1081.7,954.74Zm50.82-226.76a18.46,18.46,0,0,0-2.29,2.81c2.09-.59,2.51-1.23,2.51-1.24A15.18,15.18,0,0,0,1132.52,840.61Zm-162.5,0a13.46,13.46,0,0,0-.22,1.53c0,.05.4.68,2.48,1.27l-.15-.32A17.34,17.34,0,0,0,970,840.61Zm104.49-16.37h-.12c-.31.09-.88.64-1.15,1.81a3.71,3.71,0,0,0-.11.58,11.86,11.86,0,0,0,3-1.44A2.81,2.81,0,0,0,1074.51,824.24Zm-48,.82a11.68,11.68,0,0,0,2.81,1.31c0-.1,0-.2,0-.31-.29-1.17-.85-1.72-1.17-1.81S1027.26,824.41,1026.55,825.06Z" transform="translate(-25.59 -82.71)"></path><rect class="cls-9" x="1035.82" y="832.71" width="6.18" height="63.63" transform="translate(-147.38 89.34) rotate(-8.94)"></rect><rect class="cls-9" x="1031.81" y="861.44" width="63.63" height="6.18" transform="translate(18.08 1697.47) rotate(-81.02)"></rect><path class="cls-4" d="M1070.71,894.75a6.31,6.31,0,0,1-6.32,6.31h-26.25a6.32,6.32,0,0,1-6.32-6.31h0a6.32,6.32,0,0,1,6.32-6.32h26.25a6.31,6.31,0,0,1,6.32,6.32Z" transform="translate(-25.59 -82.71)"></path><path class="cls-4" d="M1060.81,963.8c0,7.57-4.27,13.71-9.55,13.71h0c-5.27,0-9.54-6.14-9.54-13.71V902.13c0-7.57,4.27-13.7,9.54-13.7h0c5.28,0,9.55,6.13,9.55,13.7Z" transform="translate(-25.59 -82.71)"></path><path class="cls-2" d="M1062.57,1067.1V982.53a10.43,10.43,0,0,0-20.85,0v84.57Z" transform="translate(-25.59 -82.71)"></path><path class="cls-6" d="M410.7,267.32a3.61,3.61,0,0,1-3.61-3.61V246.43a3.61,3.61,0,0,1,7.22,0v17.28A3.61,3.61,0,0,1,410.7,267.32Zm0-38.93a3.6,3.6,0,0,1-3.61-3.61V203.13a3.61,3.61,0,0,1,7.22,0v21.65A3.61,3.61,0,0,1,410.7,228.39Zm0-43.3a3.6,3.6,0,0,1-3.61-3.6V166.33a10.71,10.71,0,0,0-1.07-4.7,3.61,3.61,0,1,1,6.5-3.14,17.83,17.83,0,0,1,1.79,7.84v15.16A3.61,3.61,0,0,1,410.7,185.09Zm-19.89-29.58H369.16a3.61,3.61,0,0,1,0-7.22h21.65a3.61,3.61,0,0,1,0,7.22Zm-43.3,0H325.86a3.61,3.61,0,0,1,0-7.22h21.65a3.61,3.61,0,1,1,0,7.22Zm-43.3,0H282.57a3.61,3.61,0,0,1,0-7.22h21.64a3.61,3.61,0,1,1,0,7.22Zm-43.29,0H239.27a3.61,3.61,0,0,1,0-7.22h21.65a3.61,3.61,0,0,1,0,7.22Zm-43.3,0H196a3.61,3.61,0,1,1,0-7.22h21.64a3.61,3.61,0,0,1,0,7.22Z" transform="translate(-25.59 -82.71)"></path><path class="cls-6" d="M945.48,1006.66H923.83a3.61,3.61,0,1,1,0-7.21h21.65a3.61,3.61,0,1,1,0,7.21Zm-43.3,0H880.54a3.61,3.61,0,1,1,0-7.21h21.64a3.61,3.61,0,1,1,0,7.21Zm-43.29,0H837.24a3.61,3.61,0,1,1,0-7.21h21.65a3.61,3.61,0,1,1,0,7.21Zm-43.3,0H793.94a3.61,3.61,0,0,1,0-7.21h21.65a3.61,3.61,0,1,1,0,7.21Zm-43.29,0H750.65a3.61,3.61,0,1,1,0-7.21H772.3a3.61,3.61,0,0,1,0,7.21Zm-43.3,0h-8.78a19.07,19.07,0,0,1-14.1-6.25,3.61,3.61,0,1,1,5.36-4.84,11.83,11.83,0,0,0,8.74,3.88H729a3.61,3.61,0,1,1,0,7.21Zm-24.16-25.72a3.6,3.6,0,0,1-3.61-3.61V955.68a3.61,3.61,0,0,1,7.22,0v21.65A3.61,3.61,0,0,1,704.84,980.94Zm0-43.3a3.6,3.6,0,0,1-3.61-3.6V912.39a3.61,3.61,0,0,1,7.22,0V934A3.61,3.61,0,0,1,704.84,937.64Zm0-43.29a3.6,3.6,0,0,1-3.61-3.61V872.91a3.61,3.61,0,0,1,7.22,0v17.83A3.61,3.61,0,0,1,704.84,894.35Z" transform="translate(-25.59 -82.71)"></path><path class="cls-6" d="M1060.81,687.59a3.6,3.6,0,0,1-3.61-3.6v-8.28a3.61,3.61,0,1,1,7.21,0V684A3.6,3.6,0,0,1,1060.81,687.59Zm0-29.92a3.6,3.6,0,0,1-3.61-3.61V632.42a3.61,3.61,0,1,1,7.21,0v21.64A3.6,3.6,0,0,1,1060.81,657.67Zm0-43.29a3.61,3.61,0,0,1-3.61-3.61V589.12a3.61,3.61,0,1,1,7.21,0v21.65A3.61,3.61,0,0,1,1060.81,614.38Zm0-43.3a3.6,3.6,0,0,1-3.61-3.61V545.83a3.61,3.61,0,1,1,7.21,0v21.64A3.6,3.6,0,0,1,1060.81,571.08Zm0-43.29a3.61,3.61,0,0,1-3.61-3.61V502.53a3.61,3.61,0,1,1,7.21,0v21.65A3.61,3.61,0,0,1,1060.81,527.79Zm0-43.3a3.6,3.6,0,0,1-3.61-3.61V459.24a3.61,3.61,0,1,1,7.21,0v21.64A3.6,3.6,0,0,1,1060.81,484.49Zm0-43.29a3.61,3.61,0,0,1-3.61-3.61V421.71a11.66,11.66,0,0,0-.82-4.3,3.61,3.61,0,1,1,6.71-2.66,18.79,18.79,0,0,1,1.32,7v15.88A3.61,3.61,0,0,1,1060.81,441.2Zm-18.64-31.26h-21.64a3.61,3.61,0,1,1,0-7.21h21.64a3.61,3.61,0,1,1,0,7.21Z" transform="translate(-25.59 -82.71)"></path><circle class="cls-1" cx="771.57" cy="238.79" r="225.55"></circle><circle class="cls-2" cx="785.91" cy="308.26" r="213.29" transform="translate(-33.28 -62.33) rotate(-1.48)"></circle><rect class="cls-10" x="609.91" y="155.34" width="300.81" height="70.2"></rect><rect class="cls-3" x="609.91" y="155.34" width="59.01" height="70.21"></rect><rect class="cls-3" x="670.36" y="155.34" width="59.01" height="70.21"></rect><rect class="cls-3" x="730.81" y="155.34" width="59.01" height="70.21"></rect><rect class="cls-3" x="791.26" y="155.34" width="59.01" height="70.2"></rect><rect class="cls-3" x="851.71" y="155.34" width="59.01" height="70.2"></rect><path class="cls-6" d="M647.82,259.44c0-7.29,5.19-10.93,11.6-10.93h11.07c8.23,0,11.27,5.13,11.27,10.93V287c0,8-4.59,10.93-11.27,10.93H659.42c-6.14,0-11.6-2.83-11.6-10.93Zm11.6,33.47h11.07c4.32,0,6.27-2.3,6.27-5.94V259.44c0-3.1-1.28-5.94-6.27-5.94H659.42c-4.72,0-6.61,2.7-6.61,5.94V287C652.81,291.49,656.18,292.91,659.42,292.91Z" transform="translate(-25.59 -82.71)"></path><path class="cls-6" d="M706.32,249.18a153.64,153.64,0,0,1,20.52-1.35c9.78,0,13.69,7.29,13.69,14.17,0,13.23-19.23,27.6-24.09,30.91h24.09v5H706.8v-4.59c7.35-5,28.67-20.24,28.67-31.44,0-4.93-2.5-9-8.7-9H706.32Z" transform="translate(-25.59 -82.71)"></path><path class="cls-6" d="M770.77,280.9c0-5,3-6.35,5.73-7.22-4.31-1.49-5.73-5.87-5.73-9.45v-4.39c0-9,4.93-11.67,11.88-11.67h9.85c7.22,0,10.93,3.37,10.93,11.67v4.39c.06,1.48-.21,6.81-5.06,7.82,3.64.68,5.12,5.94,5.06,8.85v6.61c0,8.77-6.68,10.39-11,10.39h-9.78c-11.61,0-11.88-7.62-11.88-10.39Zm11.13-10.66h10.73c4.93,0,5.8-3.24,5.8-5.67V260c0-5-1.95-6.82-5.93-6.82h-9.85c-4.32,0-6.89.75-6.89,6.82v4.59C775.76,269.09,779.61,270.24,781.9,270.24Zm.75,22.67h9.78c2.9,0,6-1.62,6-5.2v-7.08c0-3.85-2.83-5.47-5.8-5.47H781.9c-3.1,0-6.14,1.28-6.14,5.47v7.08C775.76,291,777.72,292.91,782.65,292.91Z" transform="translate(-25.59 -82.71)"></path><path class="cls-6" d="M831,292.84h20.52c4.65,0,6.07-3.31,6.07-6.27v-7.43c0-2.23-.07-6.34-6.07-6.34H841.12c-2.64,0-5.54,1.41-5.54,5.06h-4.45l1.48-29.35h28.48v5H837.2l-.81,16.33c1-1.15,2.84-1.75,5-2,3.64-.48,8,0,10.12,0,8,0,11.06,4.65,11.06,11.19v7.7c0,9.24-6.88,11.47-11.06,11.47A94.88,94.88,0,0,1,831,296.55Z" transform="translate(-25.59 -82.71)"></path><path class="cls-6" d="M909.42,248.51h5.94L895.52,280h19.16v-14l2.5-5.06h2.5v19h6.07v4l-6.07,1.28v12.48h-5V285.28H890.05l-2.29-2.49Z" transform="translate(-25.59 -82.71)"></path><rect class="cls-6" x="657.36" y="105.78" width="208.46" height="30.15"></rect><rect class="cls-10" x="602.23" y="246.8" width="299.5" height="6.13"></rect><rect class="cls-10" x="600.39" y="237.91" width="3.68" height="23.91"></rect><path class="cls-10" d="M945.83,332.57c-8.71,3.24-19.51,8.74-26.2,14.58l5.27-14.58L919.63,318C926.32,323.84,937.12,329.34,945.83,332.57Z" transform="translate(-25.59 -82.71)"></path><rect class="cls-3" x="654.82" y="239.14" width="211" height="21.46"></rect><rect class="cls-11" x="622.87" y="292.79" width="120.07" height="18.9"></rect><rect class="cls-11" x="778.7" y="292.79" width="120.07" height="18.9"></rect><path class="cls-3" d="M699.43,428.11a13.8,13.8,0,1,1-13.79-13.79A13.8,13.8,0,0,1,699.43,428.11Z" transform="translate(-25.59 -82.71)"></path><path class="cls-3" d="M767.13,428.11a13.8,13.8,0,1,1-13.8-13.79A13.8,13.8,0,0,1,767.13,428.11Z" transform="translate(-25.59 -82.71)"></path><path class="cls-3" d="M834.82,428.11A13.8,13.8,0,1,1,821,414.32,13.8,13.8,0,0,1,834.82,428.11Z" transform="translate(-25.59 -82.71)"></path><path class="cls-3" d="M902.51,428.11a13.8,13.8,0,1,1-13.79-13.79A13.79,13.79,0,0,1,902.51,428.11Z" transform="translate(-25.59 -82.71)"></path><path class="cls-3" d="M808.39,148.13a22.48,22.48,0,1,1-22.48-22.48A22.48,22.48,0,0,1,808.39,148.13Z" transform="translate(-25.59 -82.71)"></path><path class="cls-9" d="M785.91,516.94c-115.07,0-208.69-93.61-208.69-208.68S670.84,99.57,785.91,99.57s208.68,93.61,208.68,208.69S901,516.94,785.91,516.94Zm0-411.24c-111.69,0-202.56,90.86-202.56,202.56s90.87,202.55,202.56,202.55S988.46,420,988.46,308.26,897.6,105.7,785.91,105.7Z" transform="translate(-25.59 -82.71)"></path><path class="cls-4" d="M785.91,95c117.8,0,213.28,95.49,213.28,213.29S903.71,521.54,785.91,521.54,572.62,426.05,572.62,308.26,668.12,95,785.91,95Zm0-12.26c-124.37,0-225.55,101.18-225.55,225.55S661.54,533.81,785.91,533.81s225.55-101.19,225.55-225.55S910.27,82.71,785.91,82.71Z" transform="translate(-25.59 -82.71)"></path><path class="cls-12" d="M800.75,148.13a14.84,14.84,0,1,1-14.84-14.85A14.84,14.84,0,0,1,800.75,148.13Z" transform="translate(-25.59 -82.71)"></path></svg>