<?xml version="1.0" encoding="utf-8"?>
<!-- Generator: Adobe Illustrator 26.2.1, SVG Export Plug-In . SVG Version: 6.00 Build 0)  -->
<svg version="1.1" xmlns="http://www.w3.org/2000/svg" xmlns:xlink="http://www.w3.org/1999/xlink" x="0px" y="0px"
	 viewBox="0 0 600 600" style="enable-background:new 0 0 600 600;" xml:space="preserve">
<style type="text/css">
	.st0{fill:#E20613;}
	.st1{fill-rule:evenodd;clip-rule:evenodd;fill:#FFFFFF;}
</style>
<g id="Logos">
	<rect class="st0" width="600" height="600"/>
	<g>
		<polygon class="st1" points="512.4,262.2 550,262.2 550,337.8 512.4,337.8 512.4,262.2 		"/>
		<polygon class="st1" points="292.4,303.6 292.4,262.2 251.6,262.2 251.6,303.6 251.6,337.8 292.4,337.8 367.4,337.8 367.4,303.6 
					"/>
		<polygon class="st1" points="204.3,262.2 245.2,262.2 245.2,337.8 204.3,337.8 204.3,262.2 		"/>
		<polygon class="st1" points="506,262.2 338.2,262.2 338.2,296.6 403.3,296.6 403.3,337.8 440.9,337.8 440.9,296.6 506,296.6 		"/>
		<polygon class="st1" points="157.9,262.2 157.9,283.8 90.3,283.8 90.3,262.2 50,262.2 50,283.8 50,314.7 50,337.8 90.3,337.8 
			90.3,314.7 157.9,314.7 157.9,337.8 198.2,337.8 198.2,262.2 		"/>
	</g>
</g>
<g id="Guides">
</g>
</svg>
