<svg xmlns="http://www.w3.org/2000/svg" viewBox="0 0 200 200"><defs><style>.cls-1{fill:none;}.cls-2{fill:#222;}</style></defs><g id="Layer_2" data-name="Layer 2"><g id="Layer_1-2" data-name="Layer 1"><rect class="cls-1" width="200" height="200"/><path class="cls-2" d="M104.75,10.35a57.07,57.07,0,0,1,19.13,4.73,59.11,59.11,0,0,1,34.67,47.48c2,19.78-4.47,36.49-19,50a30.38,30.38,0,0,0-10.09,24.3,2.33,2.33,0,0,0,.78,1.69c6.3,4,7.49,9.34,3.72,14.91.73,2.65,1.8,4.91,1.91,7.21a9.43,9.43,0,0,1-9.3,9.71c-3.67.15-3.67.15-4.78,3.68-3.21,10.16-12.51,16.43-23.55,15.9-9.89-.48-18.58-8.18-20.7-18.34-.06-.31-.12-.62-.24-1.22H74.17c-4.06,0-7.19-1.7-9-5.34A9.4,9.4,0,0,1,66,154.76c.14-.2.27-.42.47-.74a9.74,9.74,0,0,1-2.28-8.36,9.17,9.17,0,0,1,5.12-6.79,2,2,0,0,0,1.29-2C71,127,67.52,119,60.25,112.32A59.47,59.47,0,0,1,47.87,41.44C58.89,20.45,82,8.73,104.75,10.35Zm1.86,87.93c0-3.44-.06-6.63,0-9.81a9.77,9.77,0,0,1,9.79-9.73,9.87,9.87,0,0,1,9.8,9.58q.14,3.54,0,7.1a9.71,9.71,0,0,1-9.26,9.46c-1.19.08-2.4,0-3.63,0v32.68h9.47a6.24,6.24,0,0,0,.11-.89c-.23-12.06,4.56-21.66,13.26-30C149.77,93.62,155,77.31,151.31,58.79,145.72,30.59,119.93,13,91.47,17.25,62.84,21.58,42.77,50.36,48.54,78.7a53.25,53.25,0,0,0,17,29.71,33.54,33.54,0,0,1,11.3,22.17c.24,2.33.28,4.67.4,7h9.53V104.9c-1.25,0-2.39.06-3.53,0A9.47,9.47,0,0,1,74,96.15,43.92,43.92,0,0,1,74.06,87a9.51,9.51,0,0,1,9.2-8.23A9.73,9.73,0,0,1,93,85.85a18.65,18.65,0,0,1,.43,4.36c.07,2.66,0,5.32,0,8.07Zm-13,39.33h12.85V105.05H93.59ZM100,163.87h24.73c.51,0,1,0,1.53,0a3.26,3.26,0,0,0,0-6.51c-.38,0-.76,0-1.15,0H75a13,13,0,0,0-1.53,0,3.25,3.25,0,0,0,0,6.47,16.45,16.45,0,0,0,1.72,0Zm.08-19.61H74.56c-2.53,0-3.91,1.12-4,3.16s1.39,3.37,4,3.37q25.41,0,50.81,0c2.61,0,4.06-1.19,4.06-3.28s-1.42-3.24-4.06-3.25Zm15.75,26.27H84.15c1.16,7.57,8.48,13.21,16.66,12.93C108.18,183.22,115.28,177.12,115.81,170.53ZM113.2,98.32c1.29,0,2.42.07,3.55,0a2.83,2.83,0,0,0,2.81-2.66,49.7,49.7,0,0,0,0-7.62c-.14-1.72-1.46-2.65-3.2-2.71a3,3,0,0,0-3.12,2.78C113.12,91.45,113.2,94.81,113.2,98.32Zm-26.31,0c0-3.44.06-6.56,0-9.67a3.24,3.24,0,1,0-6.47-.12,62,62,0,0,0,0,6.68,3.09,3.09,0,0,0,3.23,3.1C84.65,98.41,85.65,98.36,86.89,98.36Z"/><path class="cls-2" d="M63.76,51.89a2.93,2.93,0,0,1-1.51-.41,3,3,0,0,1-1.08-4.1,47.86,47.86,0,0,1,41.2-23.68,3,3,0,0,1,0,6,41.85,41.85,0,0,0-36,20.7A3,3,0,0,1,63.76,51.89Z"/><path class="cls-2" d="M59.29,62.53a3.13,3.13,0,0,1-.8-.1,3,3,0,0,1-2.1-3.69c.3-1.11.66-2.23,1-3.32a3,3,0,0,1,5.66,2c-.34,1-.65,1.92-.91,2.89A3,3,0,0,1,59.29,62.53Z"/></g></g></svg>