<?xml version="1.0" encoding="utf-8"?>
<!-- Generator: Adobe Illustrator 26.0.3, SVG Export Plug-In . SVG Version: 6.00 Build 0)  -->
<svg version="1.1" id="Layer_1" xmlns="http://www.w3.org/2000/svg" xmlns:xlink="http://www.w3.org/1999/xlink" x="0px" y="0px"
	 viewBox="0 0 200 200" style="enable-background:new 0 0 200 200;" xml:space="preserve">
<style type="text/css">
	.st0{fill:none;}
	.st1{fill:#222222;}
</style>
<g id="Layer_2_00000073695785242068254880000005704249437085027968_">
	<g id="Layer_1-2">
		<rect class="st0" width="200" height="200"/>
		<path class="st1" d="M176.2,47.5h-4v-8.4c0-6.1,0-12.3,0-18.4c0-6.2-3.9-10.1-10.1-10.1H141c-6.5,0-10.4,3.9-10.4,10.4v26.4h-9.7
			V20.9c0-6.5-3.8-10.4-10.3-10.4h-21c-6.6,0-10.4,3.8-10.4,10.4c0,6.1,0,12.3,0,18.4v8h-9.7v-8.4c0-6.1,0-12.2,0-18.3
			s-4-10.1-10-10.1H38c-6.2,0-10.1,3.9-10.1,10.1v26.9H24c-3.1,0-4.2,1.1-4.2,4.2V152c0,3.4,1,4.4,4.4,4.5h3.6v6.8
			c0,6.7,0,13.3,0,19.9c0,1,0.1,2.1,0.3,3.1c0.8,3.4,3.1,5.7,7,7l0.2,0.1h26.6l0.2-0.1c5.1-1.8,7.5-5.6,7.3-11.5
			c-0.1-5.8-0.1-11.7-0.1-17.4c0-2.4,0-4.9,0-7.4v-0.5h9.7v0.5c0,2.5,0,4.9,0,7.4c0,5.7,0.1,11.7-0.1,17.5s2.3,9.7,7.4,11.5l0.2,0.1
			h26.5l0.2-0.1c4-1.5,6.4-4,7.1-7.5c0.2-1,0.2-1.9,0.2-2.9c0-6.8,0-13.6,0-20.4v-5.9h9.7v0.4c0,2.5,0,4.9,0,7.4
			c0,5.8,0.1,11.7-0.1,17.5c-0.1,6,2.3,9.8,7.3,11.5l0.2,0.1h26.5l0.2-0.1c5.1-1.7,7.6-5.4,7.4-11.3s-0.1-11.9-0.1-17.6
			c0-2.5,0-5,0-7.4v-0.6h0.3c1.3,0,2.6,0,3.8,0c2.7,0,3.9-1.2,3.9-3.9c0-33.7,0-67.4,0-101.1C180.2,48.7,179,47.5,176.2,47.5z
			 M158.2,187.3c-5.9,0-11.9,0-17.8,0c-2.4,0-3.7-1.3-3.7-3.6c0-7,0-14,0-21v-6.2H166v0.1c0,8.8,0,17.7,0,26.5
			c0,3.1-1.1,4.1-4.2,4.1L158.2,187.3z M162,16.7c2.8,0,4,1.2,4.1,4c0,6.3,0,12.7,0,19v7.8h-29.3v-0.3c0-8.7,0-17.3,0-26
			c0-3.3,1.1-4.4,4.4-4.4C148,16.7,155,16.6,162,16.7z M174,53.8v96.4h-45V53.8H174z M89.5,187.3c-2.9,0-4.1-1.2-4.1-4.1
			c0-6.6,0-13.3,0-20v-6.6h29.3V183c0,3.2-1.1,4.3-4.3,4.3L89.5,187.3z M55.2,187.3H38c-2.9,0-4-1.2-4-4c0-6.7,0-13.3,0-20.1v-6.7
			h29.3V183c0,3.2-1.1,4.4-4.4,4.4L55.2,187.3z M34,20.8c0-3,1.2-4.1,4.1-4.1c7.1,0,14.3,0,21.4,0c1.4,0,3.8,0.5,3.8,3.5
			c0,7,0,14.1,0,21v6.2H34c0,0,0,0,0-0.1V20.8z M71,53.8v96.4H26.1V53.8L71,53.8z M85.3,20.8c0-3,1.2-4.1,4.1-4.1
			c7.1,0,14.2,0,21.2,0c2.8,0,4,1.2,4,4c0,6.4,0,12.7,0,19.1v7.6H85.3v-0.1C85.3,38.4,85.3,29.6,85.3,20.8L85.3,20.8z M122.3,53.8
			v96.4H77.6V53.8L122.3,53.8z"/>
		<path class="st1" d="M66,89c0.1-1-0.3-2.1-1-2.8c-0.7-0.7-1.7-1-2.7-1H34.8c-1-0.1-1.9,0.3-2.7,0.9c-0.7,0.7-1,1.7-1,2.7
			c0,4.9,0,9.5,0,14c-0.1,1,0.3,2.1,1,2.8c0.8,0.7,1.8,1,2.8,0.9c0.5,0,1.1,0,1.6,0v1.7c0,2.5,0,4.8,0,7.2c0,2.9,1,3.8,3.9,3.8h16.2
			c3,0,4-1,4-4v-8.8H62c2.9,0,4-1.1,4-4v-4.9C66,94.8,66,91.9,66,89z M54.4,106.7v6.4H42.9v-6.4L54.4,106.7z M59.8,91.4v8.9H37.4
			v-0.7c0-2.8,0-5.5,0-8.2c7.3,0,14.6,0,21.9,0.1L59.8,91.4z"/>
		<path class="st1" d="M168.8,89c0-2.8-1.1-3.9-3.9-3.9c-9,0-18,0-27,0c-2.7,0-3.9,1.1-3.9,3.9s0,5.8,0,8.7v3.6
			c0,4.5,0.7,5.2,5.1,5.2h0.2v8.7c0,3.1,1,4.1,4.2,4.1h15.8c3.2,0,4.1-0.9,4.1-4.1v-8.6h1.3c3,0,4.1-1,4.1-4
			C168.8,98.1,168.8,93.5,168.8,89z M157.1,106.7v6.4h-11.5v-6.4H157.1z M162.5,91.4v8.9h-22.3v-8.8L162.5,91.4z"/>
		<path class="st1" d="M117.4,101c0.1-1-0.3-1.9-0.9-2.6c-0.7-0.7-1.6-1-2.6-0.9h-1.8v-1.8c0-2.4,0-4.7,0-7c0-3-1-4-3.9-4
			c-5.4,0-10.9,0-16.3,0c-2.8,0-3.8,1-3.8,3.9c0,2.4,0,4.7,0,7.2v1.7h-1.4c-2.9,0-4,1.1-4,3.9c0,1.6,0,3.3,0,4.9c0,2.9,0,5.8,0,8.8
			c-0.2,1.9,1.1,3.6,2.9,3.8c0.3,0,0.6,0,0.8,0h0.1c2.1,0,4.2,0,6.3,0h20.7c1.1,0.1,2.2-0.3,3-1c0.7-0.7,1-1.7,0.9-2.7
			C117.4,110.4,117.4,105.7,117.4,101z M94.2,97.3v-6.5h11.6v6.5H94.2z M111.1,103.7v8.9H88.9v-8.9H111.1z"/>
	</g>
</g>
<path class="st1" d="M151.5,20.4c-6.4,0-11.6,5.2-11.6,11.6c0,6.4,5.2,11.6,11.6,11.6c6.4,0,11.6-5.2,11.6-11.6
	C163.1,25.6,157.9,20.4,151.5,20.4z M151.5,25.4c0.9,0,1.8,0.2,2.6,0.5l-8.7,8.7c-0.3-0.8-0.5-1.7-0.5-2.6
	C144.9,28.4,147.8,25.4,151.5,25.4z M151.5,38.7c-0.9,0-1.8-0.2-2.6-0.5l8.7-8.7c0.3,0.8,0.5,1.7,0.5,2.6
	C158.1,35.7,155.2,38.7,151.5,38.7z"/>
<path class="st1" d="M151.5,160.3c-6.4,0-11.6,5.2-11.6,11.6c0,6.4,5.2,11.6,11.6,11.6c6.4,0,11.6-5.2,11.6-11.6
	C163.1,165.5,157.9,160.3,151.5,160.3z M151.5,165.3c0.9,0,1.8,0.2,2.6,0.5l-8.7,8.7c-0.3-0.8-0.5-1.7-0.5-2.6
	C144.9,168.3,147.8,165.3,151.5,165.3z M151.5,178.6c-0.9,0-1.8-0.2-2.6-0.5l8.7-8.7c0.3,0.8,0.5,1.7,0.5,2.6
	C158.1,175.6,155.2,178.6,151.5,178.6z"/>
<path class="st1" d="M100,160.3c-6.4,0-11.6,5.2-11.6,11.6c0,6.4,5.2,11.6,11.6,11.6c6.4,0,11.6-5.2,11.6-11.6
	C111.6,165.5,106.4,160.3,100,160.3z M100,165.3c0.9,0,1.8,0.2,2.6,0.5l-8.7,8.7c-0.3-0.8-0.5-1.7-0.5-2.6
	C93.3,168.3,96.3,165.3,100,165.3z M100,178.6c-0.9,0-1.8-0.2-2.6-0.5l8.7-8.7c0.3,0.8,0.5,1.7,0.5,2.6
	C106.6,175.6,103.6,178.6,100,178.6z"/>
<path class="st1" d="M48.5,160.3c-6.4,0-11.6,5.2-11.6,11.6c0,6.4,5.2,11.6,11.6,11.6c6.4,0,11.6-5.2,11.6-11.6
	C60.2,165.5,55,160.3,48.5,160.3z M48.5,165.3c0.9,0,1.8,0.2,2.6,0.5l-8.7,8.7c-0.3-0.8-0.5-1.7-0.5-2.6
	C41.9,168.3,44.9,165.3,48.5,165.3z M48.5,178.6c-0.9,0-1.8-0.2-2.6-0.5l8.7-8.7c0.3,0.8,0.5,1.7,0.5,2.6
	C55.2,175.6,52.2,178.6,48.5,178.6z"/>
<path class="st1" d="M48.5,20.4c-6.4,0-11.6,5.2-11.6,11.6c0,6.4,5.2,11.6,11.6,11.6c6.4,0,11.6-5.2,11.6-11.6
	C60.2,25.6,55,20.4,48.5,20.4z M48.5,25.4c0.9,0,1.8,0.2,2.6,0.5l-8.7,8.7c-0.3-0.8-0.5-1.7-0.5-2.6C41.9,28.4,44.9,25.4,48.5,25.4z
	 M48.5,38.7c-0.9,0-1.8-0.2-2.6-0.5l8.7-8.7c0.3,0.8,0.5,1.7,0.5,2.6C55.2,35.7,52.2,38.7,48.5,38.7z"/>
<path class="st1" d="M100,20.4c-6.4,0-11.6,5.2-11.6,11.6c0,6.4,5.2,11.6,11.6,11.6c6.4,0,11.6-5.2,11.6-11.6
	C111.6,25.6,106.4,20.4,100,20.4z M100,25.4c0.9,0,1.8,0.2,2.6,0.5l-8.7,8.7c-0.3-0.8-0.5-1.7-0.5-2.6C93.3,28.4,96.3,25.4,100,25.4
	z M100,38.7c-0.9,0-1.8-0.2-2.6-0.5l8.7-8.7c0.3,0.8,0.5,1.7,0.5,2.6C106.6,35.7,103.6,38.7,100,38.7z"/>
</svg>
