<svg xmlns="http://www.w3.org/2000/svg" viewBox="0 0 200 200"><defs><style>.cls-1{fill:none;}.cls-2{fill:#222;}</style></defs><g id="Layer_2" data-name="Layer 2"><g id="Layer_1-2" data-name="Layer 1"><rect class="cls-1" width="200" height="200"/><path class="cls-2" d="M174.05,10.17h1.75a4.17,4.17,0,0,1,2.11,4.09c-.08,5.32,0,10.64,0,16a2.26,2.26,0,0,0,.7,1.71c3.84,2.06,5.29,5.28,5.28,9.53-.07,17.13,0,34.27,0,51.4a2.13,2.13,0,0,0,1.25,2.32,8.84,8.84,0,0,1,0,15.65,2,2,0,0,0-1.22,2.17c0,3.63.07,7.25,0,10.88a8.56,8.56,0,0,1-4.55,7.78,2.45,2.45,0,0,0-1.44,2.57q.06,23.07,0,46.14c0,5.58-3.82,9.44-9.33,9.45q-61,0-122.1,0c-5.47,0-9.23-3.8-9.27-9.28,0-4.45,0-8.89,0-13.33a1.81,1.81,0,0,0-1.42-2.14,13.26,13.26,0,0,1-9.09-12.83c0-1.38,0-2.77,0-4.36-1.79,0-3.36.09-4.92,0A11.75,11.75,0,0,1,10.92,140c-.28-.69-.49-1.42-.73-2.13V20a36.44,36.44,0,0,1,1.62-3.8c1.86-3.36,4.92-5.13,8.55-6h81.76c.08.08.15.2.25.23,6.78,2.15,9.6,6,9.6,13V135c0,8-4.92,12.87-12.91,12.92H95.5c0,1.45,0,2.61,0,3.77,0,6.65-3.17,11.19-9.37,13.53-.36.14-.85.29-1,.58a4.24,4.24,0,0,0,3.59,6.08h40.52c2.64,0,3.74-1.11,3.74-3.74,0-11.47,0-22.93,0-34.39a1.8,1.8,0,0,0-1.11-1.88,8.66,8.66,0,0,1-4.89-8.09c0-3.57,0-7.14,0-10.7a2.17,2.17,0,0,0-1.35-2.29A8.4,8.4,0,0,1,121,103.1a8.24,8.24,0,0,1,4.47-7.79A2.59,2.59,0,0,0,127,92.59c0-17.3,0-34.61,0-51.92,0-3.73,1.47-6.59,4.74-8.37A2.2,2.2,0,0,0,133,30c-.05-5.26,0-10.52-.05-15.78,0-1.84.49-3.19,2.16-4h1.76A4.11,4.11,0,0,1,139,14.24c-.09,5.32,0,10.64,0,16a2.23,2.23,0,0,0,.68,1.71c3.92,2.1,5.32,5.39,5.3,9.7-.08,17.07,0,34.15,0,51.22,0,.9-.12,1.68,1,2.26a8.29,8.29,0,0,1,4.9,7.88A8.49,8.49,0,0,1,146,110.9a1.76,1.76,0,0,0-1.11,1.87c.05,3.27-.07,6.55,0,9.82.15,4.59-1.69,7.89-6,9.86v2.06c0,11.35,0,22.69,0,34a8.94,8.94,0,0,1-9.12,9.31q-20.86.08-41.74,0A9,9,0,0,1,79,169a12.21,12.21,0,0,0-.06-2.27,2.21,2.21,0,0,0-1-1.45c-6.23-2.45-9.38-7-9.42-13.74v-3.6H55.18c-.45,0-.9.07-1.55.12,0,1.34,0,2.61,0,3.88-.07,6.32-3.41,11.14-9.34,13.22-1,.36-1.16.87-1.16,1.77,0,4.39,0,8.77,0,13.16,0,2.76,1,3.77,3.84,3.77H168c2.77,0,3.86-1.05,3.86-3.79q0-23.16,0-46.31a1.8,1.8,0,0,0-1.12-1.87,8.68,8.68,0,0,1-4.88-8.11c0-3.56,0-7.13,0-10.69a2.19,2.19,0,0,0-1.37-2.28,8.43,8.43,0,0,1-4.63-7.71,8.27,8.27,0,0,1,4.48-7.78,2.57,2.57,0,0,0,1.51-2.73c0-17.3,0-34.61,0-51.92a9.3,9.3,0,0,1,5-8.61,2.38,2.38,0,0,0,1-1.74c.07-5.37.09-10.75,0-16.13C171.84,12.33,172.35,11,174.05,10.17ZM106,79v-56c0-4.59-2.31-6.9-6.9-6.9h-76c-4.68,0-7,2.31-7,7V134.93c0,4.7,2.26,7,7,7H99c4.83,0,7-2.24,7-7.1Zm32.89,15c0-.61.06-1.07.06-1.52q0-25.78,0-51.57a5.37,5.37,0,0,0-.15-1.56,2.8,2.8,0,0,0-2.67-2.16A2.69,2.69,0,0,0,133.23,39a6.68,6.68,0,0,0-.25,2.24q0,25.44,0,50.87V94Zm38.93,0c0-.56.07-1,.07-1.36q0-25.87,0-51.74a5.5,5.5,0,0,0-.23-1.72c-.44-1.29-1.44-2.21-2.76-1.92a5.48,5.48,0,0,0-2.7,1.8c-.41.46-.27,1.45-.27,2.2q0,25.42,0,50.86V94ZM32.7,148a52.93,52.93,0,0,0,0,5.36,7.42,7.42,0,0,0,6.75,6.49,7.11,7.11,0,0,0,7.59-4.93c.6-2.17.52-4.53.76-6.92Zm42,0c0,1.83-.14,3.58,0,5.29a7.33,7.33,0,0,0,6.88,6.57,7.22,7.22,0,0,0,7.6-5.44,41,41,0,0,0,.45-6.42Zm100.16-42c1.92,0,3.84,0,5.77,0a3,3,0,0,0,3.26-2.92,3,3,0,0,0-3.15-3q-5.85-.06-11.71,0A3,3,0,1,0,169,106C171,106,172.88,106,174.81,106Zm-38.87,0c1.93,0,3.85,0,5.77,0a3,3,0,1,0,0-5.95c-3.85,0-7.69,0-11.54,0a3,3,0,1,0,0,6C132.1,106,134,106,135.94,106Zm36,6c0,4,0,7.76,0,11.55,0,2,1.25,3.41,3,3.39s2.95-1.39,3-3.44c0-3.45,0-6.9,0-10.35a7.63,7.63,0,0,0-.18-1.15ZM133,112c0,4,0,7.85,0,11.74a3,3,0,1,0,6,.08c.06-2.44,0-4.89,0-7.33V112Z"/><path class="cls-2" d="M61.23,25.17H90c4.77,0,7,2.19,7,6.93q0,18.49,0,37c0,4.69-2.31,7-7,7q-28.86,0-57.7,0c-4.85,0-7.08-2.23-7.08-7.07q0-18.42,0-36.83c0-4.8,2.18-7,6.93-7Zm8.84,23.34c-3,4.57-5.92,8.9-8.81,13.22-2.16,3.23-4.43,3.16-6.35-.18l-9.12-16c-2,2.69-4,5.24-5.87,7.82a3.78,3.78,0,0,1-3.43,1.71c-1.73-.06-3.46,0-5.18,0V70H90.89V55.09c-4.5,0-8.88-.12-13.25,0a4.89,4.89,0,0,1-5-2.73C72,51.13,71.05,50,70.07,48.51Zm-38.8.6a12.41,12.41,0,0,1,1.84,0,3.72,3.72,0,0,0,4-1.94c1.85-2.76,4-5.36,6-8,2.21-2.93,4.34-2.78,6.19.44,2.67,4.66,5.32,9.33,8,14,.31.53.64,1,1.07,1.73,3.06-4.6,6-9,8.9-13.33,1.63-2.41,4-2.4,5.69,0a43.28,43.28,0,0,1,3,4.55,4.47,4.47,0,0,0,4.86,2.63c3.35-.23,6.73-.06,10.09-.06V31.26H31.27Z"/><path class="cls-2" d="M61,135.9a26.92,26.92,0,1,1,27-26.78A27,27,0,0,1,61,135.9Zm7.8-46.39A47.37,47.37,0,0,1,41.73,116.7c1.82,5.24,6.9,10.25,11.69,11.58q7.74-19.22,27.14-27A21.11,21.11,0,0,0,68.84,89.51Zm-9.57,40.31c7.6.44,13.62-2.15,18.23-7.86a20.19,20.19,0,0,0,4.43-14.81A41.25,41.25,0,0,0,59.27,129.82ZM62.91,88.1c-7.65-.37-13.73,2.23-18.33,8A19.9,19.9,0,0,0,40.3,110.8,41.22,41.22,0,0,0,62.91,88.1Z"/></g></g></svg>