<?xml version="1.0" encoding="utf-8"?>
<!-- Generator: Adobe Illustrator 26.2.1, SVG Export Plug-In . SVG Version: 6.00 Build 0)  -->
<svg version="1.1" id="Layer_1" xmlns="http://www.w3.org/2000/svg" xmlns:xlink="http://www.w3.org/1999/xlink" x="0px" y="0px"
	 viewBox="0 0 200 200" style="enable-background:new 0 0 200 200;" xml:space="preserve">
<style type="text/css">
	.st0{fill:none;}
</style>
<rect class="st0" width="200" height="200"/>
<g>
	<path d="M31.2,190c-1.9-0.9-4.1-1.5-5.8-2.8c-4-2.9-5.8-8-4.1-12.6c1.9-5.1,4.4-9.9,6.8-14.8c0.5-1.1,0.7-1.8,0.1-3
		c-1.8-3.5-1.3-7,0.9-10.3c5.5-7.9,10.9-15.8,16.4-23.7c0.4-0.5,0.7-1.1,1-1.6c-7.3-9.1-7.6-14.5-1.1-22.3c-1.9-2.2-3.4-4.7-3.8-7.7
		c-0.7-4.6,0.6-8.6,3.7-12c1.7-1.8,3.5-3.5,5.2-5.2c19.1-19.2,38.3-38.3,57.4-57.5c3-3,6-5.7,10.3-6.5c1.4,0,2.8,0,4.2,0
		c4.3,0.9,7.4,3.7,10.4,6.7c13.8,13.9,27.6,27.7,41.4,41.5c6.7,6.7,6.7,14.9,0,21.7c-20.7,20.8-41.6,41.5-62.2,62.4
		c-6.3,6.5-14.7,7.8-21.7,1.7c-3.1,3.1-6.8,4.8-11.3,4.6c-4.4-0.2-7.8-2.4-10.8-5.8c-4.8,3.3-9.5,6.6-14.3,9.9
		c-4.7,3.3-9.5,6.5-14.4,9.9c0.6,1.2,1.4,2.7,2.1,4.2c1.1,2.4,2.2,4.8,3,7.3c2.1,6.8-1.6,13.6-8.5,15.5c-0.4,0.1-0.7,0.3-1.1,0.4
		C33.8,190,32.5,190,31.2,190z M105.4,29.5C90.6,44.3,75.7,59.2,61,74c18.1,18.1,36.3,36.4,54.4,54.5c14.8-14.8,29.7-29.7,44.4-44.5
		C141.7,65.9,123.5,47.7,105.4,29.5z M55.3,79c-1.4,1.4-2.6,2.9-4,4.2c-3.8,3.8-3.8,7.7,0,11.5c10.5,10.6,21.1,21.1,31.6,31.7
		c4.1,4.1,8.2,8.3,12.4,12.4c2.6,2.6,6.4,3.1,9.1,0.8c2.1-1.7,3.7-4,5.5-5.9C91.9,115.7,73.7,97.5,55.3,79z M165.5,79.1
		c1.2-1.3,2.5-2.8,3.8-4.2c3.9-4,3.9-7.8,0-11.7c-14.4-14.4-28.8-28.8-43.2-43.3c-0.5-0.5-1-1-1.5-1.4c-2.4-1.8-5.7-2.1-8-0.3
		c-2.2,1.7-4.2,3.9-6.1,5.7C128.9,42.3,147,60.6,165.5,79.1z M50.5,104.4c-3.5,3.5-3.5,7.2,0,10.7c1.9,1.9,3.9,3.9,5.8,5.8
		c6.2,6.2,12.3,12.4,18.5,18.5c3.2,3.2,7.7,2.9,10.3-0.3C73.6,127.5,62.1,115.9,50.5,104.4z M51.7,126.5c-0.2,0.3-0.5,0.6-0.8,1
		c-5.2,7.5-10.4,15.1-15.6,22.6c-1.2,1.8-1.3,3.2-0.2,4.3c1.1,1.2,2.6,1.1,4.4-0.1c6.1-4.3,12.3-8.5,18.4-12.8
		c1.8-1.2,3.5-2.4,5.2-3.6C59.2,134,55.5,130.3,51.7,126.5z M33.4,165.6c-0.3,0-0.5,0-0.8,0c-1.6,3.6-3.2,7.2-4.6,10.9
		c-0.3,0.7-0.3,1.6-0.1,2.4c0.7,2.9,3.6,4.7,6.4,4c3-0.8,4.7-3.7,3.7-6.7C36.6,172.5,35,169.1,33.4,165.6z"/>
	<path d="M149.1,84c-0.6,1-0.9,2-1.6,2.7c-9.8,9.9-19.6,19.7-29.5,29.6c-1.9,1.9-3.7,1.7-5.8-0.4c-11-11.1-22.1-22.1-33.1-33.2
		c-1.9-1.9-3.8-3.8-5.7-5.7c-2-2-2-3.8,0-5.8c9.7-9.7,19.3-19.4,29-29.1c2.1-2.1,3.8-2.1,5.9,0c13,13,26,26,38.9,39
		C148,81.9,148.4,82.9,149.1,84z M115.2,108.6c8.2-8.2,16.5-16.5,24.6-24.6c-11.4-11.4-23-23-34.3-34.4C97.3,57.7,89.1,66,80.9,74.2
		C92.3,85.6,103.8,97.1,115.2,108.6z"/>
</g>
</svg>
