<?xml version="1.0" encoding="utf-8"?>
<!-- Generator: Adobe Illustrator 26.2.1, SVG Export Plug-In . SVG Version: 6.00 Build 0)  -->
<svg version="1.1" id="Layer_1" xmlns="http://www.w3.org/2000/svg" xmlns:xlink="http://www.w3.org/1999/xlink" x="0px" y="0px"
	 viewBox="0 0 200 200" style="enable-background:new 0 0 200 200;" xml:space="preserve">
<style type="text/css">
	.st0{fill:none;}
	.st1{fill:#222222;}
</style>
<g id="Layer_2_00000052812818816780461860000011039714932255724451_">
	<g id="Layer_1-2">
		<rect class="st0" width="200" height="200"/>
	</g>
</g>
<g>
	<g>
		<path class="st1" d="M45.8,33.3c-8.1-0.1-16.1-0.1-24.2,0c-5,0-9.1,3.4-10.5,8.1c-0.1,0.3-0.2,0.7-0.4,1c0,1.2,0,2.3,0,3.5
			c0.2,0.5,0.3,1,0.5,1.5c1.3,4,4,6.5,8,7.5c1.1,0.3,2.3,0.3,3.5,0.5c0,0.6,0,1.3,0,1.9c0,14.8,0,29.6,0,44.4c0,0.3,0,0.6,0,1
			c0,13.6,0,38.6,0,50.7c0,1.7,0.5,3.2,1.6,4.5c2,2.3,3.9,4.7,5.9,7c2.1,2.4,4.6,2.4,6.7,0c1.8-2.1,3.5-4.2,5.3-6.3
			c1.6-1.8,2.2-3.8,2.2-6.2c0-31.7,0-63.3,0-95c0-0.7,0-1.4,0-2.1c0.7-0.1,1.4-0.1,2-0.2c5.8-0.6,10.2-5.5,10-11.2
			C56.5,38.1,51.8,33.4,45.8,33.3z M39.9,153.2c0,0.5-0.1,1.1-0.4,1.5c-1.8,2.3-3.8,4.5-5.7,6.9c-1.8-2.1-3.6-4.1-5.1-6.2
			c-0.6-0.7-1-1.8-1-2.7c-0.1-11.9,0-36.7,0-50c0-0.2,0-0.4,0-0.6c0-0.5,0-1,0-1.5c0-7.6,0-15.2,0-22.8c0-0.6,0-1.1,0-1.7
			c4.2,0,8.2,0,12.2,0c0,0.3,0.1,0.6,0.1,0.8C39.9,102.3,39.9,127.8,39.9,153.2z M39.8,67.7c0,1.2,0,2.3,0,3.4c-4,0-8,0-12.2,0
			c0-1.2,0-2.3,0-3.4C31.8,67.7,35.8,67.7,39.8,67.7z M27.7,62.7c0-2.5,0-4.9,0-7.3c4.1,0,8,0,12.2,0c0,2.5,0,4.9,0,7.3
			C35.8,62.7,31.8,62.7,27.7,62.7z M45.3,50.5c-7.7,0-15.4,0-23.1,0c-3.9,0-6.7-2.7-6.6-6.3c0-3.6,2.8-6.2,6.8-6.2
			c3.8,0,7.6,0,11.4,0c3.8,0,7.7,0,11.5,0c3.8,0,6.6,2.6,6.7,6.1C52,47.8,49.2,50.5,45.3,50.5z"/>
		<path class="st1" d="M88.1,134.6c-4.7-1.4-6.8-3.7-6.7-7.4c0-3.6,2.2-5.9,6.6-7.1c0-1.3,0-2.7,0-4c-4.5-1.3-6.6-3.5-6.6-7.1
			c-0.1-3.6,1.9-5.8,6.6-7.4c0-1.3,0-2.5,0-4c-2.2-0.5-4.4-1.3-5.5-3.5c-0.6-1.3-1-2.8-1-4.2c0.1-3.4,2.2-5.6,6.6-6.7
			c0-1.1,0.1-2.2,0-3.4c0-0.3-0.5-0.8-0.8-0.9c-3.8-1.1-5.9-3.5-5.9-7c0-3.4,2.1-5.9,5.7-7c0.4-0.1,0.9-0.6,0.9-0.9
			c0.1-1.7,0-3.4,0-5.3c-2.9,0-5.7,0-8.5,0c-6.9,0-10.3-5.8-6.9-11.8c3.2-5.5,8-9.1,14-11.3c7.5-2.7,15-2.9,22.6-0.7
			c0.3,0.1,0.5,0.1,0.8,0.2c1.6,0.6,2.3,1.8,1.8,3.1c-0.4,1.3-1.7,1.8-3.3,1.3c-3.5-1.1-7.2-1.7-10.9-1.5
			c-7.1,0.4-13.4,2.5-18.4,7.8c-1,1.1-1.9,2.4-2.7,3.7c-1.3,2.3-0.1,4.3,2.6,4.3c5.2,0,10.3,0,15.5,0c7.9,0,15.8,0,23.7,0
			c3.2,0,4.4-2,2.7-4.7c-0.8-1.4-1.9-2.6-3-3.9c-1.3-1.5-1.5-2.8-0.4-3.9c1.1-1,2.5-0.9,3.8,0.6c1.5,1.8,3.1,3.7,4.2,5.8
			c2.6,5-0.9,10.6-6.6,10.7c-2.5,0.1-5.1,0-7.6,0c-0.5,0-1,0-1.6,0c0,0.9,0,1.6,0,2.4c3.1,0.5,5.5,2.1,6.3,5.3c1,3.7-1,7.6-4.7,8.6
			c-1.5,0.4-1.9,1-1.7,2.3c0.1,0.7,0,1.4,0,2.1c4.3,1,6.9,3.4,6.6,8c-0.2,3.3-2.6,5.5-6.5,6.4c0,1.3,0,2.7,0,4.1
			c3.9,0.8,6.5,3,6.5,7.2c0,4.2-2.6,6.4-6.6,7.3c0,1.4,0,2.7,0,4c4.8,1.6,6.7,3.9,6.6,7.5c-0.1,3.5-2.2,5.8-6.6,7c0,1.3,0,2.7,0,4
			c4.3,1.2,6.4,3.4,6.6,6.9c0.2,3.5-2.1,6.5-5.7,7.3c-1,0.2-1.5,0.6-1.9,1.5c-2,4.6-4.2,9.2-6.4,13.7c-0.7,1.5-1.9,2.3-3.6,2.4
			c-1.7,0-3-0.8-3.8-2.4c-1.6-3.3-3.2-6.7-4.7-10c-0.5-1-1-1.5-2.2-1.4c-3.6,0.1-6.5-2.6-7-6c-0.5-3.6,1.7-7,5.1-7.8
			c1.3-0.3,1.7-0.8,1.5-2C88.1,136.2,88.1,135.4,88.1,134.6z M111.9,123.8c0-1.6-1.3-2.7-2.8-2.5c-7,1.2-14,2.4-21,3.7
			c-1.4,0.3-2.2,1.4-1.9,2.8c0.2,1.2,1.4,2.1,2.7,1.8c7-1.2,14-2.5,21-3.7C111.1,125.7,111.8,124.8,111.9,123.8z M88.8,74.2
			c2.5-0.4,5.2-0.9,7.9-1.4c4.3-0.8,8.6-1.5,12.9-2.3c1.6-0.3,2.5-1.4,2.3-2.7c-0.2-1.4-1.3-2.2-3-2c-0.3,0-0.5,0.1-0.8,0.1
			c-2.7,0.5-5.5,1-8.2,1.4c-3.8,0.7-7.7,1.3-11.5,2c-1.6,0.3-2.3,1.3-2.1,2.6C86.4,73.5,87.2,74.1,88.8,74.2z M111.9,86.8
			c0-1.8-1.3-2.8-3.1-2.5c-6.8,1.2-13.6,2.4-20.4,3.6c-1.7,0.3-2.5,1.4-2.2,2.8c0.3,1.4,1.5,2.1,3.2,1.8c2.2-0.4,4.4-0.8,6.5-1.2
			c4.6-0.8,9.1-1.6,13.7-2.4C111,88.8,111.7,88,111.9,86.8z M88.6,111.2c0.4,0,0.8-0.1,1.3-0.1c4.5-0.8,8.9-1.6,13.3-2.4
			c2.2-0.4,4.5-0.7,6.7-1.2c1.4-0.3,2.1-1.2,2-2.6c-0.1-1.3-1.2-2.1-2.7-2c-0.3,0-0.6,0.1-0.9,0.1c-3.5,0.6-6.9,1.2-10.4,1.8
			c-3.2,0.6-6.3,1.1-9.5,1.7c-1.5,0.3-2.3,1.3-2.1,2.6C86.4,110.5,87.2,111.1,88.6,111.2z M88.6,148.1c0.4,0,0.8-0.1,1.1-0.1
			c4.4-0.8,8.8-1.6,13.2-2.3c2.3-0.4,4.7-0.8,7-1.2c1.4-0.3,2.1-1.2,2-2.6c-0.1-1.3-1.2-2.1-2.7-2c-0.4,0-0.7,0.1-1.1,0.1
			c-3.4,0.6-6.7,1.2-10.1,1.8c-3.2,0.6-6.4,1.1-9.6,1.7c-1.5,0.3-2.3,1.3-2.1,2.7C86.4,147.4,87.3,148.1,88.6,148.1z M105.1,61.7
			c0-1.1,0-2.1,0-3c-4.1,0-8.1,0-12.1,0c0,1.7,0,3.4,0,5.1C97.1,63.1,101.1,62.4,105.1,61.7z M93,82.3c3.1-0.5,6.1-1.1,9-1.6
			c3.3-0.6,3.4-0.5,3.2-4c0-0.1-0.1-0.3-0.2-0.6c-4,0.7-8,1.4-12,2.1C93,79.7,93,81,93,82.3z M105.1,94.6c-3.1,0.5-5.9,1.1-8.8,1.5
			c-3.6,0.6-3.6,0.6-3.4,4.3c0,0.1,0.1,0.2,0.2,0.3c4-0.7,8-1.4,12-2.1C105.1,97.3,105.1,96.1,105.1,94.6z M105,113.2
			c-4,0.7-8,1.4-12,2.1c0,1.4,0,2.6,0,4c3.1-0.5,6-1.1,9-1.6c3.4-0.6,3.4-0.5,3.2-4C105.2,113.7,105.1,113.6,105,113.2z M93,137.8
			c4.1-0.7,8-1.4,12-2.1c0-1.4,0-2.6,0-4c-3.1,0.5-6,1.1-8.9,1.6C92.5,133.8,92.5,133.8,93,137.8z M99,161c1.7-3.7,3.3-7.1,5-10.7
			c-3.2,0.6-6.2,1.1-9.3,1.6C96.2,155,97.5,157.9,99,161z"/>
	</g>
	<path class="st1" d="M182.2,84c-2.2,0-4.4,0-6.7,0c0-1.8,0.1-3.5,0-5.1c0-1,0.2-1.5,1.4-1.8c4.8-1.2,6.9-6.7,4.1-10.8
		c-1.3-1.9-3.2-2.8-5.4-3.2c0-1.5,0-3,0-4.4c0.2-0.1,0.3-0.1,0.4-0.1c2.3,0,4.6,0,7,0c3.8,0,6.2-2.4,6.2-6.2c0-4.3,0-8.5,0-12.8
		c0-3.9-2.3-6.3-6.3-6.3c-12.2,0-24.3,0-36.5,0c-4.1,0-6.4,2.3-6.4,6.4c0,3.6,0.2,7.3,0,10.9c-0.3,5.3,1.9,8.5,8.1,8
		c1.9-0.1,3.7,0,5.6,0c0,2.8,0,5.4,0,8.1c-4.9,1.8-6.7,3.8-6.7,7.3c0,3.6,2,5.7,6.6,7.3c0,0.9,0,1.7,0,2.7c-2.5,0-4.9,0-7.4,0
		c-3.8,0.1-6,2.2-6.2,5.8h0v12.8c-0.3,3.7,2,6.4,5.8,6.7c0.4,0,0.8,0.1,1.2,0.1c0.4,6.5,0.8,7.2,6.6,9.4c0,1.4,0,2.8,0,4.2
		c-4.6,1.5-6.7,3.6-6.6,7.2c0.1,1.4,0.6,2.9,1.3,4.1c1.1,2,3.2,2.8,5.4,3.2c0,0.9-0.1,1.8,0,2.6c0.1,1.2-0.1,1.8-1.5,2.1
		c-2.9,0.6-4.9,3.2-5.2,6.1c-0.3,2.9,1.1,6.2,3.9,6.9c3.2,0.8,2.9,2.7,2.8,4.9c0,0.2,0,0.3,0,0.5c0,3.8,2.4,6.1,6.1,6.1c3,0,6,0,9,0
		c4.3,0,6.6-2.3,6.6-6.6c0-2.5,0-5,0-7.5c4.9-1.7,6.8-4,6.7-7.6c-0.1-3.5-2.3-5.7-6.7-7c0-1.1-0.1-2.3,0-3.4c0-0.4,0.5-1,0.9-1.1
		c3.6-1,5.7-3.7,5.7-7c0-3.4-2.2-5.9-5.8-7c-0.4-0.1-0.8-0.6-0.9-1c-0.1-1.2,0-2.4,0-3.5c3.9-1.1,4.5-1.6,6.4-5
		c0.2-0.4,0.9-0.6,1.4-0.7c3.8-0.3,5.9-2.5,5.9-6.4c0-4,0-8,0-12C189.1,86.2,187,84,182.2,84z M153.5,53.8c-2.6,0-5.2,0.1-7.8-0.1
		c-0.3,0-0.9-0.9-0.9-1.3c-0.1-4.3-0.1-8.6,0-12.9c0-0.5,0.8-1.3,1.2-1.4c2.5-0.1,4.9-0.1,7.5-0.1C153.5,43.4,153.5,48.5,153.5,53.8
		z M175.6,38.1c2.6,0,5.2-0.1,7.9,0.1c0.3,0,0.9,0.9,0.9,1.3c0.1,4.3,0,8.6,0,13c0,0.9-0.4,1.4-1.3,1.4c-2.5,0-4.9,0-7.5,0
		C175.6,48.5,175.6,43.4,175.6,38.1z M158.5,38.1c4.1,0,8.1,0,12.3,0c0,5.3,0,10.4,0,15.7c-4.1,0-8.1,0-12.3,0
		C158.5,48.6,158.5,43.4,158.5,38.1z M170.6,58.6c0,1.7,0,3.4,0,5.2c-4,0.7-8,1.4-12.1,2.1c0-2.5,0-4.9,0-7.4
		C162.6,58.6,166.6,58.6,170.6,58.6z M151.7,74.2c-0.1-1.3,0.7-2.3,2.2-2.6c3.6-0.7,7.2-1.3,10.9-1.9c2.8-0.5,5.7-1,8.5-1.5
		c0.4-0.1,0.7-0.1,1.1-0.1c1.6-0.2,2.7,0.6,2.9,1.9c0.2,1.3-0.7,2.4-2.2,2.7c-2.3,0.5-4.7,0.8-7,1.2c-4.3,0.8-8.7,1.5-13,2.3
		c-0.3,0.1-0.6,0.1-0.8,0.1C152.8,76.3,151.8,75.5,151.7,74.2z M170.6,78.3c0,2,0,3.8,0,5.6c-4.1,0-8,0-12.1,0c0-1.2,0-2.3,0-3.5
		C162.5,79.7,166.5,79,170.6,78.3z M147,104.6c-2,0-2.1,0-2.3-1.8V90c0.2-0.9,0.8-1.2,1.9-1.2c4.7,0,9.5,0,14.2,0
		c0.4,0,0.8,0.1,1.2,0.1c0,5.2,0,10.4,0,15.7c-0.6,0-1.1,0-1.7,0C156,104.6,151.5,104.6,147,104.6z M170.6,160.9c0,0.4-0.8,1-1.2,1
		c-3.2,0.1-6.4,0-9.6,0.1c-0.9,0-1.4-0.4-1.4-1.3c0-1.7,0-3.3,0-5.2c4.1-0.7,8.1-1.4,12.3-2.2C170.7,155.9,170.8,158.4,170.6,160.9z
		 M177,144c1,1.5,0,3.3-2,3.7c-4.9,0.9-9.7,1.7-14.6,2.6c-2.1,0.4-4.1,0.7-5.9,1c-1.7,0-2.7-0.8-2.8-2.1c-0.1-1.3,0.6-2.3,2.2-2.6
		c3.8-0.7,7.6-1.4,11.3-2c2.9-0.5,5.8-1,8.7-1.5C175.1,142.8,176.3,142.9,177,144z M158.5,141c0-1.5,0-2.8,0-4.3
		c4-0.7,8-1.4,12.1-2.1c0,1.5,0,2.8,0,4.3C166.6,139.5,162.7,140.2,158.5,141z M177.4,126.2c0.2,1.3-0.6,2.4-2.1,2.7
		c-6.9,1.3-13.9,2.5-20.8,3.7c-0.1,0-0.2,0-0.3,0c-1.4,0-2.4-0.8-2.5-2.1c-0.1-1.3,0.7-2.3,2.2-2.6c4.2-0.8,8.5-1.5,12.7-2.2
		c2.6-0.5,5.2-0.9,7.8-1.3C176,124,177.2,124.8,177.4,126.2z M158.5,122.2c0-1.6,0-2.9,0-4.3c4-0.7,8.1-1.4,12-2.1
		c0.1,0.2,0.1,0.2,0.1,0.3c0.4,3.8,0.4,3.9-3.3,4.6C164.4,121.2,161.5,121.7,158.5,122.2z M171,110.9c-5.4,1-10.9,1.9-16.3,2.9
		c-1.9,0.3-3.4-1.1-2.9-2.8c0.2-0.7,1.2-1.6,1.8-1.6c7.5-0.1,14.9,0,22.4,0c0.1,0,0.2,0.1,0.7,0.5
		C174.6,110.2,172.8,110.6,171,110.9z M184.4,102.9c0,0.9-0.1,1.7-1.2,1.7c-5.4,0-10.7,0-16.2,0c0-5.4,0-10.5,0-15.8
		c0.8,0,1.5,0,2.2,0c4.4,0,8.8,0,13.3,0c1.4,0,1.9,0.5,1.9,2C184.4,94.7,184.4,98.8,184.4,102.9z"/>
</g>
</svg>
