<svg xmlns="http://www.w3.org/2000/svg" viewBox="0 0 200 200"><defs><style>.cls-1{fill:none;}.cls-2{fill:#222;}</style></defs><g id="Layer_2" data-name="Layer 2"><g id="Layer_1-2" data-name="Layer 1"><rect class="cls-1" width="200" height="200"/><path class="cls-2" d="M53.38,10.09h3.51c5.49,1.78,7.67,5.69,7.27,11.27-.08,1.2,0,2.4,0,3.62H136c0-1.94,0-3.74,0-5.54a8.52,8.52,0,0,1,3-7,28.39,28.39,0,0,1,4.22-2.36h3.51c5.5,1.78,7.42,5.7,7.32,11.29-.2,10.65-.06,21.3-.06,32v2.05c6.59-.77,8.87.54,12,6.68,4.35-1.83,8.34-1.26,11.82,2,2.48,2.32,3.17,5.3,3.17,8.61q-.06,47,0,93.91v2.07c1.44.43,2.65.67,3.77,1.14,2.86,1.19,4.28,3.63,5.24,6.42v6.32a5.18,5.18,0,0,0-.3.63c-1.53,4.54-4.54,6.73-9.31,6.75H19.76c-4.94,0-8.58-2.89-9.45-7.45-1.16-6.07,1-11.09,5.56-12.88a10.32,10.32,0,0,1,1.34-.4c.62-.14,1.25-.24,2-.38V73.39c0-.88,0-1.76.05-2.64a9.49,9.49,0,0,1,2.84-6.43c3.49-3.49,7.57-4.12,12.13-2.25,2-5.53,5.91-7.87,11.9-6.67V53.16q0-16.68,0-33.36c0-4.12,1.68-7.21,5.51-9C52.2,10.55,52.8,10.33,53.38,10.09ZM40.21,168.77H159.92v-78h-5.86v2q0,16.59,0,33.19a10.16,10.16,0,0,1-1.65,6.16,9,9,0,0,1-16.35-5.05c-.09-2,0-3.93,0-5.93h-33c0,2.63,0,5.14,0,7.65,0,5,2.17,7.13,7.16,7.17,4.21,0,8.45-.16,12.63.25,6.47.64,11.11,7.15,10,13.53S127,160,120.37,160Q96,160,71.56,160c-3,0-4.45-1-4.44-3.06s1.44-2.94,4.5-2.94h47.94a13.7,13.7,0,0,0,2.79-.21,5.57,5.57,0,0,0,4.42-4.05c1.24-3.95-1.54-7.62-5.92-7.73-4.21-.11-8.43.07-12.64-.12a11.45,11.45,0,0,1-10.62-8.73,22.51,22.51,0,0,1-.48-4.86c-.08-2.37,0-4.75,0-7.11H64a62.57,62.57,0,0,1,0,7.13,8.85,8.85,0,0,1-11.61,7.22c-3.9-1.28-6.2-4.63-6.21-9.2q0-16.77,0-33.54v-2H40.21Zm59.88,15.15h79c.53,0,1.06,0,1.58,0a3.11,3.11,0,0,0,3.3-2.75c.48-3.41-.11-5.41-1.94-6a9.42,9.42,0,0,0-2.77-.28H20.89A6.12,6.12,0,0,0,19,175c-.79.28-2,.72-2.13,1.25a16.79,16.79,0,0,0-.25,5.94c.38,1.83,2.32,1.77,4,1.77Zm-66-15.09V72.61c0-.53,0-1.06-.05-1.58a4.43,4.43,0,0,0-8.63-.93,9.41,9.41,0,0,0-.24,2.6q0,47.15,0,94.29c0,.61.05,1.23.08,1.84Zm140.86,0v-2.1q0-46.87,0-93.76c0-.64,0-1.29,0-1.93a4.29,4.29,0,0,0-2.83-3.69c-2.59-1.09-6.11.8-6.1,5,.1,31.61.05,63.21.06,94.82,0,.55,0,1.11.07,1.65ZM52.13,73.16q0,26.06,0,52.12a12.25,12.25,0,0,0,.12,2.27,2.94,2.94,0,0,0,5.74.07,8.65,8.65,0,0,0,.14-1.91V20.41c0-.35,0-.71,0-1.06-.12-2-1.26-3.24-3-3.26s-2.9,1.23-3,3.19c0,.58,0,1.17,0,1.75ZM142,73v52.3a15.5,15.5,0,0,0,.06,1.93,3,3,0,0,0,5.9-.05,13.73,13.73,0,0,0,.05-1.57q0-52.57,0-105.13a9.12,9.12,0,0,0-.16-2.09,2.92,2.92,0,0,0-5.68.05,10.7,10.7,0,0,0-.15,2.27Q142,46.81,142,73ZM94.76,115C96,115,97,115,98,115c3.17-.07,2.5.49,3.12-2.62q7-34.64,13.87-69.28c.79-3.93,1.57-7.87,2.4-12-1.61,0-3,.07-4.39,0-1.18-.08-1.56.36-1.79,1.51Q104.67,65.69,98,98.78C96.93,104.1,95.87,109.42,94.76,115Zm10.64-83.8H99.52C93.94,59.11,88.38,86.94,82.76,115c1.61,0,3-.06,4.38,0,1.17.08,1.58-.34,1.81-1.51q5.86-29.67,11.85-59.31C102.32,46.59,103.84,39,105.4,31.21ZM70.78,115c1.58,0,2.91-.07,4.24,0s1.7-.27,2-1.55q5.67-28.73,11.47-57.41c1.65-8.25,3.28-16.49,5-24.86H87.54C82,59.11,76.39,86.94,70.78,115Zm41.85-.07c5.59-28,11.15-55.8,16.76-83.84-1.52,0-2.8.08-4.07,0s-1.88.29-2.16,1.72q-7.25,36.54-14.61,73.06c-.6,3-1.17,6-1.77,9.08Zm-48.48-.23.56.05Q73.05,73,81.42,31.21H75.6c-.15.62-.29,1.13-.4,1.64-2.8,14-5.67,28-8.36,42-1.16,6.07-3,12-2.73,18.34.21,5.61,0,11.23,0,16.85Zm60.4.23c.17-.67.32-1.18.42-1.69,2.81-14,5.69-28,8.39-42.11,1.16-6.06,2.93-12,2.72-18.32-.22-6.55-.05-13.1-.05-19.65V31.33l-.55-.06Q127.13,73,118.74,114.94ZM40.12,73c0,2.8,0,5.6,0,8.41,0,2.27,1.11,3.56,2.94,3.6s3-1.25,3-3.64q0-8.32,0-16.64c0-2.28-1.09-3.59-2.9-3.64s-3.06,1.37-3.08,3.68C40.1,67.46,40.12,70.2,40.12,73Zm113.94.13c0,2.81,0,5.61,0,8.41,0,2.2,1.06,3.41,2.86,3.47s3.1-1.22,3.11-3.43q.06-8.49,0-17c0-2.17-1.28-3.54-3.07-3.5s-2.87,1.33-2.9,3.46C154,67.36,154.06,70.22,154.06,73.08ZM135.94,90.36l-.29,0c-1.63,8.16-3.26,16.33-4.9,24.57h5.19ZM64.26,31.19V55.62l.28,0c1.63-8.12,3.25-16.24,4.89-24.46Z"/></g></g></svg>