<svg xmlns="http://www.w3.org/2000/svg" viewBox="0 0 200 200"><defs><style>.cls-1{fill:none;}.cls-2{fill:#222;}</style></defs><g id="Layer_2" data-name="Layer 2"><g id="Layer_1-2" data-name="Layer 1"><rect class="cls-1" width="200" height="200"/><path class="cls-2" d="M173.19,193H26.81a16.07,16.07,0,0,1-16-16.05V23.05a16.07,16.07,0,0,1,16-16H173.19a16.07,16.07,0,0,1,16.05,16.05V177A16.07,16.07,0,0,1,173.19,193ZM26.81,13a10.06,10.06,0,0,0-10,10.05V177a10.06,10.06,0,0,0,10,10.05H173.19A10.06,10.06,0,0,0,183.24,177V23.05a10.06,10.06,0,0,0-10.05-10Z"/><path class="cls-2" d="M119.65,155.18H80.35A8.36,8.36,0,0,1,72,146.83V53.17a8.36,8.36,0,0,1,8.35-8.35h39.3A8.36,8.36,0,0,1,128,53.17v93.66A8.36,8.36,0,0,1,119.65,155.18ZM80.35,50.82A2.35,2.35,0,0,0,78,53.17v93.66a2.35,2.35,0,0,0,2.35,2.35h39.3a2.35,2.35,0,0,0,2.35-2.35V53.17a2.35,2.35,0,0,0-2.35-2.35Z"/><path class="cls-2" d="M112.63,132.27H87.37a3,3,0,0,1,0-6h25.26a3,3,0,0,1,0,6Z"/></g></g></svg>