<svg xmlns="http://www.w3.org/2000/svg" viewBox="0 0 200 200"><defs><style>.cls-1{fill:none;}.cls-2{fill:#222;}</style></defs><g id="Layer_2" data-name="Layer 2"><g id="Layer_1-2" data-name="Layer 1"><rect class="cls-1" width="200" height="200"/><path class="cls-2" d="M183.37,111.83H187a3,3,0,0,0,3-3V95.06a3,3,0,0,0-3-3H173.85V83.36h6.34a4,4,0,0,0,3.25-1.61,3.9,3.9,0,0,0,.51-3.57l-3.9-11.64h.14a4,4,0,0,0,3.25-1.61,3.89,3.89,0,0,0,.51-3.57l-3.9-11.64h.14a4,4,0,0,0,3.25-1.61,3.89,3.89,0,0,0,.51-3.57l-4.08-12.17a5,5,0,0,0-4.6-3.3h-5.22L168.5,13.54A4,4,0,0,0,164.57,10h-5.09a4,4,0,0,0-3.93,3.54L154,29.07h-5.22a5,5,0,0,0-4.6,3.3L140.1,44.54a3.89,3.89,0,0,0,.51,3.57,4,4,0,0,0,3.26,1.61H144l-3.9,11.64a3.89,3.89,0,0,0,.51,3.57,4,4,0,0,0,3.26,1.61H144l-3.9,11.64a3.9,3.9,0,0,0,.51,3.57,4,4,0,0,0,3.26,1.61h6.33v8.72H111.82V83.36h6.34a4,4,0,0,0,3.25-1.61,3.89,3.89,0,0,0,.51-3.57L118,66.54h.13a4,4,0,0,0,3.25-1.61,3.89,3.89,0,0,0,.51-3.57L118,49.72h.13a4,4,0,0,0,3.25-1.61,3.89,3.89,0,0,0,.51-3.57l-4.07-12.17a5,5,0,0,0-4.61-3.3H108l-1.56-15.53A4,4,0,0,0,102.54,10H97.46a4,4,0,0,0-3.93,3.54L92,29.07H86.76a5,5,0,0,0-4.61,3.3L78.08,44.54a3.86,3.86,0,0,0,.51,3.57,4,4,0,0,0,3.25,1.61H82L78.08,61.36a3.86,3.86,0,0,0,.51,3.57,4,4,0,0,0,3.25,1.61H82L78.08,78.18a3.86,3.86,0,0,0,.51,3.57,4,4,0,0,0,3.25,1.61h6.34v8.72H49.8V83.36h6.33a4,4,0,0,0,3.26-1.61,3.9,3.9,0,0,0,.51-3.57L56,66.54h.13a4,4,0,0,0,3.26-1.61,3.89,3.89,0,0,0,.51-3.57L56,49.72h.13a4,4,0,0,0,3.26-1.61,3.89,3.89,0,0,0,.51-3.57L55.82,32.37a5,5,0,0,0-4.6-3.3H46L44.45,13.53A4,4,0,0,0,40.52,10H35.43a4,4,0,0,0-3.93,3.54L30,29.07H24.73a5,5,0,0,0-4.6,3.3L16.05,44.54a3.89,3.89,0,0,0,.51,3.57,4,4,0,0,0,3.25,1.61H20l-3.9,11.64a3.89,3.89,0,0,0,.51,3.57,4,4,0,0,0,3.25,1.61H20l-3.9,11.64a3.89,3.89,0,0,0,.51,3.57,4,4,0,0,0,3.25,1.61h6.34v8.72H13a3,3,0,0,0-3,3v13.79a3,3,0,0,0,3,3h3.63v57.89a2.48,2.48,0,0,0,.06.54H13a3,3,0,0,0-3,3V187a3,3,0,0,0,3,3H187a3,3,0,0,0,3-3V173.24a3,3,0,0,0-3-3h-3.69a2.48,2.48,0,0,0,.06-.54ZM161.34,16h1.37L164,29.07h-4ZM149.61,35h24.83l2.93,8.73H146.69Zm24.13,14.69s0,.06,0,.09l3.61,10.77H146.69l3.6-10.77s0-.06,0-.09Zm-23.45,16.9s0-.05,0-.08h23.43s0,.06,0,.08l3.61,10.78H146.69Zm5.91,16.74h11.65v8.72H156.2ZM99.31,16h1.38L102,29.07H98ZM87.58,35h24.84l2.92,8.73H84.66Zm24.13,14.69s0,.06,0,.09l3.61,10.77H84.66l3.61-10.77s0-.06,0-.09ZM88.27,66.62s0-.05,0-.08h23.42s0,.06,0,.08l3.61,10.78H84.66Zm5.91,16.74h11.64v8.72H94.18ZM37.29,16h1.37L40,29.07H36ZM25.56,35H50.39l2.92,8.73H22.64ZM49.69,49.72s0,.06,0,.09l3.6,10.77H22.64l3.6-10.77s0-.06,0-.09ZM26.24,66.62s0-.05,0-.08H49.69s0,.06,0,.08l3.6,10.78H22.64Zm5.91,16.74H43.8v8.72H32.15ZM16,98H184v7.83H16Zm168,86H16v-7.82H184ZM22.58,170.26a3.29,3.29,0,0,0,.05-.54V111.83H177.37v57.89a3.29,3.29,0,0,0,0,.54Z"/><path class="cls-2" d="M112.61,135h-5l4.86-11.73a3,3,0,0,0-2.8-4.11l-20.06.12a3,3,0,0,0-3,2.67l-2.21,20.7A3,3,0,0,0,87.05,146l2.62.29-1.78,13.09a3,3,0,0,0,3,3.38,3,3,0,0,0,2.13-.88l21.75-21.73a3,3,0,0,0,.64-3.24A3,3,0,0,0,112.61,135ZM95,151.35,96,144a3,3,0,0,0-.6-2.22,3,3,0,0,0-2-1.13l-2.71-.31,1.61-15.11,12.87-.09-4.85,11.71a3,3,0,0,0,2.78,4.11h2.31Z"/></g></g></svg>