<?xml version="1.0" encoding="utf-8"?>
<!-- Generator: Adobe Illustrator 26.3.1, SVG Export Plug-In . SVG Version: 6.00 Build 0)  -->
<svg version="1.1" id="Layer_1" xmlns="http://www.w3.org/2000/svg" xmlns:xlink="http://www.w3.org/1999/xlink" x="0px" y="0px"
	 viewBox="0 0 200 200" style="enable-background:new 0 0 200 200;" xml:space="preserve">
<style type="text/css">
	.st0{fill:none;}
	.st1{fill:#222222;}
</style>
<rect y="0" class="st0" width="200" height="200"/>
<path class="st1" d="M170.5,34.5c-3.6-4.7-10.3-5.7-15.2-2.2c-4.5,3.2-8.9,6.5-13.2,9.9c-2.6,2-3,5.1-1.1,7.8c2.2,3,4.4,5.9,6.6,8.9
	c1.4,1.8,3.2,2.6,5.4,2.1c1-0.2,2-0.8,2.9-1.5c2.1-1.4,4.1-3,6.4-4.7c0,1,0,1.6,0,2.2c0,33.3,0,66.7,0,100c0,0.5,0,1.1-0.1,1.6
	c-0.2,1.7-1.2,2.5-3.2,2.5c1.1-3.5-0.1-6.3-2.2-9.1c-32-42.7-64-85.5-96-128.3c-2.6-3.5-5.2-7.1-7.9-10.5c-2.5-3.1-6.7-3.9-10.1-2.1
	c-3.4,1.8-5.1,5.6-4.3,9.3c0.5,2,0.8,4.1,1.1,6.1c0.2,1.4,0.2,2.8,0.3,4.2c1.6,15.6,6,30.5,12.5,44.8c2,4.3,4.1,8.5,6.3,12.8
	c-2.6,2-5.3,3.9-7.9,5.9c-3.8,2.9-4.6,7.7-1.8,11.5c6.4,8.7,12.9,17.3,19.3,25.9c0.5,0.7,1,1.7,1,2.6c0.1,12.5,0,25,0,37.4
	c0,0.6-0.1,1.1-0.1,1.8c-0.8,0-1.4,0-2,0c-8.8,0-17.7-0.1-26.5,0c-7.2,0.1-13.2,5.9-13.6,12.9c-0.1,1.6,0.3,2.9,1.8,3.6
	c32.5,0,64.9,0,97.4,0c1.5-0.8,1.9-2.2,1.8-3.8c-0.5-6.8-6.4-12.6-13.4-12.7c-8.9-0.1-17.8,0-26.7,0c-0.6,0-1.3,0-2.1,0
	c0-0.9,0-1.5,0-2.2c0-13.5,0-27.1,0-40.6c0-1.7,0.4-2.9,2.6-3.6c1.1,1.2,2.2,2.7,3.6,4c13.9,13.2,29.4,23.9,47.4,30.8
	c2.7,1,5.5,1.7,7.9,3.6c0.9,0.7,2.3,0.9,3.5,1c3,0.1,6,0.1,9,0c3.6-0.1,6.8-2.8,7.5-6.3c0.2-1.1,0.2-2.3,0.2-3.5
	c0-34.7,0-69.4,0-104c0-1.1,0.1-1.9,1.1-2.7C173.5,46,174.2,39.3,170.5,34.5z M58.3,109.3c-1.5-2.1-3.1-4.1-4.6-6.2
	c-1.5-2-1.3-3.6,0.8-5.1c2.3-1.7,4.6-3.4,7.1-5.3c6.6,11,14.2,21,22.8,30.4c-2.7,2-5.2,4-7.9,5.8c-1.5,1-3,0.5-4.3-1.3
	C67.5,121.6,62.9,115.4,58.3,109.3z M80.5,133c0,13.3,0,26.8,0,40.4c-2,0-3.8,0-5.8,0c0-12.9,0-25.6,0-38.3
	C76.7,134.4,78.6,133.7,80.5,133z M113.8,178.7c4.2,0,7.2,2,8.6,5.9c-29.9,0-59.6,0-89.3,0c0.4-2.9,3.7-5.6,7.1-5.9
	c0.5,0,0.9,0,1.4,0C65.6,178.7,89.7,178.7,113.8,178.7z M45.5,30.6c1.1,1.5,2,2.6,2.9,3.8c0.6,0.8,13.6,18.3,14.2,19
	c0,0,0.1,0.1,0.1,0.1c24.9,33.3,49.8,66.6,74.8,100c0.5,0.7,1,1.4,1.8,2.5C89,135.5,49.7,78.2,45.5,30.6z M153,160.6
	c-1.5,1.1-3.2,0.7-4.5-1.1c-3.2-4.2-6.3-8.4-9.5-12.7c-25.5-34.1-51-68.2-76.5-102.3c-0.2-0.3-0.4-0.6-0.6-0.8
	C57,37.1,50,27.8,48.8,26.2c-1.4-1.8-2.7-3.7-4.1-5.5c-1.4-1.9-1.3-3.7,0.2-4.8c1.5-1.1,3.2-0.7,4.6,1.3
	c7.7,10.3,15.4,20.6,23.1,30.9c26.6,35.5,53.2,71.1,79.7,106.6c0.3,0.4,0.6,0.7,0.8,1.1C154.6,157.7,154.5,159.5,153,160.6z
	 M164.9,46.2c-4.2,3.2-8.5,6.4-12.9,9.7c-2.4-3.2-4.6-6.2-6.9-9.2c0.4-0.3,0.6-0.6,0.9-0.9c4-3,7.9-6,12-8.9
	c2.9-2.2,6.4-1.8,8.4,0.8C168.4,40.4,167.8,43.9,164.9,46.2z"/>
</svg>
