<?xml version="1.0" encoding="utf-8"?>
<!-- Generator: Adobe Illustrator 26.2.1, SVG Export Plug-In . SVG Version: 6.00 Build 0)  -->
<svg version="1.1" id="Layer_1" xmlns="http://www.w3.org/2000/svg" xmlns:xlink="http://www.w3.org/1999/xlink" x="0px" y="0px"
	 viewBox="0 0 200 200" style="enable-background:new 0 0 200 200;" xml:space="preserve">
<style type="text/css">
	.st0{fill:none;}
</style>
<rect class="st0" width="200" height="200"/>
<g>
	<path d="M10,120.1c1.1-1.7,2.6-2.2,4.6-2.2c3.7,0.1,7.5,0,11.2,0c2.7,0,3.8,1.2,3.9,3.9c0,2,0,4.1,0,6.2c5.2,1.3,9,4.2,11.5,8.9
		c0.2,0.3,0.8,0.7,1.2,0.7c14.1,0,28.2,0,42.4,0c0.2,0,0.3-0.1,0.7-0.2c0-1,0-2,0-3.1c0-4,0-8.1,0-12.1c0-0.7-0.4-1.6-0.9-2
		c-4.2-3.8-5.6-9.1-3.7-14.4c0.7-2,1.4-3.9,2.2-6.1c-2.8-1-5.5-2.1-8.2-3.1c-7.2-2.6-14.4-5.3-21.6-7.9c-2.9-1.1-3.5-2.5-2.5-5.5
		c1-2.7,2-5.4,3-8.2c-0.8-0.3-1.6-0.6-2.3-0.9c-4.2-1.5-8.3-3.1-12.5-4.6c-2.4-0.9-3.2-2.4-2.3-4.8c4.7-13,9.5-25.9,14.3-38.9
		c1-2.6,2.5-3.2,5.3-2.2c18.8,7,37.6,13.9,56.4,20.9c24.6,9.1,49.2,18.2,73.9,27.4c0.3,0.1,0.7,0.3,1,0.4c1.5,0.5,2.4,1.5,2.5,3.1
		c0.1,1.5-0.8,2.5-2.1,3.2c-5.6,2.9-11.1,5.7-16.7,8.6c-0.9,0.5-1.7,0.9-2.7,1.4c2.7,7.2,2.2,14-2.6,20.1c-4.8,6.1-11.3,8.3-19,7.3
		c-0.3,0.8-0.6,1.5-0.9,2.3c-1.1,3-2.6,3.7-5.5,2.6c-8.1-3-16.3-6-24.4-9c-0.7-0.3-1.4-0.5-2.3-0.8c-0.7,1.9-1.4,3.7-2.1,5.6
		c-1.1,3-2.9,5.4-5.6,7.2c-0.6,0.4-0.9,1.4-0.9,2.2c-0.1,11.1,0,22.2-0.1,33.2c0,1.5-0.1,3.1-0.6,4.5c-1.4,4.4-6,7.3-10.4,6.6
		c-4.9-0.7-8.4-4.4-8.6-9.2c-0.1-1.2,0-2.3,0-3.7c-0.8,0-1.4-0.1-2-0.1c-13.5,0-27,0-40.4,0c-1.2,0-1.9,0.4-2.4,1.4
		c-2,3.8-5.2,6.4-9.3,7.6c-1.4,0.4-1.8,1.1-1.7,2.5c0.1,1.5,0,3,0,4.6c0,2.3-1.2,3.6-3.4,3.6c-4.3,0.1-8.6,0-12.8,0
		c-1.7,0-2.7-1-3.5-2.3C10,156.4,10,138.3,10,120.1z M43.8,64.3c0.4,0.2,0.6,0.3,0.8,0.3c21.3,7.8,42.6,15.7,63.9,23.4
		c0.5,0.2,1.5-0.1,1.9-0.5c2.5-2.2,5-4.5,7.3-6.8c1.7-1.7,3.3-2,5.5-1.2c8.9,3.4,17.9,6.6,26.8,9.8c0.8,0.3,2,0.2,2.7-0.2
		c5.5-2.7,10.9-5.6,16.4-8.4c3.1-1.6,6.1-3.1,9.4-4.9C137.6,60.7,97,45.7,56.2,30.5C52,41.9,47.9,53,43.8,64.3z M147.3,95.6
		c-0.3-0.2-0.4-0.4-0.5-0.4c-8.1-3-16.1-5.9-24.2-8.8c-0.5-0.2-1.3,0.1-1.8,0.5c-2.6,2.3-5.2,4.7-7.7,7.2c-1.5,1.5-3,1.7-4.9,1
		c-13.3-5-26.7-9.8-40-14.7c-2.7-1-5.4-2-8.2-3c-0.8,2.1-1.5,4-2.2,6.1c27.7,10.2,55.3,20.3,82.9,30.5
		C142.9,107.7,145.1,101.6,147.3,95.6z M98.5,144.2c-18.6,0-37,0-55.5,0c0,2.2,0,4.2,0,6.3c18.6,0,37,0,55.5,0
		C98.5,148.4,98.5,146.4,98.5,144.2z M16.7,124.6c0,15.2,0,30.4,0,45.6c2.2,0,4.2,0,6.4,0c0-15.2,0-30.4,0-45.6
		C20.9,124.6,18.9,124.6,16.7,124.6z M89.2,102c-0.8,2.2-1.6,4.2-2.3,6.3c-1.1,3.4,0.4,6.7,3.7,8.1c2.2,0.9,4.5,1.7,6.7,2.5
		c2.8,0.9,6-0.2,7.3-2.7c1.2-2.3,2-4.8,3-7.4C101.4,106.4,95.4,104.2,89.2,102z M162.5,91.6c-2.6,1.3-5.1,2.6-7.6,3.9
		c-0.3,0.2-0.6,0.4-0.7,0.7c-1.7,4.4-3.3,8.8-5,13.4c5.3,0.3,9.3-1.6,12.1-5.7C163.9,100,164.2,95.9,162.5,91.6z M29.8,159.9
		c3.4-1.4,5.7-3.6,6.1-7c0.4-3.6,0.4-7.4,0-11c-0.4-3.4-2.7-5.7-6.1-7C29.8,143.4,29.8,151.5,29.8,159.9z M98.5,137.6
		c0-4,0-7.9,0-11.7c-2.2-0.6-4.3-1.2-6.4-1.8c0,4.5,0,8.9,0,13.5C94.2,137.6,96.3,137.6,98.5,137.6z M92,157.3
		c0.1,2.2-0.7,4.6,1.6,5.8c0.9,0.5,2.6,0.5,3.5-0.1c2.2-1.3,1.4-3.7,1.4-5.8C96.3,157.3,94.3,157.3,92,157.3z"/>
	<path d="M89,74c-2.1-0.8-4-1.5-6.1-2.3c0.8-2.1,1.5-4,2.2-6.1c2,0.7,3.9,1.4,6.1,2.2C90.5,69.8,89.8,71.8,89,74z"/>
	<path d="M95.2,76.2c0.8-2.1,1.5-4,2.2-6.1c2,0.7,4,1.5,6.1,2.2c-0.7,2-1.4,4-2.2,6.1C99.3,77.7,97.3,77,95.2,76.2z"/>
	<path d="M70.6,67.2c0.8-2.1,1.5-4,2.2-6.1c2,0.7,4,1.4,6.1,2.2c-0.8,2.1-1.5,4.1-2.2,6.2C74.7,68.7,72.8,68,70.6,67.2z"/>
</g>
</svg>
