<svg xmlns="http://www.w3.org/2000/svg" viewBox="0 0 200 200"><defs><style>.cls-1{fill:none;}.cls-2{fill:#222;}</style></defs><g id="Layer_2" data-name="Layer 2"><g id="Layer_1-2" data-name="Layer 1"><rect class="cls-1" width="200" height="200"/><path class="cls-2" d="M156,9.5H49.66a14.42,14.42,0,0,0-14.4,14.4V46.76a8.19,8.19,0,0,0-5.68,7.79V64.84a8.19,8.19,0,0,0,5.68,7.79v27.72a8.21,8.21,0,0,0-5.68,7.79v10.29a8.21,8.21,0,0,0,5.68,7.8v22.85a14.42,14.42,0,0,0,14.4,14.4h9.92v6.7a3,3,0,0,0,3,3h.67v14.3a3,3,0,0,0,3,3h12.3a3,3,0,0,0,3-3v-14.3h.67a3,3,0,0,0,3-3v-6.7h7.6v6.7a3,3,0,0,0,3,3h.67v14.3a3,3,0,0,0,3,3h12.31a3,3,0,0,0,3-3v-14.3h.67a3,3,0,0,0,3-3v-6.7h7.6v6.7a3,3,0,0,0,3,3h.68v14.3a3,3,0,0,0,3,3h12.31a3,3,0,0,0,3-3v-14.3h.67a3,3,0,0,0,3-3v-6.7H156a14.42,14.42,0,0,0,14.4-14.4V23.9A14.42,14.42,0,0,0,156,9.5Zm-13.9,163.69v11.3h-6.29v-11.3Zm3.68-9.71v3.69H132.15v-3.69Zm-37,9.71v11.3h-6.29v-11.3Zm3.68-9.71v3.69H98.87v-3.69Zm-36.95,9.71v11.3h-6.3v-11.3Zm3.67-9.71v3.69H65.59v-3.69ZM50.68,73V100H41.27V73Zm-15.09-8.2V54.55a2.19,2.19,0,0,1,2.18-2.18H50.68V67H37.77A2.19,2.19,0,0,1,35.59,64.84Zm0,43.3A2.19,2.19,0,0,1,37.77,106H50.68v14.66H37.77a2.19,2.19,0,0,1-2.18-2.19ZM149,30.82V143H56.69V30.82ZM41.27,126.63h9.41v19.15A3.24,3.24,0,0,0,53.92,149h97.85a3.24,3.24,0,0,0,3.23-3.24V28a3.24,3.24,0,0,0-3.23-3.24H53.92A3.24,3.24,0,0,0,50.68,28V46.35H41.27V23.9a8.41,8.41,0,0,1,8.39-8.39H156a8.4,8.4,0,0,1,8.39,8.39V149.08a8.39,8.39,0,0,1-8.39,8.39H49.66a8.4,8.4,0,0,1-8.39-8.39Z"/><path class="cls-2" d="M70.7,130.17H135a3,3,0,1,0,0-6H70.7a3,3,0,1,0,0,6Z"/><path class="cls-2" d="M70.7,113.05H135a3,3,0,1,0,0-6H70.7a3,3,0,1,0,0,6Z"/><path class="cls-2" d="M96,78.48a2.52,2.52,0,0,0,2.61,1.1l3.11-.62-3.37,4.6a2.53,2.53,0,1,0,4.08,3l7.23-9.84a2.52,2.52,0,0,0,.1-2.86h0a2.53,2.53,0,0,0-2.63-1.12l-3.37.66,3.36-4.86a2.53,2.53,0,1,0-4.17-2.88L96,75.65A2.52,2.52,0,0,0,96,78.48Z"/><path class="cls-2" d="M71.22,98.32h63.24A3,3,0,0,0,137,93.68L105.37,44.82a3,3,0,0,0-5.05,0L68.7,93.68a3,3,0,0,0,2.52,4.64Zm5.53-6L102.84,52,128.93,92.3Z"/></g></g></svg>