<?xml version="1.0" encoding="utf-8"?>
<!-- Generator: Adobe Illustrator 26.3.1, SVG Export Plug-In . SVG Version: 6.00 Build 0)  -->
<svg version="1.1" id="Layer_1" xmlns="http://www.w3.org/2000/svg" xmlns:xlink="http://www.w3.org/1999/xlink" x="0px" y="0px"
	 viewBox="0 0 200 200" style="enable-background:new 0 0 200 200;" xml:space="preserve">
<style type="text/css">
	.st0{fill:none;}
	.st1{fill:#222222;}
</style>
<rect class="st0" width="200" height="200"/>
<g>
	<path class="st1" d="M153.4,116.7c8.7,0,17.1,0,25.5,0c7.2,0,11.2,4,11.2,11.2c0,17,0,34,0,51c0,7.1-4.1,11.1-11.2,11.1
		c-52.7,0-105.3,0-158,0c-7.2,0-11.2-4-11.2-11.3c0-34.7,0-69.4,0-104.2c0-7.3,4-11.3,11.4-11.3c8.3,0,16.7,0,25.3,0
		c0-0.8,0-1.5,0-2.3c0-13.3,0-26.7,0-40c0-7.1,4-11.1,11.2-11.1c28.2,0,56.3,0,84.5,0c7.2,0,11.2,4,11.2,11.3c0,30.9,0,61.8,0,92.7
		C153.4,114.8,153.4,115.6,153.4,116.7z M96.5,176.7c-1,0-1.9,0-2.7,0c-21.8,0-43.7,0-65.5,0c-0.7,0-1.4,0-2.1,0
		c-1.8-0.2-3.1-1.7-3-3.4c0.1-1.8,1.2-2.9,3-3.2c0.7-0.1,1.4,0,2.1,0c21.9,0,43.8,0,65.7,0c0.8,0,1.6,0,2.6,0c0-1,0-1.7,0-2.5
		c0-13.5,0-27.1,0-40.6c0-6,4.3-10.2,10.3-10.3c1,0,1.9,0,2.9,0c0-6.8,0-13.3,0-19.8c-31.2,0-62.2,0-93.3,0c0,0.5-0.1,0.8-0.1,1.2
		c0,27.1,0,54.2,0,81.2c0,2.9,1.2,4.1,4.2,4.1c24.9,0,49.8,0,74.7,0c0.5,0,1-0.1,1.5-0.1C96.8,181,96.7,178.9,96.5,176.7z
		 M116.7,76.5c10.2,0,20.1,0,29.9,0c0.1-0.3,0.1-0.4,0.1-0.5c0-18.5,0-37.1,0-55.6c0-2.4-1.3-3.7-3.8-3.7c-16.5,0-33,0-49.5,0
		c-0.7,0-1.7,0.6-2,1.2c-1.7,3.1-3.3,6.3-4.8,9.5c-0.9,1.9-2.2,2.6-4.3,2.6c-8.9-0.1-17.8,0-26.7,0c-0.7,0-1.5,0-2.3,0
		c0,11.2,0,22.2,0,33.3c1,0,1.8,0,2.6,0c16.8,0,33.5,0,50.3,0c6.1,0,10.3,4.2,10.4,10.3C116.7,74.6,116.7,75.5,116.7,76.5z
		 M143.6,123.3c-11.9,0-23.8,0-35.7,0c-3.6,0-4.6,1-4.6,4.6c0,16.9,0,33.9,0,50.8c0,3.5,1,4.6,4.6,4.6c23.7,0,47.3,0,71,0
		c3.5,0,4.6-1,4.6-4.6c0-16.9,0-33.9,0-50.8c0-3.5-1-4.6-4.6-4.6C167.1,123.3,155.4,123.3,143.6,123.3z M110,89.9
		c0-5.2,0-10.2,0-15.2c0-3.8-1-4.8-4.8-4.8c-23.8,0-47.7,0-71.5,0c-4.4,0-8.8,0-13.1,0c-2.8,0-4,1.2-4,3.9c0,1.7,0,3.5,0,5.2
		c0,3.6,0,7.2,0,10.8C47.8,89.9,78.8,89.9,110,89.9z M146.6,116.6c0-11.1,0-22.1,0-33.1c-10,0-19.9,0-29.8,0c0,11.1,0,22,0,33.1
		C126.8,116.6,136.6,116.6,146.6,116.6z M53.3,23.3c9.2,0,18.2,0,27.1,0c0.4,0,0.9-0.2,1.1-0.4c1.1-2,2-4,3.2-6.2
		c-9.5,0-18.6,0-27.7,0c-2.2,0-3.5,1.3-3.6,3.5C53.2,21.1,53.3,22.1,53.3,23.3z"/>
	<path class="st1" d="M90,136.7c0,14.7-12.1,26.7-26.9,26.6c-14.5-0.1-26.5-12.1-26.5-26.6c0-14.7,12-26.7,26.6-26.7
		C78,110,90,122,90,136.7z M48.8,150.1c7,8.3,20.3,8.7,28.4,1c8.3-7.9,8.2-21.4-0.2-29.1c-8.2-7.5-21.5-7-28.2,1.2
		c0.3,0.1,0.6,0.3,0.9,0.4c4.6,1.8,6.9,5.1,6.9,10c0,1.6,0,3.2,0,4.8C56.6,144.9,54.8,147.6,48.8,150.1z M44.6,129.4
		c-1.8,5-1.9,9.9,0.1,14.7c4.6-0.7,5.2-1.4,5.2-5.8c0-1.1,0-2.2,0-3.3C49.9,130.8,49.1,129.9,44.6,129.4z"/>
	<path class="st1" d="M133.4,46.6c0-2.2,0-4.3,0-6.5c0.1-2.1,1.4-3.5,3.3-3.5c1.9,0,3.3,1.4,3.3,3.5c0.1,4.3,0.1,8.6,0,12.9
		c0,2.1-1.5,3.5-3.3,3.5c-1.9,0-3.2-1.4-3.3-3.6C133.4,50.9,133.4,48.8,133.4,46.6z"/>
	<path class="st1" d="M133.4,176.7c-6.4,0-12.8,0-19.2,0c-3,0-4.2-1.2-4.2-4.2c0-12.8,0-25.6,0-38.3c0-3,1.2-4.2,4.2-4.2
		c12.8,0,25.6,0,38.4,0c3,0,4.2,1.2,4.2,4.2c0,12.8,0,25.6,0,38.3c0,3-1.2,4.2-4.2,4.2C146.2,176.7,139.8,176.7,133.4,176.7z
		 M150,136.8c-11.2,0-22.2,0-33.1,0c0,11.1,0,22.1,0,33.1c11.1,0,22.1,0,33.1,0C150,158.8,150,147.9,150,136.8z"/>
	<path class="st1" d="M170,143.3c-1.1,0-2.2,0.1-3.3,0c-1.9-0.1-3.2-1.5-3.2-3.2c0-1.8,1.3-3.3,3.2-3.4c2.3-0.1,4.6-0.1,6.9,0
		c1.9,0.1,3.2,1.5,3.2,3.2c0,1.8-1.3,3.3-3.2,3.4C172.4,143.4,171.2,143.3,170,143.3z"/>
	<path class="st1" d="M170.1,156.6c-1.2,0-2.4,0.1-3.5,0c-1.8-0.2-3.1-1.6-3.1-3.3c0-1.7,1.3-3.2,3.1-3.3c2.4-0.1,4.7-0.1,7.1,0
		c1.8,0.1,3.1,1.6,3.1,3.3c0,1.7-1.3,3.1-3.1,3.3C172.5,156.7,171.3,156.6,170.1,156.6z"/>
	<path class="st1" d="M170.1,170c-1.1,0-2.2,0.1-3.3,0c-2-0.1-3.3-1.5-3.3-3.4c0-1.7,1.3-3.2,3.2-3.2c2.4-0.1,4.7-0.1,7.1,0
		c1.8,0.1,3.1,1.6,3.1,3.3c0,1.7-1.3,3.1-3.2,3.3C172.4,170.1,171.3,170,170.1,170C170.1,170,170.1,170,170.1,170z"/>
	<path class="st1" d="M63.2,76.7c5.3,0,10.6,0,15.9,0c2.6,0,4.2,1.2,4.2,3.3c0,2.1-1.5,3.3-4.1,3.3c-10.6,0-21.1,0-31.7,0
		c-2.6,0-4.2-1.2-4.2-3.3c0-2.1,1.5-3.3,4.1-3.3C52.7,76.7,58,76.7,63.2,76.7z"/>
	<path class="st1" d="M29.9,76.7c1.1,0,2.2-0.1,3.3,0c2,0.1,3.3,1.5,3.3,3.3c0,1.7-1.3,3.2-3.1,3.3c-2.4,0.1-4.7,0.1-7.1,0
		c-1.8-0.1-3.1-1.6-3.1-3.3c0-1.7,1.3-3.1,3.1-3.3C27.5,76.6,28.7,76.7,29.9,76.7C29.9,76.7,29.9,76.7,29.9,76.7z"/>
	<path class="st1" d="M96.8,76.7c1.1,0,2.2-0.1,3.3,0c1.9,0.1,3.2,1.5,3.2,3.2c0,1.8-1.3,3.3-3.3,3.4c-2.3,0.1-4.6,0.1-6.9,0
		c-1.9-0.1-3.1-1.5-3.2-3.2c0-1.8,1.3-3.2,3.2-3.4C94.4,76.6,95.6,76.7,96.8,76.7z"/>
	<path class="st1" d="M133.4,99.9c0-2.1,0-4.2,0-6.2c0.1-2.2,1.5-3.7,3.4-3.6c1.9,0.1,3.2,1.5,3.2,3.6c0,4.2,0,8.5,0,12.7
		c0,2.2-1.5,3.7-3.4,3.6c-1.9-0.1-3.2-1.5-3.2-3.6C133.4,104.2,133.4,102.1,133.4,99.9z"/>
</g>
</svg>
