<?xml version="1.0" encoding="utf-8"?>
<!-- Generator: Adobe Illustrator 26.2.1, SVG Export Plug-In . SVG Version: 6.00 Build 0)  -->
<svg version="1.1" id="Layer_1" xmlns="http://www.w3.org/2000/svg" xmlns:xlink="http://www.w3.org/1999/xlink" x="0px" y="0px"
	 viewBox="0 0 200 200" style="enable-background:new 0 0 200 200;" xml:space="preserve">
<style type="text/css">
	.st0{fill:none;}
	.st1{fill:#222222;}
</style>
<rect class="st0" width="200" height="200"/>
<g>
	<g>
		<path class="st1" d="M146,40.5c0-7-4.7-11.5-11.7-11.5c-2.2,0-4.4,0-6.8,0c0-5-0.1-9.7,0-14.4c0-2.1-0.6-3.6-2.6-4.5
			c-16.8,0-33.6,0-50.4,0c-1.9,1-2.6,2.6-2.5,4.8c0.1,4.7,0,9.3,0,14.2c-2.2,0-4.1,0-6.1,0C58.5,29,54,33.5,54,41
			c0,45.7,0,91.4,0,137.1c0,7.4,4.6,11.9,12,11.9c22.7,0,45.3,0,68,0c7.5,0,12-4.5,12-12.1c0-19.3,0-75.6,0-100.5
			C146,65.1,146,52.8,146,40.5z M79.3,17.2c13.6,0,27.3,0,41.1,0c0,3.9,0,7.8,0,11.7c-13.7,0-27.4,0-41.1,0
			C79.3,25,79.3,21.1,79.3,17.2z M133.7,183c-22.4,0-44.9,0-67.3,0c-4.1,0-5.4-1.3-5.4-5.3c0-45.5,0-90.9,0-136.4
			c0-4,1.3-5.2,5.3-5.2c22.4,0,44.9,0,67.3,0c4.1,0,5.4,1.3,5.4,5.4c0,10.2,0,20.3,0,30.5c0,0.1,0,0.2,0,0.3c0,0.3,0,0.7,0,1
			c0,21.4,0,84.1,0,104.5C139,181.7,137.6,183,133.7,183z"/>
		<path class="st1" d="M76.1,110.4c0-10.5,0-21.1,0-31.6c0-3.4,1.2-4.6,4.5-4.6c12.9,0,25.8,0,38.7,0c3.4,0,4.6,1.2,4.6,4.5
			c0,21.1,0,42.2,0,63.2c0,3.4-1.2,4.5-4.5,4.5c-12.9,0-25.8,0-38.7,0c-3.4,0-4.6-1.2-4.6-4.5C76.1,131.5,76.1,120.9,76.1,110.4z
			 M116.8,102.5c-11.3,0-22.4,0-33.5,0c0,5.3,0,10.5,0,15.7c11.2,0,22.4,0,33.5,0C116.8,112.9,116.8,107.7,116.8,102.5z M116.8,81.3
			c-11.2,0-22.3,0-33.5,0c0,4.7,0,9.3,0,13.9c11.2,0,22.3,0,33.5,0C116.8,90.6,116.8,86.1,116.8,81.3z M116.8,125.5
			c-11.3,0-22.5,0-33.6,0c0,4.7,0,9.2,0,13.8c11.3,0,22.4,0,33.6,0C116.8,134.7,116.8,130.2,116.8,125.5z"/>
	</g>
	<g>
		<path class="st1" d="M102.3,44.2v8.6h8.3v4.4h-8.3v8.7h-4.6v-8.7h-8.3v-4.4h8.3v-8.6H102.3z"/>
	</g>
	<g>
		<path class="st1" d="M110.6,162.5v4.8H89.4v-4.8H110.6z"/>
	</g>
</g>
</svg>
