<svg xmlns="http://www.w3.org/2000/svg" viewBox="0 0 200 200"><defs><style>.cls-1{fill:none;}.cls-2{fill:#222;}</style></defs><g id="Layer_2" data-name="Layer 2"><g id="Layer_1-2" data-name="Layer 1"><rect class="cls-1" width="200" height="200"/><path class="cls-2" d="M184.39,16.08V89.25H176V16.08h8.38m1.87-5.61H174.14a3.75,3.75,0,0,0-3.74,3.74V91.12a3.75,3.75,0,0,0,3.74,3.74h12.12A3.75,3.75,0,0,0,190,91.12V14.21a3.75,3.75,0,0,0-3.74-3.74Z"/><path class="cls-2" d="M84.61,109.22v61.65h5.61V109.22a18.71,18.71,0,0,1,18.71-18.71h61.65V84.9H108.93A24.35,24.35,0,0,0,84.61,109.22Z"/><path class="cls-2" d="M90.22,15.12H71A56.13,56.13,0,0,0,14.83,71.25v99.62h5.62V71.25A50.57,50.57,0,0,1,71,20.73h99.62V15.12Z"/><path class="cls-2" d="M88.78,175.54v8.38H15.61v-8.38H88.78m1.88-5.61H13.74A3.75,3.75,0,0,0,10,173.67v12.12a3.75,3.75,0,0,0,3.74,3.74H90.66a3.75,3.75,0,0,0,3.74-3.74V173.67a3.75,3.75,0,0,0-3.74-3.74Z"/></g></g></svg>