<svg xmlns="http://www.w3.org/2000/svg" viewBox="0 0 200 200"><defs><style>.cls-1{fill:none;}.cls-2{fill:#222;}</style></defs><g id="Layer_2" data-name="Layer 2"><g id="Layer_1-2" data-name="Layer 1"><rect class="cls-1" width="200" height="200"/><path class="cls-2" d="M147.22,16.8A138,138,0,0,0,100,8.29c-29.06,0-46.68,8.14-47.42,8.48a6.23,6.23,0,0,0-3.41,5.38V159.37a6.22,6.22,0,0,0,3.41,5.37,77.32,77.32,0,0,0,12.32,4.17,1,1,0,0,0,0,.17V183a5.51,5.51,0,0,0,5.51,5.51h59.22a5.51,5.51,0,0,0,5.51-5.51V169.08a3.19,3.19,0,0,0-.05-.54,112.18,112.18,0,0,0,12.13-3.82,6,6,0,0,0,3.63-5.35V22.15A6,6,0,0,0,147.22,16.8ZM128.89,182.29H71.11V170.37A143,143,0,0,0,100,173.23,137.8,137.8,0,0,0,128.89,170ZM144.6,159a137.07,137.07,0,0,1-44.6,8c-26.1,0-42.76-7-44.6-7.82V22.34c1.86-.82,18.52-7.82,44.6-7.82a135,135,0,0,1,44.6,7.94Z"/><path class="cls-2" d="M85.64,87.27a9.35,9.35,0,0,0-9.34,9.35v48A9.35,9.35,0,0,0,85.64,154h28.72a9.36,9.36,0,0,0,9.35-9.35v-48a9.36,9.36,0,0,0-9.35-9.35Zm31.83,9.35v48a3.12,3.12,0,0,1-3.11,3.12H85.64a3.12,3.12,0,0,1-3.11-3.12v-48a3.12,3.12,0,0,1,3.11-3.12h28.72A3.12,3.12,0,0,1,117.47,96.62Z"/><path class="cls-2" d="M100,124.06a8.29,8.29,0,1,0,8.29,8.29A8.3,8.3,0,0,0,100,124.06Zm0,11.43a3.14,3.14,0,1,1,3.14-3.14A3.15,3.15,0,0,1,100,135.49Z"/><path class="cls-2" d="M83.06,50.87A16.94,16.94,0,1,0,100,33.93,17,17,0,0,0,83.06,50.87Zm27.65,0A10.71,10.71,0,1,1,100,40.17,10.73,10.73,0,0,1,110.71,50.87Z"/><path class="cls-2" d="M94.68,45.11a3.1,3.1,0,0,0,0,4.4l1.63,1.63a3.11,3.11,0,0,0,4.41-4.4l-1.63-1.63A3.11,3.11,0,0,0,94.68,45.11Z"/></g></g></svg>