<?xml version="1.0" encoding="utf-8"?>
<!-- Generator: Adobe Illustrator 26.2.1, SVG Export Plug-In . SVG Version: 6.00 Build 0)  -->
<svg version="1.1" id="Layer_1" xmlns="http://www.w3.org/2000/svg" xmlns:xlink="http://www.w3.org/1999/xlink" x="0px" y="0px"
	 viewBox="0 0 200 200" style="enable-background:new 0 0 200 200;" xml:space="preserve">
<style type="text/css">
	.st0{fill:none;}
	.st1{fill:#222222;}
</style>
<rect class="st0" width="200" height="200"/>
<g>
	<path class="st1" d="M64.8,68.9c0-12.1,0-24.2,0-36.3c0-4.6,2.4-7.1,7-7.1c18.1,0,36.2,0,54.3,0c4.5,0,6.9,2.5,6.9,7
		c0,24.3,0,48.6,0,73c0,4.5-2.5,7-6.9,7c-18.1,0-36.2,0-54.3,0c-4.6,0-7-2.5-7-7.1C64.8,93.2,64.8,81.1,64.8,68.9z M126.7,106.2
		c0-24.9,0-49.6,0-74.3c-18.7,0-37.2,0-55.7,0c0,24.8,0,49.5,0,74.3C89.6,106.2,108.1,106.2,126.7,106.2z"/>
	<path class="st1" d="M182.8,129.1c0-1.4,0-2.8,0-4.1c-1.2-0.1-2.1-0.1-3.1-0.2c0-3,0-5.9,0-8.8c0-2-1-3.2-2.7-3.5
		c-1.9-0.3-3.5,1.2-3.5,3.4c0,2.9,0,5.9,0,8.8c-2.2,0-4.1,0-6.2,0c0-1.8,0-3.4,0-5.1c0-1.4,0-2.7,0-4.1c-0.1-1.9-1.3-3.1-3-3.2
		c-1.8,0-3.1,1.3-3.1,3.2c-0.1,3,0,6,0,9.1c-1.2,0.1-2.1,0.1-3.1,0.2c0,3.9,0,7.5,0,11.2c0,5.8,2.6,10,7.9,12.4c1,0.4,1.2,1,1,1.9
		c-1.4,8.1-9.6,14.8-18.2,14.6c0-1.2,0-2.2,0-3.2c0,0,0,0,0,0c0-21.6,0-60.6,0-79.9c0-20.6,0-41.1,0-61.7c0-6.6-3.8-10.3-10.4-10.3
		c-23.3,0-46.6,0-69.9,0c-3.4,0-6.7-0.1-10.1,0c-5.2,0.1-9.4,4.7-9,9.7c0,0.2,0,0.3,0.1,0.5c0,0.4-0.1,0.9-0.1,1.3
		c0,44.4,0,104.2,0,148.6c0,0.6,0,1.2,0,1.7c0.2,4.8,4,8.7,8.8,8.9c0.7,0,1.4,0,2.2,0c0,3.3,0,6.2,0,9.2c7.4,0,14.6,0,22,0
		c0-3.1,0-6.1,0-9.1c11.2,0,22.2,0,33.3,0c0,3.1,0,6.1,0,9c7.4,0,14.6,0,22,0c0-1.6,0-3.1,0-4.6c0-1.5,0-2.9,0-4.6
		c2.9,0.2,5.5-0.4,7.6-2.2c2.2-1.8,3.2-4.3,3.5-7c0.3-0.1,0.5-0.1,0.7-0.1c12.4-0.8,21.4-8.8,23.8-21c0.1-0.6,0.7-1.3,1.3-1.6
		c5.4-2.4,8.2-6.5,8.3-12.4C182.8,134,182.8,131.6,182.8,129.1z M75.9,183.8c-3.1,0-6.2,0-9.5,0c0-1,0-1.8,0-2.8c3.2,0,6.3,0,9.5,0
		C75.9,181.8,75.9,182.7,75.9,183.8z M131.3,183.8c-3.1,0-6.1,0-9.4,0c0-1,0-1.9,0-2.9c3.1,0,6.2,0,9.4,0
		C131.3,181.8,131.3,182.7,131.3,183.8z M137.8,174.6c-25.9,0-51.8,0-77.6,0c-4,0-4.8-0.8-4.8-4.8c0-44.3,0-104.1,0-148.4
		c0-0.4,0-0.8-0.1-1.2c0,0,0,0,0-0.1c0.7-3.7,1.1-4,4.8-4c25.8,0,51.6,0,77.4,0c4,0,4.8,0.8,4.8,4.7c0,40.6,0,103.1,0,144
		c0,0.2,0,0.5,0,0.7c0,0.4,0,0.8,0,1.2c0,1.1,0,2.1,0,3.2C142.4,173.7,141.5,174.6,137.8,174.6z M176.4,138.8c-0.5,3-3.6,5-6.6,4.7
		c-3.1-0.3-5.6-2.9-5.6-6.1c0-2,0-4,0-6.2c4.2,0,8.2,0,12.3,0C176.4,133.7,176.7,136.3,176.4,138.8z"/>
	<path class="st1" d="M93.4,149.3c-2.8,0-5.4,0-8.1,0c-4.4,0-6.2-2.2-5.1-6.4c2.2-8.2,4.4-16.5,6.6-24.7c0.7-2.7,2.1-3.7,4.9-3.7
		c4,0,8,0,12,0c3.7,0,5.5,2.4,4.5,6c-1.3,4.6-2.7,9.3-4.1,14.2c2.8,0,5.5,0,8.1,0c2,0,3.6,0.6,4.5,2.4c0.9,1.8,0.3,3.5-0.9,5
		c-7,9.1-14,18.3-21,27.4c-1.7,2.2-3.7,2.6-5.5,1.2c-1.5-1.2-1.4-2.8-0.9-4.4c1.5-5,2.9-9.9,4.3-14.9
		C93.1,150.7,93.2,150.1,93.4,149.3z M101.8,120.6c-2.7,0-5.2,0.1-7.7,0c-1.2,0-1.5,0.5-1.8,1.5c-1.7,6.6-3.5,13.1-5.2,19.6
		c-0.1,0.4-0.1,0.8-0.1,1.4c2.9,0,5.6,0,8.3,0c4.1,0,5.8,2.3,4.7,6.3c-0.4,1.3-0.8,2.7-1.2,4c0.2,0.1,0.3,0.1,0.5,0.2
		c3.2-4.2,6.4-8.3,9.8-12.8c-2.8,0-5.1,0-7.5,0c-2.6-0.1-4.4-2.1-4.2-4.5c0.1-0.8,0.3-1.5,0.5-2.3
		C99.2,129.7,100.5,125.3,101.8,120.6z"/>
	<path class="st1" d="M123.6,100c-16.5,0-32.9,0-49.4,0c0-7.2,0-14.3,0-21.5c16.4,0,32.9,0,49.4,0C123.6,85.6,123.6,92.7,123.6,100z
		 M80.4,93.7c12.5,0,24.8,0,37.1,0c0-3.1,0-6,0-9.1c-12.4,0-24.7,0-37.1,0C80.4,87.7,80.4,90.7,80.4,93.7z"/>
	<path class="st1" d="M95.7,59.8c0,5.2,0,10.2,0,15.3c-7.2,0-14.3,0-21.5,0c0-5,0-10.1,0-15.3C81.3,59.8,88.4,59.8,95.7,59.8z
		 M80.4,68.9c3.2,0,6.2,0,9.1,0c0-1,0-1.9,0-2.8c-3.1,0-6.1,0-9.1,0C80.4,67,80.4,67.9,80.4,68.9z"/>
	<path class="st1" d="M123.7,59.8c0,5.2,0,10.2,0,15.3c-7.2,0-14.3,0-21.5,0c0-5,0-10.1,0-15.3C109.3,59.8,116.4,59.8,123.7,59.8z
		 M117.5,68.9c0-1.1,0-2,0-2.9c-3.1,0-6.1,0-9.1,0c0,1,0,2,0,2.9C111.5,68.9,114.4,68.9,117.5,68.9z"/>
	<path class="st1" d="M86.6,56.6c-5.2,0-9.4-4.2-9.4-9.3c0-5.1,4.2-9.2,9.2-9.3c5.2,0,9.4,4.2,9.4,9.3
		C95.8,52.4,91.6,56.6,86.6,56.6z M86.5,50.4c1.7,0,3-1.4,3-3.1c0-1.7-1.5-3.2-3.2-3.1c-1.7,0.1-3,1.5-2.9,3.2
		C83.5,49,84.9,50.4,86.5,50.4z"/>
	<path class="st1" d="M120.7,47.3c0,5.1-4.2,9.3-9.2,9.3c-5.2,0-9.4-4.2-9.4-9.3c0-5.1,4.2-9.2,9.2-9.3
		C116.4,37.9,120.6,42.1,120.7,47.3z M111.3,44.2c-1.7,0-3,1.4-3.1,3.1c0,1.7,1.4,3.1,3,3.1c1.7,0,3.2-1.4,3.2-3.2
		C114.4,45.5,113,44.2,111.3,44.2z"/>
</g>
</svg>
