<?xml version="1.0" encoding="utf-8"?>
<!-- Generator: Adobe Illustrator 26.3.1, SVG Export Plug-In . SVG Version: 6.00 Build 0)  -->
<svg version="1.1" id="Layer_1" xmlns="http://www.w3.org/2000/svg" xmlns:xlink="http://www.w3.org/1999/xlink" x="0px" y="0px"
	 viewBox="0 0 200 200" style="enable-background:new 0 0 200 200;" xml:space="preserve">
<style type="text/css">
	.st0{fill:none;}
	.st1{fill:#222222;}
</style>
<rect class="st0" width="200" height="200"/>
<g>
	<path class="st1" d="M153.4,10c0.3,0.1,0.5,0.3,0.8,0.3c7.2,1.8,11.9,7.5,11.9,15c0,17.5,0,35,0,52.5c0,16.1,0,32.1,0,48.2
		c0,9.6-6.3,15.9-15.9,16c-2.6,0-5.2,0-8,0c0,4.1,0,7.9,0,11.8c-0.1,5.8-3.7,10.6-9.1,11.8c-1.9,0.4-3.8,0.4-5.9,0.6
		c0,4.2-0.2,8.4,0,12.6c0.3,5.8-1.9,9.5-7.4,11.2c-1.2,0-2.3,0-3.5,0c-0.2-0.1-0.4-0.3-0.6-0.3c-4.4-1.6-6.5-4.5-6.5-9.1
		c0-2.9,0-5.9,0-8.8c0-1.9,0-3.7,0-5.6c-6.1,0-12,0-18,0c0,4.9,0,9.6,0,14.3c0,3.5-1.4,6.4-4.5,8.2c-0.9,0.5-1.9,0.9-2.8,1.3
		c-1.2,0-2.3,0-3.5,0c-1.1-0.5-2.3-0.9-3.3-1.6c-2.8-1.9-4-4.6-4-8c0-4.1,0-8.2,0-12.3c0-0.6,0-1.3,0-2c-1.7-0.1-3.2-0.1-4.7-0.3
		c-6-0.9-10.2-5.7-10.3-11.7c-0.1-3.9,0-7.8,0-12c-0.8,0-1.5-0.1-2.3-0.1c-3.4-0.2-7,0.1-10.3-0.5c-6.5-1.3-10.9-6.9-11.4-13.5
		c0-0.8-0.1-1.5-0.1-2.3c0-33.2,0-66.3,0-99.5c0-5.5,1.7-10.2,6.3-13.3c1.9-1.3,4.3-1.9,6.5-2.9C82.3,10,117.8,10,153.4,10z
		 M100,136c16.8,0,33.5,0,50.3,0c6.1,0,9.7-3.7,9.7-9.8c0-33.5,0-66.9,0-100.4c0-6.1-3.7-9.9-9.8-9.9c-33.5,0-66.9,0-100.4,0
		c-6.1,0-9.8,3.7-9.8,9.7c0,33.5,0,67,0,100.5c0,1,0.1,2.1,0.3,3.1c1.1,4.2,4.5,6.6,9.4,6.6C66.5,136,83.3,136,100,136z M64,142.1
		c0,3.6,0,7.1,0,10.6c0,5.1,2.2,7.3,7.3,7.3c15.2,0,30.5,0,45.7,0c4.2,0,8.4,0,12.7,0c3.4,0,6-2,6.3-5.2c0.3-4.2,0.1-8.4,0.1-12.7
		c-3,0-5.9,0-8.9,0c0,2.8,0,5.4,0,8.1c0,2.4-1.1,3.8-3,3.8c-1.9,0-3-1.4-3-3.7c0-2.7,0-5.4,0-8.1c-14,0-27.9,0-41.9,0
		c0,0.7-0.1,1.2-0.1,1.7c0,2.3,0,4.7,0,7c-0.1,1.9-1.3,3.1-2.9,3.1c-1.7,0-2.9-1.2-3.1-3.2c-0.1-1,0-2,0-3c0-1.9,0-3.8,0-5.7
		C69.8,142.1,67,142.1,64,142.1z M79,166.1c0,4.9,0,9.7,0,14.4c0,2.1,1.1,3.4,2.9,3.5c1.8,0.1,3.1-1.3,3.1-3.5c0-3.5,0-7,0-10.5
		c0-1.3,0-2.5,0-3.9C82.9,166.1,81.1,166.1,79,166.1z M115,166.1c0,5.1,0,10.2,0,15.2c0,1.5,1.5,2.7,3,2.7c1.5,0,2.9-1.2,2.9-2.7
		c0.1-5,0-10,0-15.2C119,166.1,117.1,166.1,115,166.1z"/>
	<path class="st1" d="M100.1,25c28.2,0.1,50.9,22.9,50.8,51c-0.1,28.2-23.1,51.1-51.2,50.9c-28.1-0.2-51-23.2-50.8-51.2
		C49.1,47.6,72,24.9,100.1,25z M100.1,31c-24.8,0-45,20-45.1,44.8c-0.1,24.7,20.2,45.1,45,45.2c24.8,0,44.9-20,45-44.9
		C145.1,51.3,125,31.1,100.1,31z"/>
	<path class="st1" d="M112,51.9c0,6.6-5.2,12-11.9,12.1C93.5,64.1,88,58.6,88,52c0-6.6,5.5-12,12-12C106.6,40,111.9,45.3,112,51.9z
		 M106,52c0-3.3-2.7-6-6-6c-3.2,0.1-5.9,2.7-5.9,5.9c0,3.3,2.7,6,6,6C103.3,58,106,55.3,106,52z"/>
	<path class="st1" d="M112,100.1c0,6.7-5.4,12-12.2,11.9c-6.5-0.1-11.8-5.5-11.8-12c0-6.6,5.4-12,12.1-12
		C106.7,88.1,112,93.4,112,100.1z M99.9,94c-3.3,0-6,2.8-5.9,6.1c0.1,3.2,2.8,5.9,6,5.9c3.4,0,6-2.6,6-6
		C105.9,96.6,103.3,94,99.9,94z"/>
</g>
</svg>
