<svg xmlns="http://www.w3.org/2000/svg" viewBox="0 0 200 200"><defs><style>.cls-1{fill:none;}.cls-2{fill:#222;}</style></defs><g id="Layer_2" data-name="Layer 2"><g id="Layer_1-2" data-name="Layer 1"><rect class="cls-1" width="200" height="200"/><path class="cls-2" d="M161.26,158.33a5.53,5.53,0,0,0,5.53-5.52v-8.49a2.91,2.91,0,0,0-.1-.72,4.81,4.81,0,0,0-.07-1.13L155,82.17a5.39,5.39,0,0,0-5.21-4.3H50.2a5.37,5.37,0,0,0-5.2,4.3l-11.62,60.3a4.81,4.81,0,0,0-.07,1.13,2.91,2.91,0,0,0-.1.72v8.49a5.53,5.53,0,0,0,5.53,5.52h52.6v12.78H67a4.66,4.66,0,0,0-4.66,4.66v5.94H36.21a3,3,0,0,0,0,6H163.79a3,3,0,0,0,0-6H137.62v-5.94a4.66,4.66,0,0,0-4.66-4.66h-24.3V158.33Zm-118.66-32H75.26L73.83,141.9H39.6Zm4-20.81H77.16L75.8,120.36h-32Zm70.21,0,1.36,14.81H81.83l1.36-14.81Zm-33.07-6,1.43-15.68h29.66l1.43,15.68Zm72.51,20.81h-32l-1.36-14.81H153.4Zm-75,6h37.44l1.42,15.54H79.86Zm44.89,15.54-1.42-15.54h32.66l3,15.54Zm26.07-42.35H122.29l-1.44-15.68h28.37ZM50.78,83.87H79.15L77.71,99.55H47.76Zm-11.57,64H160.79v4.43H39.21Zm92.41,33.81H68.38v-4.6h63.24Zm-29-10.6H97.34V158.33h5.32Z"/><path class="cls-2" d="M100,55.9A15.07,15.07,0,1,0,84.93,40.83,15.09,15.09,0,0,0,100,55.9Zm0-24.14a9.07,9.07,0,1,1-9.07,9.07A9.08,9.08,0,0,1,100,31.76Z"/><path class="cls-2" d="M100,22a3,3,0,0,0,3-3V12.71a3,3,0,0,0-6,0V19A3,3,0,0,0,100,22Z"/><path class="cls-2" d="M97,62.63V69a3,3,0,0,0,6,0V62.63a3,3,0,1,0-6,0Z"/><path class="cls-2" d="M118.8,40.83a3,3,0,0,0,3,3h6.32a3,3,0,0,0,0-6H121.8A3,3,0,0,0,118.8,40.83Z"/><path class="cls-2" d="M71.88,43.83H78.2a3,3,0,0,0,0-6H71.88a3,3,0,0,0,0,6Z"/><path class="cls-2" d="M115.42,28.41a3,3,0,0,0,2.12-.87L122,23.07a3,3,0,0,0-4.25-4.25l-4.46,4.47a3,3,0,0,0,2.12,5.12Z"/><path class="cls-2" d="M82.46,54.13,78,58.6a3,3,0,0,0,0,4.24,3,3,0,0,0,4.25,0l4.46-4.47a3,3,0,0,0-4.24-4.24Z"/><path class="cls-2" d="M113.3,54.13a3,3,0,0,0,0,4.24l4.46,4.47a3,3,0,0,0,4.25,0,3,3,0,0,0,0-4.24l-4.47-4.47A3,3,0,0,0,113.3,54.13Z"/><path class="cls-2" d="M82.46,27.54a3,3,0,0,0,2.12.87,3,3,0,0,0,2.12-5.12l-4.46-4.46A3,3,0,0,0,78,23.07Z"/></g></g></svg>