<svg xmlns="http://www.w3.org/2000/svg" viewBox="0 0 200 200"><defs><style>.cls-1{fill:none;}.cls-2{fill:#222;}</style></defs><g id="Layer_2" data-name="Layer 2"><g id="Layer_1-2" data-name="Layer 1"><rect class="cls-1" width="200" height="200"/><path class="cls-2" d="M154,22H46a3,3,0,0,0-3,3V133a3,3,0,0,0,3,3H154a3,3,0,0,0,3-3V25A3,3,0,0,0,154,22Zm-3,108H49V28H151Z"/><path class="cls-2" d="M70.73,107.18a8.67,8.67,0,1,0-8.66-8.67A8.67,8.67,0,0,0,70.73,107.18Zm0-11.33a2.67,2.67,0,1,1-2.66,2.66A2.67,2.67,0,0,1,70.73,95.85Z"/><path class="cls-2" d="M100,89.85a8.67,8.67,0,1,0,8.66,8.66A8.67,8.67,0,0,0,100,89.85Zm0,11.33a2.67,2.67,0,1,1,2.66-2.67A2.67,2.67,0,0,1,100,101.18Z"/><path class="cls-2" d="M129.27,89.85a8.67,8.67,0,1,0,8.66,8.66A8.67,8.67,0,0,0,129.27,89.85Zm0,11.33a2.67,2.67,0,1,1,2.66-2.67A2.67,2.67,0,0,1,129.27,101.18Z"/><path class="cls-2" d="M65.07,78.57h69.86a3,3,0,0,0,3-3V60.39a3,3,0,0,0-3-3H65.07a3,3,0,0,0-3,3V75.57A3,3,0,0,0,65.07,78.57Zm43.64-6H103V63.39h5.71Zm6-9.18h5.7v9.18h-5.7ZM97,72.57H91.29V63.39H97Zm-11.71,0h-5.7V63.39h5.7Zm46.64,0h-5.52V63.39h5.52ZM68.07,63.39h5.52v9.18H68.07Z"/><path class="cls-2" d="M182.1,79a11.83,11.83,0,0,0-11.59-11.81V21.53a13,13,0,0,0-13-13h-115a13,13,0,0,0-13,13v45.7a11.81,11.81,0,0,0,0,23.61v45.71a13,13,0,0,0,13,13h1.44v34.07a7.86,7.86,0,0,0,7.85,7.85h96.44a7.86,7.86,0,0,0,7.85-7.85V149.55h1.44a13,13,0,0,0,13-13V90.84A11.82,11.82,0,0,0,182.1,79ZM23.9,79a5.82,5.82,0,0,1,5.59-5.81V84.84A5.81,5.81,0,0,1,23.9,79ZM150.27,183.62a2.05,2.05,0,0,1-2.05,2H51.78a2.05,2.05,0,0,1-2.05-2V149.55h5.44v16a6.2,6.2,0,0,0,6.19,6.19h77.28a6.2,6.2,0,0,0,6.19-6.19v-16h5.44ZM70.09,149.55v6.26a3,3,0,0,0,6,0v-6.26H88v6.26a3,3,0,0,0,6,0v-6.26H106v6.26a3,3,0,0,0,6,0v-6.26h11.94v6.26a3,3,0,0,0,6,0v-6.26h8.92v16a.2.2,0,0,1-.19.19H61.36a.2.2,0,0,1-.19-.19v-16Zm94.42-13a7,7,0,0,1-7,7h-115a7,7,0,0,1-7-7v-115a7,7,0,0,1,7-7h115a7,7,0,0,1,7,7Zm6-51.71V73.23a5.81,5.81,0,0,1,0,11.61Z"/></g></g></svg>