<svg xmlns="http://www.w3.org/2000/svg" viewBox="0 0 200 200"><defs><style>.cls-1{fill:none;}.cls-2{fill:#222;}</style></defs><g id="Layer_2" data-name="Layer 2"><g id="Layer_1-2" data-name="Layer 1"><rect class="cls-1" width="200" height="200"/><path class="cls-2" d="M190,101.75c-.17.36-.35.71-.49,1.08A8.43,8.43,0,0,1,173.14,100a69.38,69.38,0,0,0-4.26-24.44C158.77,49.35,139.94,33.16,112.25,28c-18.57-3.47-35.95.45-51.88,10.65-.87.56-1.72,1.17-2.69,1.84.37.44.67.79,1,1.14a8.17,8.17,0,0,1-.17,10.94c-4.26,4.52-8.72,8.85-13.14,13.22a2.75,2.75,0,0,1-4.21-.06C40,64.62,39,63.4,37.68,62c-2.28,2.35-4.31,4.51-6.43,6.58a2.78,2.78,0,0,1-4.08,0,2.83,2.83,0,0,1,.08-4c.38-.44.81-.85,1.23-1.25,1.73-1.66,3.46-3.3,5.1-4.88L26.2,51.15C24.35,53,22.42,55,20.48,56.88c-1.63,1.62-3.35,1.79-4.59.47s-1-2.88.62-4.46c1.9-1.91,3.83-3.79,6.17-6.08-1.24-1.06-2.44-2-3.5-3-1.71-1.69-1.68-3.13,0-4.85q5.94-6,11.93-11.93c3.92-3.89,9-3.89,12.92,0a18.13,18.13,0,0,1,1.18,1.42c.61-.39,1.06-.63,1.46-.93A89.7,89.7,0,0,1,103.18,10c41.16,1.09,77.48,32.08,85.08,72.57.73,3.9,1.17,7.86,1.74,11.79ZM53.66,36.4l1-.67c17.55-12.23,37-17.18,58-13.36,31.44,5.7,52.24,24.26,62.6,54.45a72.07,72.07,0,0,1,3.53,22.65c0,2.2,1.37,3.55,3.17,3.31,1.59-.22,2.46-1.44,2.45-3.5A82.53,82.53,0,0,0,177.64,67,84.23,84.23,0,0,0,64.39,23.56a77.75,77.75,0,0,0-14.62,8.75ZM43.3,59.81c3.63-3.62,7.26-7.19,10.82-10.82a2.59,2.59,0,0,0,0-3.93q-7.22-7.32-14.53-14.53a2.53,2.53,0,0,0-3.79-.15c-3.72,3.62-7.33,7.36-10.95,11Z"/><path class="cls-2" d="M94.35,190c-3.35-.46-6.72-.83-10-1.4-36.9-6.28-66.76-36.2-72.94-73.22A122.85,122.85,0,0,1,10,100.56a8.35,8.35,0,0,1,8.28-9c4.81,0,8.42,3.68,8.55,8.79.65,25.21,11.22,45.23,31.72,59.85,24.47,17.44,58.9,17.2,83.26-.35a4.19,4.19,0,0,0,.36-.39l-.9-1.12a8.23,8.23,0,0,1,.25-11c4.28-4.49,8.72-8.84,13.15-13.2a2.7,2.7,0,0,1,4.07,0c1.18,1.13,2.21,2.41,3.41,3.73,2.2-2.21,4.13-4.16,6.08-6.08,1.56-1.56,3.24-1.76,4.47-.58s1.1,3-.52,4.59c-1.91,1.91-3.84,3.78-5.64,5.55,2.48,2.47,4.86,4.85,7.34,7.34,1.76-1.77,3.68-3.74,5.63-5.68,1.55-1.55,3.24-1.73,4.46-.52s1.09,2.93-.44,4.47c-1.95,1.94-3.93,3.85-6.27,6.14,1.32,1.14,2.57,2.11,3.67,3.22a2.82,2.82,0,0,1,0,4.47c-4.2,4.25-8.4,8.51-12.69,12.67a8.32,8.32,0,0,1-11.86,0c-.59-.57-1.12-1.2-1.78-1.9-1.82,1.25-3.51,2.47-5.26,3.61a89.6,89.6,0,0,1-42.58,14.53,13.72,13.72,0,0,0-1.53.29Zm52-26.42-.83.54c-18.42,12.88-38.83,17.76-60.73,13-31.7-6.88-52-26.54-61.07-57.72a70.65,70.65,0,0,1-2.47-18.94c0-2.07-1.14-3.32-2.84-3.31s-2.79,1.29-2.78,3.36a83.13,83.13,0,0,0,3.82,24.55c15.72,50.2,72.89,74,119.48,49.71,4-2.07,7.68-4.62,11.6-7Zm10.35-23.44c-3.63,3.62-7.25,7.19-10.81,10.82a2.57,2.57,0,0,0,0,3.93q7.2,7.32,14.52,14.53a2.55,2.55,0,0,0,3.8.17c3.72-3.63,7.33-7.37,10.94-11Z"/><path class="cls-2" d="M91.54,108.44c-6.4,0-12.55,0-18.7,0-1.42,0-2.7-.15-3.46-1.55s-.06-2.57.71-3.72q16.34-24.5,32.64-49c.87-1.31,1.85-2.38,3.56-1.92s2.15,1.89,2.14,3.58c0,6.74,0,13.48,0,20.22V91.55h2c5.56,0,11.13,0,16.7,0,1.41,0,2.71.13,3.47,1.54s.06,2.57-.71,3.73q-16.34,24.48-32.65,49c-.9,1.36-1.93,2.45-3.73,1.86s-2-2.06-2-3.69q0-16.71,0-33.41Zm31.32-11.26H107.23c-3.75,0-4.44-.67-4.44-4.35v-28l-.35,0-25.33,38H93.27c3,0,3.89.87,3.89,3.83q0,13.36,0,26.72v1.79l.35,0Z"/></g></g></svg>