<svg xmlns="http://www.w3.org/2000/svg" viewBox="0 0 301.87 301.87"><defs><style>.cls-1,.cls-3{fill:#fff;}.cls-1{stroke:#1d1d1b;stroke-miterlimit:10;stroke-width:1.87px;}.cls-2{fill:#0055b8;}</style></defs><g id="Layer_2" data-name="Layer 2"><g id="Layer_1-2" data-name="Layer 1"><rect class="cls-1" x="0.94" y="0.94" width="300" height="300"/><rect class="cls-2" x="0.94" y="0.94" width="300" height="300"/><path class="cls-3" d="M177.76,147.87a.52.52,0,0,0-.52.52v24.46a.52.52,0,0,0,.52.52H183a.51.51,0,0,0,.51-.52V148.39a.51.51,0,0,0-.51-.52Zm-135.69,0a.52.52,0,0,0-.52.52v24.46a.52.52,0,0,0,.52.52h5.26a.51.51,0,0,0,.51-.52V148.39a.51.51,0,0,0-.51-.52Zm138.32-9.44a3.77,3.77,0,1,0,3.76,3.77A3.76,3.76,0,0,0,180.39,138.43ZM153.3,154.16h10a2.23,2.23,0,0,1,2.23,2.23v16.46a.52.52,0,0,0,.52.52h5.26a.51.51,0,0,0,.51-.52V154a6.14,6.14,0,0,0-6.14-6.15H134.54a6.14,6.14,0,0,0-6.15,6.14v18.84a.52.52,0,0,0,.52.52h5.25a.52.52,0,0,0,.52-.52V156.39a2.23,2.23,0,0,1,2.24-2.23h10v18.69a.52.52,0,0,0,.52.52h5.31a.52.52,0,0,0,.52-.52Zm-54.68-6.29a.52.52,0,0,0-.52.52v18.84a6.14,6.14,0,0,0,6.14,6.14H122a1,1,0,0,0,1-1v-24a.52.52,0,0,0-.52-.52h-5.25a.52.52,0,0,0-.52.52v18.69H106.62a2.23,2.23,0,0,1-2.23-2.23V148.39a.52.52,0,0,0-.52-.52Zm-22.44,0a.51.51,0,0,0-.51.52v18.84a6.14,6.14,0,0,0,6.14,6.14H94.43a.51.51,0,0,0,.51-.52V167.6a.51.51,0,0,0-.51-.52H84.19A2.23,2.23,0,0,1,82,164.85V148.39a.52.52,0,0,0-.52-.52Zm-22.43,0a.52.52,0,0,0-.52.52v18.84a6.14,6.14,0,0,0,6.15,6.14H72a.52.52,0,0,0,.52-.52V167.6a.52.52,0,0,0-.52-.52H61.76a2.23,2.23,0,0,1-2.24-2.23V148.39a.51.51,0,0,0-.51-.52Zm-9-9.44a3.77,3.77,0,1,0,3.76,3.77A3.76,3.76,0,0,0,44.7,138.43Zm150.51,15.73H205.3a2.23,2.23,0,0,1,2.24,2.23l0,17.19q0,.87,0,1.77a23.38,23.38,0,0,0,46.75-.54,23.9,23.9,0,0,0-14.2-21.47l-1.09-.49,1.08-.81a16.35,16.35,0,0,0,6.65-11.67,15.87,15.87,0,1,0-25.31,11.43l1.41,1-1.6.72a23.3,23.3,0,0,0-5.69,3.68l-1.72,1.5V154a6.15,6.15,0,0,0-6.15-6.15H189.44a.52.52,0,0,0-.52.52v24.46a.52.52,0,0,0,.52.52h5.26a.51.51,0,0,0,.51-.52Zm35.71,37.69a17,17,0,1,1,12-5A16.86,16.86,0,0,1,230.92,191.85Zm0-43.29a9.49,9.49,0,1,1,9.49-9.48A9.49,9.49,0,0,1,230.92,148.56Z"/><rect class="cls-3" x="230.04" y="103.63" width="1.77" height="13.03" rx="0.72"/><rect class="cls-3" x="216.32" y="106.83" width="1.77" height="13.03" rx="0.72" transform="translate(-27.57 123.79) rotate(-30)"/><rect class="cls-3" x="205.85" y="115.66" width="1.77" height="13.03" rx="0.72" transform="translate(-2.44 240.12) rotate(-60)"/><rect class="cls-3" x="243.75" y="106.83" width="1.77" height="13.03" rx="0.72" transform="translate(89.45 -107.13) rotate(30)"/><rect class="cls-3" x="254.23" y="115.66" width="1.77" height="13.03" rx="0.72" transform="translate(233.36 -159.85) rotate(60)"/></g></g></svg>