<svg xmlns="http://www.w3.org/2000/svg" id="Logos" viewBox="0 0 600 600"><defs><style>.cls-1{fill:#ffba17;}.cls-2{fill:#222;fill-rule:evenodd;}</style></defs><rect class="cls-1" width="600" height="600"></rect><polygon class="cls-2" points="50 280.29 137.99 280.29 137.99 295.94 68.27 295.94 68.27 307.5 138.37 307.5 138.37 324.65 68.27 324.65 68.27 352.99 50 352.99 50 280.29 50 280.29"></polygon><polygon class="cls-2" points="151.04 280.29 169.31 280.29 169.31 334.71 227.48 334.71 227.48 352.99 151.04 352.99 151.04 280.29 151.04 280.29"></polygon><path class="cls-2" d="M286,353H250.6s-12.31-.37-13.8-13.79V280.28h18.27V336.2h64.51V280.28h18.26v58.91C336.35,352.61,324.05,353,324.05,353Z"></path><polygon class="cls-2" points="353.88 280.29 353.88 352.99 373.27 352.99 373.27 325.77 417.26 352.99 449.7 352.99 390.42 315.7 446.72 280.29 414.65 280.29 373.27 305.26 373.27 280.29 353.88 280.29 353.88 280.29"></polygon><polygon class="cls-2" points="458.28 279.17 458.28 351.88 550 351.88 550 334.71 476.55 334.71 476.55 324.65 550 324.65 550 307.5 476.55 307.5 476.55 296.31 550 296.31 550 279.17 458.28 279.17 458.28 279.17"></polygon><path class="cls-2" d="M539.19,247A10.81,10.81,0,1,0,550,257.82h0A10.83,10.83,0,0,0,539.19,247Zm-.37,1.87h.37c4.84,0,8.57,3.72,8.57,9a8.58,8.58,0,1,1-8.94-9Zm-3.73,2.61v12.3H537v-5.22h2.24l3.35,5.22h1.87l-3.36-5.22a3.27,3.27,0,0,0,3-3.36c0-2.61-1.49-3.72-4.1-3.72Zm1.86,5.58v-3.72h2.61c1.86,0,2.61.37,2.61,1.86,0,1.12-.75,1.86-2.24,1.86Z"></path></svg>