<?xml version="1.0" encoding="utf-8"?>
<!-- Generator: Adobe Illustrator 26.2.1, SVG Export Plug-In . SVG Version: 6.00 Build 0)  -->
<svg version="1.1" id="Logos" xmlns="http://www.w3.org/2000/svg" xmlns:xlink="http://www.w3.org/1999/xlink" x="0px" y="0px"
	 viewBox="0 0 600 600" style="enable-background:new 0 0 600 600;" xml:space="preserve">
<style type="text/css">
	.st0{fill:#FFFFFF;}
	.st1{fill:#6D6E71;}
	.st2{fill:#D71820;}
</style>
<rect class="st0" width="600" height="600"/>
<g>
	<path class="st1" d="M337.7,297.9c-6.2-8.1-4.7-19.8,3.4-26c3.2-2.5,7.1-3.8,11.1-3.8h33l-3,8.1h-26.7c-3.1,0.1-5.5,2.8-5.4,5.9
		c0,1,0.4,2,1,2.9c4.1,6.3,11.1,10.8,15.5,17.3c6.2,8,4.7,19.6-3.3,25.8c-3.2,2.4-7,3.8-11,3.8h-36.3l3-8.1h28.6
		c3.2-0.2,5.6-2.9,5.4-6.1c-0.1-0.9-0.3-1.8-0.8-2.6C348.6,309.1,342.2,303.4,337.7,297.9L337.7,297.9z M304.2,331.9h-18l23.5-63.8
		h18L304.2,331.9L304.2,331.9z M393,331.9h-18.1l23.5-63.8h18L393,331.9z M420.3,287.4c5.7-12.3,18.2-20.1,31.8-19.9h11.1
		c8.1,0.4,14.8,6.6,15.7,14.7c0.1,1.4,0.1,2.8-0.1,4.2l-0.5,2.2c-2,8.4-5,16.5-8.9,24.1c-5.7,12.3-18.2,20.1-31.8,19.9h-11.1
		c-8.1-0.4-14.8-6.6-15.6-14.7c-0.1-1.4-0.1-2.8,0.1-4.2c0.2-0.7,0.3-1.4,0.5-2.2C413.4,303.1,416.3,295,420.3,287.4L420.3,287.4z
		 M454.4,274L454.4,274c-6.5,0.1-12.4,4.1-14.7,10.2l-11.9,32.5c-0.3,0.8-0.5,1.6-0.4,2.4l0,0c-0.1,3.5,2.6,6.5,6.1,6.7h1.8
		c6.5-0.1,12.4-4.1,14.7-10.2l11.9-32.5c0.3-0.8,0.5-1.6,0.4-2.4l0,0c0-3.5-2.7-6.3-6.1-6.6L454.4,274z M262.3,311.9l29.3-43.8h10.6
		l-41,61.2l0,0c-1.1,1.6-2.9,2.6-4.9,2.7h-10.6l-5-63.8h18L262.3,311.9L262.3,311.9z M498,288.6v-0.8l-16.3,44h-9.3l23.6-63.8h11.6
		l17.1,43.1l15.9-43.1h9.3l-23.6,63.8h-8.5c-2.3-0.1-4.4-1.6-5.3-3.7L498,288.6L498,288.6z"/>
	<path class="st2" d="M142.7,331.9h-19.2l23.6-63.8h19.2L142.7,331.9L142.7,331.9z M83.6,292.6h22.8l9.1-24.6h19.2l-22.1,59.9l0,0
		l0,0c-0.9,2.3-3.1,3.8-5.6,3.8H92l11.3-30.5H80.4l-11.3,30.5H50l23.5-63.8h19.2L83.6,292.6z M189.4,292l31.3-24h14.3l-32,24.6
		l20.3,39.3H207c0.1,0,0.1,0,0.2,0c-2.5,0.1-4.8-1.2-5.9-3.4l0,0l0,0l-12.8-24.7l-4.8,3.7l-9,24.5h-19.2l23.5-63.8h19.2L189.4,292
		L189.4,292z"/>
</g>
</svg>
