<svg xmlns="http://www.w3.org/2000/svg" id="Logos" viewBox="0 0 600 600"><defs><style>.cls-1{fill:#fff;}.cls-2{fill:#dd2a1b;}.cls-3{fill:#0d57a7;}</style></defs><rect class="cls-1" width="600" height="600"></rect><path class="cls-2" d="M493.5,319.85c-8.83,0-19.17-5.16-19.17-19.75s10.34-19.75,19.17-19.75,19.17,5.17,19.17,19.75-10.25,19.75-19.17,19.75m0-30.16c-6.75,0-8.17,5.66-8.17,10.41s1.42,10.42,8.17,10.42,8.17-5.67,8.17-10.42-1.42-10.41-8.17-10.41"></path><polygon class="cls-3" points="90.83 318.94 79.33 318.94 79.33 296.94 61.42 296.94 61.42 318.94 50 318.94 50 268.61 61.42 268.61 61.42 287.19 79.33 287.19 79.33 268.61 90.83 268.61 90.83 318.94"></polygon><rect class="cls-3" x="132.67" y="268.6" width="10.75" height="50.25"></rect><rect class="cls-3" x="148.5" y="268.6" width="10.75" height="50.25"></rect><path class="cls-3" d="M211.17,319H200.42V281.35h10.41v4.75c1.67-2.83,4.25-5.75,9.5-5.75a15.56,15.56,0,0,1,1.92.17l.58.09v10.74l-.75-.08a10.42,10.42,0,0,0-1.58,0c-.33,0-.67.08-1,.08-5.5,0-8.17,2.67-8.17,8.09V319Z"></path><path class="cls-3" d="M277.83,319H267.08V296.27c0-3-.83-6.58-4.58-6.58-3.92,0-5.92,2.25-5.92,6.83V319H245.83v-22.5c0-3.17,0-6.75-5.16-6.75-3.59,0-5.34,2.08-5.34,6.5V319H224.58V281.35H235v4a11.3,11.3,0,0,1,9.83-4.91c5.25,0,7.84,1.91,10.17,5.33a11.49,11.49,0,0,1,9.67-5.33c8.08,0,13.25,5,13.25,12.75V319Z"></path><path class="cls-3" d="M353,319H342.25V296.27c0-3.17-.42-6.58-5.58-6.58-4.25,0-6.92,3-6.92,7.75v21.41H319v-37.5h10.42v4.09c1.58-2.17,4.58-5,10.5-5,8.08,0,13.25,5,13.25,12.75V319Z"></path><path class="cls-3" d="M392.42,319H381.67V296.27c0-3.17-.42-6.58-5.59-6.58-4.25,0-6.91,3-6.91,7.75v21.41H358.42v-37.5h10.33v4.09c1.58-2.17,4.58-5,10.42-5,8.08,0,13.25,5,13.25,12.75Z"></path><polygon class="cls-2" points="413.08 318.94 401.58 318.94 401.58 278.52 386.75 278.52 386.75 268.61 427.83 268.61 427.83 278.52 413.08 278.52 413.08 318.94"></polygon><path class="cls-2" d="M423.75,331.35H422v-8.91l.75.08a4.37,4.37,0,0,0,1.08.08h.67c3.33,0,4.83,0,5.67-4.41L416.5,282h12l7.42,24.83L443,282h11.42l-12.75,36c-4.25,12.58-5.59,13.42-13.25,13.42h-4.67"></path><path class="cls-2" d="M468.92,319.27h-1.25c-8.59,0-10.34-3.42-10.34-8.5V289.85h-4.91v-8.08h4.91V271.35h10.75v10.42H474v8.08h-5.92v18.59c0,1.91,0,2.33,3.34,2.33a15.23,15.23,0,0,0,1.91-.17l.67-.08V319h-.58a28.24,28.24,0,0,1-4.5.25"></path><path class="cls-2" d="M550,319H539.25V296.27c0-3.17-.42-6.58-5.58-6.58-4.25,0-6.92,3-6.92,7.75v21.41H516v-37.5h10.25v4.09c1.58-2.17,4.58-5,10.5-5,8.08,0,13.25,5,13.25,12.75Z"></path><path class="cls-3" d="M292.42,319.85c-5.42,0-11.67-2.91-11.67-11.16,0-6.75,4.08-11.17,11.08-12.25l8.59-1.34c2.5-.33,2.83-1.5,2.83-2.25,0-3.16-2.75-3.66-5.67-3.66-4.16,0-5,2.25-5.25,4.5l-.08.5H281.83l.09-.67c1.16-11.75,9.58-13.25,16.83-13.25,3.5,0,15.08.83,15.08,11.17V311.1a26.08,26.08,0,0,0,.84,6.92l.25.83H304.5l-.17-.41a18,18,0,0,1-.75-3.17c-1.91,2.08-5.16,4.58-11.16,4.58m5.08-16.66c-3.92.66-6,1.66-6,4.83a3.61,3.61,0,0,0,3.46,3.75h.37c3.92,0,7.92-2.42,7.92-6.58V301.6c-1,.59-2.67,1.09-5.75,1.59"></path><path class="cls-3" d="M112.5,319.85c-12.42,0-18.75-6.91-18.75-20.5,0-3.16.83-19,18-19,5.33,0,17.67,2,17.67,20.59v2.33H104.33c.42,3.5,1.92,7.67,8.17,7.67,1.42,0,4.75-.33,5.58-3.09l.17-.41h11.08l-.25.75c-2.91,10.16-11.58,11.66-16.58,11.66m-.75-30.58c-3.83,0-6.42,2.42-7.17,6.58h14.25c-.75-4.83-4.25-6.58-7.08-6.58"></path><path class="cls-3" d="M180.5,319.85c-12.42,0-18.75-6.91-18.75-20.5,0-3.16.83-19,18-19,5.33,0,17.67,2,17.67,20.59v2.33H172.25c.42,3.5,1.92,7.67,8.17,7.67,1.41,0,4.75-.33,5.58-3.09l.17-.41h11.08l-.25.75c-2.83,10.16-11.58,11.66-16.5,11.66m-.83-30.58c-3.84,0-6.42,2.42-7.17,6.58h14.25c-.67-4.83-4.17-6.58-7.08-6.58"></path></svg>