<?xml version="1.0" encoding="utf-8"?>
<!-- Generator: Adobe Illustrator 26.2.1, SVG Export Plug-In . SVG Version: 6.00 Build 0)  -->
<svg version="1.1" id="Logos" xmlns="http://www.w3.org/2000/svg" xmlns:xlink="http://www.w3.org/1999/xlink" x="0px" y="0px"
	 viewBox="0 0 600 600" style="enable-background:new 0 0 600 600;" xml:space="preserve">
<style type="text/css">
	.st0{fill:#FFFFFF;}
	.st1{fill:#ED1C24;}
	.st2{fill:#231F20;}
</style>
<rect class="st0" width="600" height="600"/>
<g>
	<polygon class="st1" points="236.4,309.4 262.6,228 232,228 216.5,276.2 216.4,274.4 216.3,272.6 216,270.9 215.8,269.1 
		215.4,267.4 215,265.6 214.5,263.9 214.1,262.3 213.5,260.5 213,258.9 212.2,257.2 211.5,255.6 210.7,254.1 209.8,252.5 
		208.9,250.9 207.9,249.3 205.9,246.6 203.8,244 201.5,241.7 198.9,239.4 196.4,237.3 193.6,235.4 190.7,233.7 187.6,232.1 
		184.5,230.7 181.3,229.4 178,228.4 174.5,227.5 171,226.8 167.3,226.1 163.6,225.7 159.9,225.6 156.1,225.5 152.2,225.6 
		148.3,225.8 144.3,226.3 140.3,226.9 136.4,227.7 132.3,228.6 128.3,229.7 124.2,231 120.2,232.4 116.1,234.2 112.1,236 108.1,238 
		104.1,240.2 100.2,242.4 96.4,245 92.6,247.6 88.9,250.4 85.5,253.2 82.1,256.2 78.9,259.2 75.9,262.3 73,265.6 70.3,268.9 
		67.7,272.2 65.2,275.5 63.1,279 61,282.4 59.1,286 57.4,289.5 55.8,293.1 54.4,296.6 53.2,300.2 52.2,303.7 51.4,307.4 50.8,310.9 
		50.3,314.5 50.1,318 50,321.4 50.1,324.8 50.5,328.2 51,331.5 51.7,334.9 52.6,338.1 53.9,341.1 55.2,344.3 56.8,347.2 58.6,350 
		60.5,352.7 62.6,355.2 64.8,357.5 67.2,359.7 69.6,361.7 72.2,363.6 74.9,365.3 77.8,366.9 80.7,368.3 83.8,369.5 86.9,370.7 
		90.2,371.6 93.5,372.4 96.9,373.1 100.3,373.6 103.9,373.9 107.5,374.1 111.1,374.1 114.8,374 118.6,373.7 122.4,373.4 
		126.2,372.7 130,372 133.9,371.1 137.8,370 141.6,368.8 145.5,367.5 149.3,365.9 153.1,364.3 156.9,362.4 160.7,360.4 164.5,358.2 
		164.5,352.1 161.3,353.8 158.1,355.3 154.9,356.8 151.7,358.1 148.4,359.2 145.2,360.3 141.9,361.2 138.7,362 135.5,362.6 
		132.3,363.1 129.1,363.6 125.9,363.8 122.8,364 119.8,364 116.6,363.9 113.7,363.6 110.7,363.2 107.8,362.7 105,362.2 102.2,361.4 
		99.5,360.5 96.8,359.5 94.3,358.4 91.8,357.1 89.4,355.7 87.2,354.3 84.9,352.7 82.8,350.9 80.8,349 79,347 77.2,344.9 75.6,342.6 
		74,340.2 72.7,337.6 71.4,334.9 70.4,332.1 69.5,329.3 68.9,326.4 68.4,323.5 68.1,320.6 67.9,317.5 67.9,314.5 68.1,311.5 
		68.5,308.3 69,305.3 69.7,302.2 70.6,299 71.5,295.9 72.7,292.9 74,289.7 75.5,286.7 77.1,283.7 78.8,280.6 80.8,277.7 82.8,274.8 
		85,271.9 87.3,269.1 89.8,266.3 92.4,263.6 95.2,260.9 98.1,258.4 101.1,255.9 104.2,253.5 107.4,251.2 110.7,249.1 114.1,247.1 
		117.6,245.2 121.1,243.5 124.5,241.9 128,240.5 131.5,239.3 135,238.2 138.5,237.2 142,236.4 145.5,235.8 149,235.2 152.4,234.9 
		155.8,234.7 159.1,234.7 162.4,234.7 165.6,234.9 168.9,235.3 172,235.9 175,236.5 178.1,237.4 180.9,238.4 183.8,239.5 
		186.5,240.7 189.1,242.2 191.6,243.6 194,245.4 196.4,247.3 198.4,249.3 200.5,251.3 202.4,253.6 204.1,256.1 205.5,258.3 
		206.8,260.5 207.8,262.6 208.8,265 209.5,267.3 210.2,269.6 210.7,272.1 211.1,274.6 211.4,277.1 211.5,279.7 211.6,282.3 
		211.5,285 211.3,287.8 211,290.5 210.7,293.2 210.2,296.1 209.5,299.1 208.7,302.2 207.7,305.1 206.7,307.9 205.5,310.7 
		204.2,313.4 202.8,316.1 201.3,318.8 199.6,321.3 197.8,323.9 195.9,326.3 193.8,328.8 191.5,331.1 189.1,333.5 186.7,335.8 
		184,338.1 185.3,338.4 186.5,338.6 187.7,338.7 189,338.9 190.5,339.1 191.9,339.3 193.3,339.3 194.7,339.3 196.8,339.3 
		198.8,339.2 200.9,339 202.9,338.6 204.3,338.4 205.8,338.1 207.3,337.7 208.7,337.2 210,336.8 211.4,336.2 212.7,335.6 
		214.1,334.9 215.4,334.3 216.6,333.6 217.9,332.9 219.1,332 220.3,331.2 221.5,330.4 222.6,329.5 223.8,328.5 224.8,327.6 
		225.8,326.5 226.9,325.5 227.8,324.4 228.8,323.3 229.7,322.2 230.6,321 231.3,319.8 232.2,318.6 232.8,317.3 233.6,316.1 
		234.3,314.8 234.8,313.4 235.4,312.1 236,310.7 	"/>
	<polygon class="st2" points="367.4,339.3 367.7,339.3 367.8,339.3 368.1,339.3 370.4,339.3 372.6,339.1 374.8,338.9 377,338.4 
		379.2,337.9 381.3,337.3 383.4,336.5 385.5,335.8 387.4,334.9 389.3,333.9 391.2,332.8 393.1,331.6 394.8,330.4 396.5,329.1 
		398.2,327.7 399.8,326.1 396.3,337.2 426.6,337.2 452.8,256.5 422,256.5 407.9,300.3 407.7,300.9 407.2,302.8 406.6,304.2 
		405.9,305.6 405.2,306.8 404.3,308 403.4,309.2 402.3,310.2 401.3,311.3 400.1,312.1 398.9,313 397.6,313.7 396.3,314.3 
		394.8,314.9 393.4,315.3 392,315.7 390.5,315.9 388.9,316.1 388.2,316 387.5,315.8 386.9,315.6 386.2,315.3 385.6,315.1 
		385.1,314.7 384.6,314.3 384.1,313.8 383.6,313.2 383.3,312.8 383,312.1 382.7,311.5 382.4,310.9 382.3,310.1 382.2,309.4 
		382.1,308.7 382.3,307.5 382.6,306.2 398.5,256.5 367.9,256.5 349.6,313.2 349.3,314.1 349.1,315.1 349,315.9 348.9,316.9 
		348.6,318 348.4,319.1 348.2,320.2 348.2,321.3 348.3,323.1 348.6,324.8 349,326.5 349.5,328.1 350.2,329.6 351,331.1 352.1,332.5 
		353.1,333.7 354.4,334.9 355.7,335.9 357.1,336.9 358.6,337.6 360.2,338.2 361.8,338.6 363.5,339 365.3,339.1 366.1,339.3 
		367,339.3 367.3,339.3 	"/>
	<polygon class="st2" points="327.6,256.5 327.5,256.5 327.2,256.5 324.9,256.5 322.6,256.8 320.4,257 318.1,257.4 316,257.9 
		313.9,258.5 311.8,259.2 309.7,260.1 307.7,261 305.8,261.9 303.9,263.1 302.1,264.3 300.3,265.6 298.7,266.9 297.1,268.4 
		295.6,269.9 308.8,227.7 278.1,227.7 242.7,339.3 273.3,339.3 287.2,295.5 287.3,295.2 287.3,295 288,293 288.6,291.6 289.3,290.3 
		290.1,289.1 291,287.8 291.8,286.7 292.8,285.7 294,284.7 295.1,283.8 296.3,282.9 297.6,282.2 298.9,281.6 300.2,281 301.6,280.5 
		303.2,280.2 304.7,279.9 306.2,279.8 307,279.9 307.6,280.1 308.3,280.2 308.9,280.5 309.5,280.9 310.1,281.3 310.7,281.7 
		311.1,282.2 311.6,282.7 312,283.2 312.3,283.9 312.6,284.4 312.8,285.1 313,285.7 313.1,286.4 313.1,287.1 313,288.4 312.7,289.7 
		296.6,339.3 327.5,339.3 345.6,282.7 345.9,281.9 346.2,281 346.4,280.1 346.5,279.1 346.8,278.1 347,276.9 347,275.7 347.2,274.6 
		347,272.8 346.8,271 346.4,269.4 345.8,267.7 345.1,266.2 344.2,264.8 343.2,263.4 342,262.2 340.9,261 339.6,260 338.2,259.1 
		336.6,258.3 335,257.7 333.4,257.2 331.7,256.8 329.9,256.6 329,256.6 328.3,256.5 327.9,256.5 	"/>
	<path class="st2" d="M189.9,374.2V357H184v-3.5h16v3.5h-6v17.2H189.9z M236.2,366.6l4.2,1.2l-0.2,0.9l-0.4,0.8l-0.3,0.6l-0.4,0.7
		l-0.5,0.7l-0.5,0.5l-0.5,0.5l-0.6,0.5l-0.6,0.4l-0.7,0.4l-0.7,0.3l-0.7,0.2l-0.7,0.2h-0.7h-0.7h-2h-1l-0.9-0.3l-1-0.3l-0.9-0.4
		l-0.9-0.5l-0.8-0.6l-0.6-0.6l-0.7-0.8l-0.6-0.9l-0.5-1l-0.5-0.9l-0.3-1.1l-0.2-1.1l-0.2-1v-1v-1.1v-1.1l0.2-1.1l0.4-1l0.4-1l0.5-1
		l0.6-0.9l0.7-0.7l0.7-0.7l0.7-0.6l0.9-0.5l0.9-0.5l1-0.3l1-0.2l1-0.2h2.1h0.9l1,0.2l0.7,0.3l0.9,0.2l0.7,0.4l0.8,0.5l0.6,0.5
		l0.8,0.7l0.6,0.9l0.5,1l0.5,1.1l-4.4,1.1l-0.2-0.7l-0.4-0.7l-0.5-0.7l-0.6-0.5l-0.7-0.4l-0.7-0.3l-0.7-0.2h-0.9h-0.6h-0.6l-0.6,0.2
		l-0.5,0.2l-0.5,0.2l-0.5,0.3l-0.4,0.3l-0.4,0.5l-0.5,0.6l-0.4,0.6l-0.3,0.7l-0.3,0.8l-0.2,0.6l-0.2,0.7v0.8v1.5v0.8l0.2,0.7
		l0.2,0.7l0.3,0.7l0.3,0.6l0.4,0.6l0.5,0.5l0.4,0.4l0.4,0.4l0.5,0.3l0.5,0.2l0.5,0.2l0.5,0.2h0.6h0.6h0.9l0.8-0.2l0.7-0.3l0.7-0.5
		l0.6-0.6l0.5-0.8l0.4-0.9L236.2,366.6z M291.4,364v1.3l0.3,1.2l0.2,0.7l0.3,0.6l0.3,0.6l0.4,0.5l0.4,0.5l0.5,0.5l0.5,0.4l0.5,0.3
		l0.7,0.3l0.6,0.2h0.8h0.6h0.7h0.7l0.7-0.2l0.6-0.3l0.6-0.3l0.5-0.4l0.4-0.5l0.4-0.5l0.4-0.6l0.3-0.6l0.3-0.6l0.2-0.6l0.3-1.3v-1.3
		v-1.3l-0.3-1.2l-0.2-0.7l-0.3-0.6l-0.3-0.5l-0.3-0.6l-0.5-0.5l-0.4-0.4l-0.5-0.4l-0.6-0.3l-0.6-0.3l-0.7-0.2h-0.7h-0.7h-0.8h-0.7
		l-0.7,0.2l-0.6,0.3l-0.6,0.3l-0.5,0.4l-0.4,0.5l-0.5,0.5l-0.3,0.5l-0.3,0.6l-0.3,0.6l0.1,0.4l-0.3,1.3L291.4,364z M287.3,364v-0.7
		v-0.8v-0.7l0.2-0.8l0.5-1.5l0.7-1.4l0.5-0.7l0.4-0.6l0.5-0.6l0.6-0.6l0.5-0.5l0.7-0.5l0.6-0.4l0.7-0.4l1-0.3l1-0.3l1.1-0.2h2.4
		l1,0.2l1,0.3l1,0.3l0.9,0.4l0.9,0.6l0.8,0.6l0.7,0.8l0.6,0.7l0.6,0.7l0.5,0.9l0.4,1l0.4,1.1l0.2,1l0.2,1v2.2l-0.2,1l-0.2,1l-0.4,1
		l-0.4,1l-0.5,0.9l-0.6,0.9l-0.6,0.8l-0.7,0.7l-0.8,0.6l-0.9,0.6l-0.9,0.5l-1,0.3l-1,0.3l-1,0.2h-2.2l-1.1-0.2l-0.9-0.3l-1-0.3
		l-1-0.5l-0.9-0.5l-0.7-0.7l-0.7-0.7l-0.7-0.8l-0.6-0.8l-0.5-0.9l-0.4-0.9l-0.4-1l-0.2-1l-0.2-1.1L287.3,364z M310.8,374.2v-20.5
		h4.1v17h9.1v3.5L310.8,374.2z M375.8,374.2v-8.7l-7.3-12h4.7l4.7,8.2l4.7-8.2h4.7l-7.3,12v8.6H375.8z M203.9,374.2v-20.7h14.9v3.5
		H208v4.5H218v3.5H208v5.6h11.2v3.5L203.9,374.2z M244.4,374.2v-20.7h4.1v8.2h9.2v-8.2h4v20.7h-4v-9h-9.2v9H244.4z M266.5,374.2
		v-20.7h3.5l9.5,13.9v-13.9h3.8v20.7h-3.7l-9.3-13.3v13.3H266.5z M329.3,363.8v1.3l0.3,1.2l0.2,0.7l0.3,0.6l0.3,0.6l0.4,0.5l0.4,0.5
		l0.5,0.5l0.5,0.4l0.6,0.3l0.6,0.3l0.6,0.2h0.8h0.7h0.8h0.7l0.6-0.2l0.6-0.3l0.6-0.3l0.5-0.4l0.4-0.5l0.5-0.5l0.3-0.6l0.3-0.6
		l0.3-0.6l0.2-0.6l0.3-1.3v-1.3v-1.3l-0.3-1.2l-0.2-0.7l-0.3-0.6l-0.3-0.5l-0.3-0.6l-0.4-0.5l-0.5-0.4l-0.5-0.4l-0.6-0.3l-0.6-0.3
		l-0.6-0.2h-0.7h-0.8h-0.8h-0.7l-0.7,0.2l-0.6,0.3l-0.5,0.3l-0.6,0.4l-0.4,0.5l-0.4,0.5l-0.4,0.5L330,360l-0.3,0.6l-0.2,0.6
		l-0.3,1.3L329.3,363.8z M325.1,363.8v-0.7v-0.8l0.2-0.7v-0.8l0.6-1.5l0.7-1.4l0.4-0.7l0.4-0.6l0.5-0.6l0.6-0.6l0.6-0.5l0.6-0.5
		l0.7-0.4l0.6-0.4l1-0.3l1-0.3l1-0.2h2.4l1,0.2l1,0.3l1,0.3l0.8,0.4l0.9,0.6l0.8,0.6l0.7,0.8l0.6,0.7l0.6,0.7l0.5,0.9l0.5,1l0.3,1.1
		l0.2,1l0.2,1v2.2l-0.2,1l-0.2,1l-0.3,1l-0.5,1l-0.5,0.9l-0.5,0.9l-0.7,0.8l-0.7,0.7l-0.9,0.6l-0.7,0.6l-0.9,0.5l-1,0.3l-1,0.3
		l-1,0.2h-2.2l-1-0.2l-1-0.3l-0.9-0.3l-1-0.5l-0.9-0.5l-0.8-0.7l-0.7-0.7l-0.6-0.8l-0.6-0.8l-0.5-0.9l-0.4-0.9l-0.3-1l-0.3-1V365
		L325.1,363.8z M358.7,366.5V363h8.7v11.1h-3.2v-1.2l-1.2,0.6l-1.3,0.5l-0.7,0.2h-0.7h-0.7h-0.7h-1.6l-1.4-0.2l-0.7-0.2l-0.7-0.3
		l-0.6-0.3l-0.6-0.3l-0.6-0.4l-0.6-0.4l-0.5-0.3l-0.5-0.5l-0.4-0.6l-0.4-0.5l-0.4-0.6l-0.3-0.6l-0.6-1.2l-0.4-1.4l-0.2-1.3v-1.5V362
		l0.3-1.5l0.4-1.4l0.6-1.3l0.3-0.6l0.4-0.6l0.4-0.6l0.5-0.5l0.5-0.5l0.6-0.5l0.6-0.4l0.7-0.3l0.9-0.5l1.1-0.4l1.3-0.2h2.3h0.9h0.7
		l0.8,0.2l0.7,0.2l0.7,0.2l0.6,0.4l0.6,0.4l0.5,0.4l0.5,0.5l0.4,0.4l0.4,0.6l0.3,0.6l0.3,0.6l0.2,0.7l0.2,0.8l-3.4,0.7l-0.3-0.8
		l-0.4-0.6l-0.5-0.6l-0.6-0.5l-0.7-0.4l-0.8-0.3l-0.9-0.2H358h-0.6l-0.7,0.2l-0.6,0.2l-0.6,0.3l-0.5,0.3l-0.5,0.4l-0.4,0.4l-0.5,0.6
		l-0.3,0.6l-0.3,0.6l-0.2,0.6l-0.2,0.8v0.7v0.7v1.6v0.8v0.6l0.2,0.7l0.2,0.7l0.3,0.6l0.4,0.6l0.4,0.6l0.4,0.4l0.5,0.4l0.5,0.3
		l0.6,0.3l0.6,0.2l0.7,0.2h0.6h0.6h1h0.9h0.8l0.7-0.2l0.6-0.3l0.6-0.3l0.5-0.4l0.6-0.4v-2.7L358.7,366.5z"/>
	<path class="st2" d="M134.7,290l3-0.7l2.7-0.6l2.1-0.6l1.6-0.4l2.8-0.7l2.9-0.7l3-0.9l2.9-1l0.4-0.9l0.4-0.9l0.3-0.9l0.2-1v-0.9v-1
		v-1v-1l-1-0.5l-1-0.5l-1.2-0.2l-1-0.4l-1.1-0.4l-0.9-0.2l-0.9-0.3h-1h-1.6h-1.7l-1.6,0.2l-1.5,0.3l-1.5,0.4l-1.5,0.5l-1.4,0.6
		l-1.2,0.6l-1,0.7l-1,0.6l-1.2,1.1l-1.4,1.2l-1.2,1.5l-1.2,1.7l-29-3.1l1.1-1.8l1.1-1.7l1.1-1.5l1.1-1.4l1.2-1.3l1-1.2l1.1-1.1
		l1.2-1l1.1-1.1l1.3-1.1l1.2-1l1.3-1l1.4-0.9l1.4-1l1.4-0.9l1.5-0.8l1.5-0.9l1.6-0.6l1.6-0.7l1.6-0.6l1.7-0.6l1.8-0.6l1.8-0.4
		l1.8-0.4l2-0.4l2-0.2l2-0.3l2-0.2h2.1h2h6.9h2.7h2.7l2.7,0.2l2.5,0.2l2.4,0.3l2.2,0.3l1.9,0.3l2,0.4l1.9,0.5l1.8,0.6l1.7,0.8
		l1.6,0.9l1.5,1.1l1.4,1.1l1.3,1.4l1.2,1.4l1,1.5l1,1.7l0.7,1.7l0.7,1.8l0.4,1.9l0.3,2v2v1.1v1.6v1l-0.2,0.9l-0.2,0.9l-0.3,1
		l-1.1,3.4l-1.5,3.7l-1.4,4.5l-1.7,5.3l-1.9,5.9l-2.2,6.7l-2.4,7.5l-2.7,8.4l-0.3,1v1v0.9v1v0.9l0.2,0.9l0.2,0.7l0.3,0.7h-29.5v-0.2
		l-0.4-0.7l-0.3-0.7l-0.3-0.6l-0.2-0.7l-0.3-1.5v-2.5v-0.9l0.2-0.9l0.3-0.9l-2.1,1.7l-2.1,1.4l-2.1,1.2l-2.1,1.1l-1.4,0.7l-1.4,0.7
		l-1.2,0.6l-1.3,0.5l-2.2,0.9l-2.3,0.8l-2.4,0.6l-2.5,0.5l-2.7,0.5l-2.7,0.3h-2.7h-4.6h-1.9l-1.8-0.2l-1.6-0.2l-1.4-0.3l-1.4-0.3
		l-1.2-0.4l-1.1-0.5l-1-0.4l-1-0.6l-0.9-0.6l-0.9-0.7l-0.9-0.7l-0.7-0.8l-0.7-0.7l-0.7-0.8l-0.6-0.9l-0.6-0.8l-0.5-0.8l-0.5-0.9
		l-0.4-0.9l-0.3-1l-0.3-1l-0.3-1l-0.2-1v-1v-1v-1v-1.1l0.2-1.1l0.2-1.1l0.3-1.2l0.4-1.2l0.4-1.2l0.5-1.1l0.5-1.1l0.6-1l0.5-0.9
		l0.7-1l0.6-0.9l1.4-1.7l1.5-1.6l1.6-1.5l1.7-1.5l2-1.4l2.3-1.2l2.4-1.2l2.7-1.1l3-1l3.2-1l3.4-0.9l3.7-0.7l2.1-0.4l2.4-0.5l1.9-0.4
		l1.9-0.3l1.8-0.4l1.7-0.3l1.5-0.3L134.7,290z M151,299.7l-1.7,0.6l-1.8,0.5l-1.7,0.6l-1.8,0.5l-1.8,0.4l-1.7,0.5l-1.8,0.5l-1.8,0.4
		l-1.1,0.3l-1,0.3l-3.9,1.1l-3.2,1l-1.3,0.6l-1.2,0.5l-1.1,0.6l-0.9,0.5l-0.7,0.6l-0.7,0.6l-0.6,0.7l-0.7,0.7l-0.5,0.8l-0.5,0.7
		L119,313l-0.3,0.7l-0.3,0.9l-0.2,0.9v0.8v0.8l0.2,0.7l0.3,0.7l0.4,0.7l0.4,0.6l0.7,0.7l0.6,0.6l0.7,0.4l0.7,0.3l0.9,0.2l0.9,0.2
		h1.1h1.1l2.1-0.2l2.2-0.4l1-0.2l1-0.3l1.1-0.3l1-0.4l1-0.4l1-0.5l1.2-0.7l1.2-0.7l1.1-0.7l0.9-0.8l0.9-0.9l1-0.7l0.7-0.9l0.7-0.9
		l0.8-0.9l0.8-1l0.6-1l0.7-1.1l0.6-1.1l0.6-1.2l0.6-1.2l0.5-1.3L151,299.7z"/>
	<path class="st2" d="M496.2,290l2.9-0.6l2.5-0.6l2.1-0.6l1.7-0.4l2.8-0.7l2.8-0.7l2.8-0.9l3-1l0.4-0.9l0.4-0.9l0.3-0.9l0.2-1v-0.9
		v-2v-0.9l-1-0.5l-1-0.5l-1-0.4l-1.1-0.4L512,275l-1.8-0.4h-1.7h-1.6l-1.6,0.2l-1.6,0.3l-1.5,0.4l-1.4,0.5l-1.4,0.6l-1.3,0.6l-1,0.7
		l-0.8,0.6l-1.4,1.1l-1.2,1.2l-1.2,1.5l-1.3,1.7l-28.8-3.3l1.1-1.8l1.1-1.7l1-1.5l1.1-1.4l1.1-1.3l1.1-1.3l1.1-1.1l1.1-1l1.2-1.1
		l1.3-1l1.3-1l1.3-1l1.4-0.9l1.4-0.9l1.4-0.9l1.5-0.9l1.5-0.8l1.5-0.6l1.7-0.7l1.6-0.6l1.7-0.6l1.8-0.5l1.7-0.5l1.9-0.4l2-0.4l2-0.3
		l2-0.2l2-0.2h2.1h2h6.9h2.7h2.7l2.7,0.2l2.5,0.2l2.3,0.3l2.2,0.3l2,0.3l2,0.4l1.8,0.5l1.8,0.6l1.8,0.8l1.6,0.9l1.5,1.1l1.4,1.1
		l1.4,1.4l1.2,1.4l1,1.5l0.9,1.7l0.7,1.7l0.6,1.8l0.5,1.9l0.3,2v2v1.1v1.6l-0.4,1.9l-0.5,1.8L548,288l-1.2,4l-1.4,4.5l-1.6,5.3
		l-1.9,5.9l-2.1,6.7l-2.4,7.5l-2.7,8.4l-0.2,0.9v0.9v1v1l0.2,0.9v0.9l0.3,0.9l0.3,0.7h-29.9v-0.2l-0.4-0.7l-0.3-0.7l-0.3-0.6
		l-0.2-0.7l-0.3-1.5v-1.5v-1v-0.9l0.2-0.9l0.3-0.9l-2.1,1.7l-2.1,1.4l-2.2,1.2l-2,1.1l-1.4,0.7l-1.3,0.7l-1.2,0.6l-1.3,0.5l-2.3,0.9
		l-2.3,0.6l-2.4,0.6l-2.7,0.5l-2.7,0.5l-2.7,0.3h-2.7h-4.6h-1.8l-1.8-0.2l-1.6-0.2l-1.5-0.3l-1.3-0.3l-1.2-0.4l-1.1-0.5l-1.2-0.4
		l-0.9-0.6l-1-0.6l-0.9-0.7l-0.7-0.7l-0.8-0.8l-0.6-0.7l-0.8-0.8l-0.6-0.9l-0.5-0.8l-0.5-0.8l-0.5-0.9l-0.4-0.9l-0.4-1l-0.3-1
		l-0.2-1l-0.2-1v-1v-1v-1v-1.1v-1.1l0.3-1.1l0.2-1.2l0.4-1.2l0.5-1.2l0.5-1.1l0.5-1.1l0.5-1l0.6-0.9l0.6-1l0.7-0.9l1.4-1.7l1.4-1.6
		l1.6-1.5l1.8-1.5l2-1.4l2.2-1.2l2.5-1.3l2.7-1.1l2.9-1l3.1-1l3.5-0.9l3.7-0.7l2.1-0.4l2-0.4l2-0.4l1.9-0.3l1.7-0.4l1.7-0.3l1.6-0.3
		L496.2,290z M512.5,299.7l-1.7,0.6l-1.8,0.5l-1.8,0.6l-1.7,0.5l-1.8,0.4l-1.8,0.5l-1.8,0.5l-1.8,0.4l-1.1,0.3l-0.9,0.3l-4,1.1
		l-3.1,1l-1.4,0.6l-1.1,0.5l-1,0.6l-0.9,0.5l-0.8,0.6l-0.7,0.6l-0.7,0.7l-0.6,0.7l-0.6,0.8l-0.5,0.7l-0.4,0.8l-0.3,0.7l-0.3,0.9
		l-0.2,0.9v0.8v0.8l0.2,0.7l0.3,0.7l0.4,0.7l0.4,0.6l0.6,0.7l0.7,0.6l0.7,0.5l0.7,0.3l0.9,0.3l0.9,0.2h2.3l2.1-0.2l2-0.4l2-0.5
		l1.8-0.6l1.9-0.8l1.7-0.9l1.6-1l1.6-1l1.4-1.2l1.4-1.3l1.2-1.4l1.2-1.5l1-1.6l1-1.7l0.7-1.8l0.7-1.8L512.5,299.7z"/>
</g>
</svg>
