<svg xmlns="http://www.w3.org/2000/svg" id="Logos" viewBox="0 0 600 600"><defs><style>.cls-1{fill:#009845;}.cls-2{fill:#fff;fill-rule:evenodd;}</style></defs><rect class="cls-1" width="600" height="600"></rect><path class="cls-2" d="M106.92,246.24c-11.43-5.08-18.29-6.86-24.9-6.86-7.11,0-11.68,2.54-11.68,6.36,0,11.94,40.14,8.63,40.14,36.07,0,15-12.71,23.89-30.23,23.89-14,0-20.84-3.56-28.46-7.63v-17c11.18,7.63,18,10.16,26.93,10.16,7.62,0,11.69-2.53,11.69-7.36,0-12.71-40.4-8.14-40.4-36.33,0-13.73,11.94-22.62,30.24-22.62,8.89,0,16.76,1.78,26.67,6.1v15.22Z"></path><path class="cls-2" d="M163.32,302.14c-6.85,2.29-12.45,3.56-18,3.56-18.8,0-31-10.93-31-27.7,0-16.26,12.7-27.69,30.23-27.69a51.64,51.64,0,0,1,18,3.56v12.45c-4.57-2.29-9.65-3.82-13.72-3.82-10.16,0-16.51,6.1-16.51,15.5s6.35,15.76,16,15.76c4.07,0,7.63-1,15-3.82v12.2Z"></path><path class="cls-2" d="M206.77,295.53V274.19c0-7.87-3.3-11.69-8.64-11.69-3.81,0-7.11,2.55-11.18,8.13v34.05H170.18V225.92H187V259.2h.26c4.83-6.1,10.16-8.89,16.76-8.89,9.92,0,19.57,5.84,19.57,20.32v21.6C218,292.23,211.09,294.23,206.77,295.53Z"></path><path class="cls-2" d="M231.42,291.21V251.32h16.76V259c5.34-6.11,10.67-8.64,17.54-8.64,8.38,0,19.3,4.83,19.3,20.32v34.05H268.25V272.16c0-7.62-3.55-10.67-8.38-10.67-4.07,0-7.12,2.28-11.69,8.89v23.38c-5.59-1.53-11.43-2-16.76-2.55Z"></path><path class="cls-2" d="M319.83,250.31c-16.51,0-28.21,11.69-28.21,28,0,16.51,12.2,27.44,31,27.44,4.32,0,14.23,0,23.88-7.12V288.16c-7.87,5.6-13.21,7.63-19.81,7.63-10.42,0-17-5.59-17.53-15h38.11C348.27,261.23,335.33,250.31,319.83,250.31ZM309.41,271.9c.76-7.36,5.08-11.68,11.69-11.68,6.36,0,10.92,4.57,11.43,11.68Z"></path><polygon class="cls-2" points="353.87 251.33 370.64 251.33 370.64 304.68 353.87 304.68 353.87 251.33 353.87 251.33"></polygon><path class="cls-2" d="M417.14,225.92v27.69a32.18,32.18,0,0,0-13.72-3.3c-15.25,0-25.92,11.18-25.92,27.69,0,16,10.67,27.7,24.9,27.7a21.61,21.61,0,0,0,14.74-5.34v4.32h16.77V225.92Zm0,64.28c-3.3,3-6.35,4.31-9.91,4.31-7.88,0-13-6.6-13-16.25,0-10.68,5.08-16.77,13.47-16.77a17.29,17.29,0,0,1,9.4,3.05V290.2Z"></path><path class="cls-2" d="M469.22,250.31c-16.52,0-28.2,11.69-28.2,28,0,16.51,12.19,27.44,31,27.44,4.07,0,14.23,0,23.89-7.12V288.16c-7.88,5.6-13.22,7.63-19.82,7.63-10.67,0-17-5.59-17.79-15h38.36c.77-19.56-11.93-30.48-27.43-30.48ZM458.81,271.9c.75-7.36,4.82-11.68,11.43-11.68s10.92,4.57,11.68,11.68Z"></path><path class="cls-2" d="M521.8,266.57h.26c4.82-11.18,10.42-16.26,17-16.26,3.3,0,6.11,1.27,10.93,4.83l-4.57,14.74c-4.32-2.81-7.12-3.82-9.91-3.82-6.1,0-10.17,5.84-13.73,15.5v23.12H505V251.32h16.76v15.25Z"></path><polygon class="cls-2" points="295.81 320.8 275.71 320.8 275.71 335.14 295.06 335.14 295.06 341.28 275.71 341.28 275.71 355.99 296.37 355.99 296.37 362.13 269.01 362.13 269.01 314.66 295.81 314.66 295.81 320.8 295.81 320.8"></polygon><polygon class="cls-2" points="310.11 314.66 316.25 314.66 316.25 362.13 310.11 362.13 310.11 314.66 310.11 314.66"></polygon><path class="cls-2" d="M338.66,347.43h22c0-11.54-5.4-17.13-13.6-17.13-8.55,0-14.51,6.33-14.51,15.82,0,8.57,5.39,16.57,15.07,16.57a21.48,21.48,0,0,0,12.45-3.7v-6c-3.73,2.42-7.26,3.73-11,3.73-5.95,0-9.49-3.17-10.42-9.31Zm8.56-11.92c4.29,0,7.08,3,7.26,7.83H338.85C339.59,338.34,342.39,335.51,347.22,335.51Z"></path><path class="cls-2" d="M397.91,339.05c-3.54-2.42-6-3.16-8.56-3.16-5.77,0-9.5,4.27-9.5,10.6,0,6.52,4.1,10.43,10.43,10.43a21.93,21.93,0,0,0,8.38-2.05v6a27.71,27.71,0,0,1-9.31,1.86c-9.31,0-15.83-6.51-15.83-15.63,0-10.24,6-16.76,15.27-16.76a20.55,20.55,0,0,1,9.12,2.05v6.66Z"></path><path class="cls-2" d="M424.89,330.86h9.87v5.58h-9.87v16a4.31,4.31,0,0,0,3.95,4.64,4.51,4.51,0,0,0,.52,0,14.25,14.25,0,0,0,7.07-2.24v5.77a20.33,20.33,0,0,1-7.64,2.05c-6.7,0-10-4.28-10-9.86V336.44H413.4v-.74l11.54-11.35v6.51Z"></path><path class="cls-2" d="M456.59,330.86v7.26h0c3.17-5.59,6.14-7.82,9.12-7.82,2.42,0,4.84,1.12,7.45,3.54l-3.36,5.4c-1.85-1.86-4.27-3-5.76-3-4.28,0-7.45,4.28-7.45,9.49v16.38h-6.14V330.86Z"></path><path class="cls-2" d="M534.13,339.05c-3.54-2.42-6-3.16-8.57-3.16-5.76,0-9.48,4.27-9.48,10.6,0,6.52,4.09,10.43,10.41,10.43a21.93,21.93,0,0,0,8.38-2.05v6a27.71,27.71,0,0,1-9.31,1.86c-9.31,0-15.82-6.51-15.82-15.63,0-10.24,6-16.76,15.27-16.76a20.55,20.55,0,0,1,9.12,2.05v6.66Z"></path><path class="cls-2" d="M371.4,228.71c1.53,4.32-1.27,10.17-6.35,13-5.08,3-10.41,2-11.94-2s1.27-9.91,6.35-13S369.88,224.71,371.4,228.71Z"></path><polygon class="cls-2" points="488.49 330.86 494.64 330.86 494.64 362.13 488.49 362.13 488.49 330.86 488.49 330.86"></polygon><path class="cls-2" d="M495,319.69c.56,1.49-.56,3.54-2.42,4.66s-3.72.74-4.28-.75.37-3.54,2.24-4.66,3.72-.74,4.46.75Z"></path><path class="cls-2" d="M252.66,328.61c1.88-10.18-.35-19.52-7.18-25.37-13.07-11.2-38-5.5-55.55,12.71a72,72,0,0,0-5.58,6.86h10.12l-2.23,6.88H180c-.18.49-2.43,5.41-2.83,6.19h14L189,342.75H175c-2.29,10.65-.18,20.51,6.91,26.59,13.08,11.21,38,5.5,55.55-12.71a63.93,63.93,0,0,0,6.6-8.08H230.7l2.23-6.88h15.22a52,52,0,0,0,2.66-6.19H233.93l2.23-6.87Zm-21.43-5.74c-2,0-2.75.48-3.17,2.11l-5.49,20.66c-2.08,7.87-12,13.75-20.18,13.75H184.8l2.79-10.76,9.8.1c1.57,0,3.6-1.07,3.94-2.61l4.33-19c1.78-7.84,11.57-14,19.61-14h17.39l-2.3,9.71Z"></path></svg>