<?xml version="1.0" encoding="utf-8"?>
<!-- Generator: Adobe Illustrator 26.3.1, SVG Export Plug-In . SVG Version: 6.00 Build 0)  -->
<svg version="1.1" id="Logos" xmlns="http://www.w3.org/2000/svg" xmlns:xlink="http://www.w3.org/1999/xlink" x="0px" y="0px"
	 viewBox="0 0 600 600" style="enable-background:new 0 0 600 600;" xml:space="preserve">
<style type="text/css">
	.st0{fill-rule:evenodd;clip-rule:evenodd;fill:#FFFFFF;}
	.st1{fill-rule:evenodd;clip-rule:evenodd;fill:#EA5A06;}
</style>
<rect x="0" class="st0" width="600" height="600"/>
<g>
	<path class="st1" d="M100.8,355C70.3,355,50,332.6,50,300.1c0-32.3,21.8-55.1,50.8-55.1c29.7-0.1,50.7,21.9,50.7,55.1
		C151.4,332.5,131.5,355,100.8,355 M100.8,266.8c-18.2,0-25.9,16.9-25.9,33.1c0,16.1,8.3,32.7,25.8,32.7c17.6,0,25.7-16.8,25.7-32.8
		C126.4,283.4,118.8,266.8,100.8,266.8 M243.2,321.5c0.2,20.1-19.1,33.5-42.3,33.5c-46.2,0-43.1-34.4-43.3-37.2H182
		c-1,10.7,9.9,16.6,19.8,16.4c7.3-0.1,16.2-1.4,17.3-11c2.2-19.2-60.1-5.4-60.1-45.3c0-21.2,21.2-32.8,41.8-32.8
		c29.3,0,42.3,17.3,42.3,35.8h-25.2c0,0,1.2-14.8-17.6-14.8c-7.4,0-15.6,2.9-16.5,9.8C181.4,293.9,242.7,280.6,243.2,321.5
		 M318.9,317.1l17.4,35h-26.6l-15.5-33.3h-15.8v33.3h-24.3V247.9h53.1c18.7,0,32.7,15.6,32.7,35.8
		C339.9,299.6,332.7,310.8,318.9,317.1 M303.6,269.9h-25.3V298h24.5c7.1,0,12.3-6.9,12.3-13.9C315.2,277.5,310.9,269.9,303.6,269.9
		 M417.5,352.1l-6.2-18h-40.7l-6.3,18h-25.9l37.8-104.2h29.6l37.7,104.2H417.5z M404,312.3l-13.1-38l-13.1,38H404z M523.8,352.1
		v-55.8l-25,41l-24.9-41v55.8h-26.4V247.9h26.3l24.9,42.4l25-42.4H550v104.2L523.8,352.1L523.8,352.1z"/>
</g>
</svg>
