<?xml version="1.0" encoding="utf-8"?>
<!-- Generator: Adobe Illustrator 26.3.1, SVG Export Plug-In . SVG Version: 6.00 Build 0)  -->
<svg version="1.1" id="Logos" xmlns="http://www.w3.org/2000/svg" xmlns:xlink="http://www.w3.org/1999/xlink" x="0px" y="0px"
	 viewBox="0 0 600 600" style="enable-background:new 0 0 600 600;" xml:space="preserve">
<style type="text/css">
	.st0{fill:#0155A5;}
	.st1{fill-rule:evenodd;clip-rule:evenodd;fill:#FFFFFF;}
</style>
<rect class="st0" width="600" height="600"/>
<g>
	<path class="st1" d="M241.2,268.6c6.8-4.6,14.6-7.5,22.8-7.5h43.1l-5,7.5H241.2L241.2,268.6z"/>
	<path class="st1" d="M226.6,287.5h26.7c-2.5,2.1-5,5.7-5.7,10h49.2l-13.9,22.1h-32.8c4.3,10.3,13.2,16.7,21.4,16.4h34.6l-9.6,20.3
		H264c-23.2,0-41.7-21.4-41.7-47.7C222.3,301.1,223.8,293.9,226.6,287.5L226.6,287.5z"/>
	<polygon class="st1" points="217.4,254 216.3,243.7 183.2,243.7 177.1,254 	"/>
	<polygon class="st1" points="145.7,254 144.3,243.7 112.6,243.7 106.9,254 	"/>
	<polygon class="st1" points="146.1,259.7 103.7,259.7 98.7,268.6 147.2,268.6 	"/>
	<polygon class="st1" points="147.9,274 95.9,274 91.2,281.8 148.6,281.8 	"/>
	<polygon class="st1" points="158.6,287.5 150.7,301.1 149.3,287.2 88,287.2 49.5,356.3 82.7,356.3 118.3,295.7 127.6,356.3 
		153.6,356.3 191.4,293.9 198.8,356.3 228.4,356.3 220.9,287.5 	"/>
	<path class="st1" d="M377.7,268.6l4.6-7.5h-42.8c-8.5,0-16,2.8-22.8,7.5H377.7L377.7,268.6z"/>
	<path class="st1" d="M302.2,287.2c-2.8,6.4-4.6,13.9-4.6,21.4c0,26.4,18.9,47.7,41.7,47.7H372l9.6-20.3H347
		c-9.3,0.4-19.2-7.5-23.2-20c-3.6-11.8-1.1-22.8,5.3-28.9L302.2,287.2L302.2,287.2z"/>
	<path class="st1" d="M387,274h63.4l-5,7.8h-64.8C380.6,281.8,384.5,276.5,387,274L387,274z"/>
	<path class="st1" d="M392.7,268.6c6.8-4.6,14.2-7.5,22.8-7.5h43.1l-5,7.5H392.7L392.7,268.6z"/>
	<path class="st1" d="M377.7,287.5h27.1c-2.5,2.1-5,5.7-6.1,10h49.5l-13.9,22.1h-33.1c4.6,10.3,13.5,16.7,21.7,16.4h34.6l-9.6,20.3
		h-32.8c-22.8,0-41.7-21.4-41.7-47.7C373.4,301.1,374.8,293.9,377.7,287.5L377.7,287.5z"/>
	<path class="st1" d="M465,268.6l0.7-7.8h59.1c6.4,0,12.5,2.5,17.1,7.8H465L465,268.6z"/>
	<path class="st1" d="M462.9,287.2l-7.1,69.1h21.4l4.3-37.4h13.9l27.1,37.4h27.8l-25.7-37.1c1.4,0,3.9,0,5.7,0
		c12.8-1.8,22.1-15.7,20-32.1h-22.4c0,1.1,0,2.5,0,2.5c0,6.4-5,11.4-11,11.4c0,0-21.4,0-33.5,0l2.1-13.9L462.9,287.2L462.9,287.2z"
		/>
	<path class="st1" d="M369.5,281.8l5-7.8h-63.4c-2.5,2.5-4.3,5-6.1,7.8H369.5L369.5,281.8z"/>
	<path class="st1" d="M235.5,274H299l-5,8.2h-64.5C231.3,279.3,233,276.5,235.5,274L235.5,274z"/>
	<polygon class="st1" points="220.6,281.8 219.5,274 166.1,274 161.8,281.8 	"/>
	<path class="st1" d="M549.1,281.8h-85.5l0.7-7.8h81.6C547.3,276.5,548.4,279,549.1,281.8L549.1,281.8z"/>
	<polygon class="st1" points="219.1,268.6 218.1,259.7 174.2,259.7 168.9,268.6 	"/>
</g>
</svg>
