<?xml version="1.0" encoding="utf-8"?>
<!-- Generator: Adobe Illustrator 26.3.1, SVG Export Plug-In . SVG Version: 6.00 Build 0)  -->
<svg version="1.1" id="Layer_1" xmlns="http://www.w3.org/2000/svg" xmlns:xlink="http://www.w3.org/1999/xlink" x="0px" y="0px"
	 viewBox="0 0 600 600" style="enable-background:new 0 0 600 600;" xml:space="preserve">
<style type="text/css">
	.st0{fill:#FFFFFF;}
	.st1{fill:#2175BB;}
</style>
<rect y="0" class="st0" width="600" height="600"/>
<g id="a">
</g>
<path id="path2859" class="st1" d="M235.8,264.8h-21.4v28H192v-28h-21.6v70.5h21.4v-27.7h22.3v27.7h21.4v-70.5H235.8z M310.5,321.1
	v-56.2h-21.4v70.5h38.8l3.2-14.2C331.1,321.1,310.5,321.1,310.5,321.1z M273.1,264.8h-21.4v70.5h21.4V264.8z M360.2,264.8h-21.4
	v70.5h21.4V264.8z M466.3,282.8c0-3.9,3.9-5.6,10-5.6c6.8,0,14.2,1.5,19.1,3.5l-1.7-15.3c-5.6-1.2-10.6-2-19.7-2
	c-17.4,0-29.2,6.9-29.2,21.2c0,24.7,33.6,19.8,33.6,31.2c0,4.4-3.3,6.8-11.2,6.8c-7.1,0-17.9-2.3-24.4-5.6l2.4,16.2
	c6.5,2.3,15.3,3.5,22.3,3.5c17.9,0,32.7-5.9,32.7-23.6C500.1,289.6,466.3,294.1,466.3,282.8 M405.6,318.5c20,0,32.7-10.4,32.7-28.2
	c0-19.8-13.6-26.9-35.6-26.9c-8.5,0-18.8,0.6-26.2,1.5v70.5h21.5v-16.8L405.6,318.5L405.6,318.5z M417.1,290.5
	c0,9.1-4.4,15.3-15.6,15.3H398v-29.1c1.3-0.1,2.4-0.1,3.5-0.1C412,276.7,417.1,281.7,417.1,290.5 M129.2,318.5
	c20,0,32.7-10.4,32.7-28.2c0-19.8-13.6-26.9-35.6-26.9c-8.5,0-18.9,0.6-26.3,1.5v70.5h21.4v-16.8L129.2,318.5L129.2,318.5z
	 M140.6,290.5c0,9.1-4.4,15.3-15.6,15.3h-3.6v-29.1c1.3-0.1,2.4-0.1,3.5-0.1C135.6,276.7,140.6,281.7,140.6,290.5"/>
</svg>
