<?xml version="1.0" encoding="utf-8"?>
<!-- Generator: Adobe Illustrator 26.3.1, SVG Export Plug-In . SVG Version: 6.00 Build 0)  -->
<svg version="1.1" id="Logos" xmlns="http://www.w3.org/2000/svg" xmlns:xlink="http://www.w3.org/1999/xlink" x="0px" y="0px"
	 viewBox="0 0 600 600" style="enable-background:new 0 0 600 600;" xml:space="preserve">
<style type="text/css">
	.st0{fill:#FFFFFF;}
	.st1{fill:#05569D;}
	.st2{fill:#03A9E7;}
</style>
<rect class="st0" width="600" height="600"/>
<g>
	<rect x="307.5" y="178.8" class="st1" width="242.5" height="242.5"/>
	<polygon class="st2" points="280.5,393.7 280.5,409.3 61.9,409.3 61.9,190.7 280.5,190.7 280.5,319.6 292.5,319.6 292.5,178.8 
		50,178.8 50,421.2 292.5,421.2 292.5,393.7 	"/>
	<g>
		<path class="st2" d="M208.3,330.3H245v9.5h-24.6v12.6h22.7v8.9h-22.7v13.4h25.8v9.5h-37.9V330.3z"/>
		<path class="st2" d="M267.3,339.8h-14.5v-9.5h41.3v9.5h-14.5v44.3h-12.3V339.8z"/>
	</g>
	<g>
		<path class="st0" d="M397.2,331.3h13.7l19.8,34.3v-34.3h10.5v52h-11.8l-21.7-37v37h-10.5V331.3z"/>
		<path class="st0" d="M445.4,334.3c0-3.3,2.6-5.7,6-5.7c3.4,0,6,2.5,6,5.7c0,3.3-2.6,5.7-6,5.7C448,340.1,445.4,337.6,445.4,334.3z
			 M446.2,345.3h10.5v38.1h-10.5V345.3z"/>
		<path class="st0" d="M459.6,364.8v-0.6c0-12.3,8.8-19.8,19.6-19.8c8.8,0,17,3.9,17.9,14.8h-10c-0.7-4.4-3.4-6.5-7.7-6.5
			c-5.5,0-9.1,4.1-9.1,11.4v0.6c0,7.6,3.4,11.6,9.3,11.6c4.2,0,7.6-2.5,8.1-7.3h9.5c-0.6,9-7.1,15.3-18.2,15.3
			C468,384.1,459.6,377.2,459.6,364.8z"/>
		<path class="st0" d="M497.2,364.8v-0.6c0-12,8.5-19.8,19.6-19.8c9.8,0,18.6,5.7,18.6,19.4v2.9h-27.4c0.3,6.3,3.7,10,9.5,10
			c4.9,0,7.3-2.1,7.9-5.3h10c-1.2,8.2-7.8,12.8-18.2,12.8C505.6,384.1,497.2,376.9,497.2,364.8z M525.1,360.2
			c-0.4-5.7-3.3-8.5-8.3-8.5c-4.7,0-7.9,3.1-8.7,8.5H525.1z"/>
	</g>
</g>
</svg>
