<?xml version="1.0" encoding="utf-8"?>
<!-- Generator: Adobe Illustrator 26.3.1, SVG Export Plug-In . SVG Version: 6.00 Build 0)  -->
<svg version="1.1" id="Logos" xmlns="http://www.w3.org/2000/svg" xmlns:xlink="http://www.w3.org/1999/xlink" x="0px" y="0px"
	 viewBox="0 0 600 600" style="enable-background:new 0 0 600 600;" xml:space="preserve">
<style type="text/css">
	.st0{fill:#FFFFFF;}
	.st1{fill:#2A5491;}
	.st2{fill:#59A441;}
</style>
<rect class="st0" width="600" height="600"/>
<g>
	<g>
		<circle class="st1" cx="181.5" cy="242.9" r="34.2"/>
		<g>
			<path class="st1" d="M108.9,434.3c-24-36.8-2.3-96.8,49.8-155.9L145.3,265C70.9,337.4,35.7,413.4,63.9,455.8
				c30.2,45.3,123.7,38.5,227.2-10.6C207.6,476.2,134.9,474.3,108.9,434.3z"/>
		</g>
		<g>
			<path class="st1" d="M222.9,225.3c10.3-9.5,21.2-18.8,32.7-27.9c52.7-41.5,107.9-70.1,156.1-83.6c-53.3,11.7-116.2,39-177.8,80.1
				c-8.6,5.7-16.9,11.6-25,17.5L222.9,225.3z"/>
		</g>
	</g>
	<g>
		<g>
			<path class="st2" d="M227.5,272.4h-7.8c-28,0-50.7,22.7-50.7,50.7v48.8h46.1v-50.1c0-4.7,3.8-8.4,8.4-8.4l0,0
				c4.7,0,8.4,3.8,8.4,8.4v50.1h46.1v-48.8C278.2,295.1,255.5,272.4,227.5,272.4z"/>
			<path class="st2" d="M491.5,375.7h7.8c28,0,50.7-22.7,50.7-50.7v-47.9h-46.1v49.2c0,4.7-3.8,8.4-8.4,8.4l0,0
				c-4.7,0-8.4-3.8-8.4-8.4v-49.2h-46.1V325C440.9,353,463.6,375.7,491.5,375.7z"/>
			<path class="st2" d="M361.7,272.4c-34.7,0-62.8,22.5-62.8,50.2s28.1,50.2,62.8,50.2c14.3,0,27.4-3.8,38-10.3L374.9,338
				c-3.3,3.4-7.7,5.4-12.5,5.4c-10.3,0-18.6-9.4-18.6-21c0-11.6,8.3-21,18.6-21c7,0,13.1,4.4,16.3,10.8h-21.3c-2,0-3.7,1.7-3.7,3.7
				v9.7c0,2,1.7,3.7,3.7,3.7H380h26.4h17.5c0.4-2.2,0.6-4.5,0.6-6.8C424.5,294.9,396.4,272.4,361.7,272.4z"/>
		</g>
		<path class="st2" d="M76.8,219.6c22.9-63.1,128.8-82.5,236.6-43.4c53.7,19.5,97.8,49.8,125.6,83.2
			c-22.9-45.2-77.7-89.1-149.1-113.6c-108.5-37.3-214.1-15.8-236,47.8c-12,35,3.8,75.5,38.5,111.1C73.8,275.9,67.2,246,76.8,219.6z"
			/>
	</g>
</g>
</svg>
