<?xml version="1.0" encoding="utf-8"?>
<!-- Generator: Adobe Illustrator 26.3.1, SVG Export Plug-In . SVG Version: 6.00 Build 0)  -->
<svg version="1.1" id="Logos" xmlns="http://www.w3.org/2000/svg" xmlns:xlink="http://www.w3.org/1999/xlink" x="0px" y="0px"
	 viewBox="0 0 600 600" style="enable-background:new 0 0 600 600;" xml:space="preserve">
<style type="text/css">
	.st0{fill:#FFFFFF;}
	.st1{fill:#D71F27;}
</style>
<rect class="st0" width="600" height="600"/>
<g>
	<path class="st1" d="M50,323.6c0.2-1.5,0.3-3,0.6-4.5c1.4-8.2,5.3-14.8,12.8-18.9c0.1,0,0.1-0.1,0.1-0.1c-1.5-1.2-3-2.2-4.3-3.5
		c-4.4-4.2-6.6-9.4-7.4-15.3c-0.7-5.3-0.3-10.6,2-15.6c3.1-6.9,8.5-11.5,15.4-14.4c5.2-2.2,10.7-3.2,16.3-3.2c10.4,0,20.7,0,31.1,0
		c0.3,0,0.6,0,1,0c0,7.8,0,15.5,0,23.3c-0.4,0-0.8,0-1.2,0c-7.9,0-15.8,0-23.7,0c-1.5,0-3,0.2-4.5,0.6c-3.8,1-6.1,3.8-6.3,7.4
		c-0.2,3.7,1.9,7.1,5.5,8.4c1.7,0.6,3.6,0.9,5.5,0.9c5.6,0.1,11.3,0,16.9,0c2.2,0,4.4-0.1,6.6-0.1c0.3,0,0.6,0,1,0
		c0,7.6,0,15.1,0,22.7c-0.4,0-0.8,0-1.2,0c-7.6,0-15.2,0-22.9,0c-0.9,0-1.8,0.1-2.7,0.2c-5.6,1.2-8.6,6.9-6.5,12.2
		c1.3,3.1,3.9,4.4,7,4.9c1,0.2,2.1,0.2,3.2,0.2c7.4,0,14.9,0,22.3,0c0.4,0,0.8,0,1.2,0c0,7.6,0,15.1,0,22.7c-0.4,0-0.7,0-1.1,0
		c-12.4,0-24.8,0.1-37.2,0c-8.9-0.1-16.8-3.1-23-9.7c-3.8-4-5.8-9-6.2-14.5c0-0.3-0.1-0.7-0.2-1C50,325.5,50,324.6,50,323.6z"/>
	<path class="st1" d="M326.1,351.8c-0.4,0-0.7,0-1,0c-12.4,0-24.8,0.1-37.1,0c-8.5-0.1-16.2-2.9-22.3-9c-4.4-4.3-6.6-9.7-7-15.8
		c-0.3-6.1,0.7-12,3.8-17.4c2.2-3.9,5.3-6.9,9.2-9.1c0.1-0.1,0.2-0.1,0.3-0.2c0,0,0.1-0.1,0.1-0.1c-1.5-1.2-3-2.2-4.3-3.5
		c-4.5-4.3-6.7-9.7-7.5-15.8c-0.6-5-0.2-9.9,1.8-14.5c3-7.2,8.5-11.9,15.5-14.9c5.3-2.3,10.8-3.2,16.5-3.2c10.3,0,20.6,0,30.9,0
		c1,0,1.2,0.2,1.2,1.2c0,7,0,14,0,21c0,0.3,0,0.7,0,1.2c-0.5,0-0.9,0-1.2,0c-7.9,0-15.9,0-23.8,0c-1.6,0-3.3,0.3-4.9,0.8
		c-3.5,1-5.6,3.7-5.8,7.2c-0.2,3.6,1.4,6.2,4.5,8c2,1.1,4.2,1.3,6.4,1.3c5.5,0,10.9,0,16.4,0c2.3,0,4.6-0.1,6.9-0.1
		c0.3,0,0.7,0,1.1,0c0,7.6,0,15.1,0,22.7c-0.4,0-0.8,0.1-1.2,0.1c-7.6,0-15.2,0-22.9,0c-1.1,0-2.1,0.1-3.1,0.3
		c-3.4,0.8-5.5,3-6.3,6.3c-0.8,3.2-0.3,6.1,2.2,8.4c2.1,2,4.9,2.4,7.6,2.4c7.6,0,15.2,0,22.9,0c0.4,0,0.8,0,1.2,0
		C326.1,336.6,326.1,344.1,326.1,351.8z"/>
	<path class="st1" d="M383,274.8c-1.8-0.4-3.6-0.8-5.3-1c-4-0.6-8-1.1-12.1-0.1c-2.6,0.6-4.8,1.9-5.7,4.7c-0.6,1.9-0.3,3.8,0.6,5.6
		c1.5,2.9,3.7,5.2,5.9,7.5c3.4,3.6,7,6.9,9.8,11c5,7.4,7.9,15.4,7.5,24.4c-0.3,7-2.6,13.3-7.4,18.5c-3.9,4.1-8.8,6.4-14.2,7.6
		c-8,1.7-16,1.2-23.9-0.5c-1.1-0.2-2.3-0.5-3.4-0.8c-0.2-0.1-0.6-0.4-0.6-0.7c0-7.7,0-15.5,0-23.2c0,0,0-0.1,0.1-0.2
		c1.5,0.3,3,0.6,4.5,0.8c3.7,0.6,7.4,0.9,11-0.1c2.9-0.8,5-2.3,5.6-5.4c0.5-2.5-0.2-4.8-1.4-6.9c-1.8-3.3-4.5-6-7.1-8.7
		c-3.6-3.8-7.1-7.6-10-11.9c-7.2-10.8-5.7-25.5,0.1-34.1c3.9-5.7,9.4-9.2,15.8-11.5c5.8-2.1,11.8-2.4,17.9-1.4
		c3.9,0.6,7.7,1.5,11.5,2.3c0.6,0.1,0.9,0.4,0.9,1.1c0,7.4,0,14.8,0,22.2C383.1,274.2,383.1,274.5,383,274.8z"/>
	<path class="st1" d="M173.3,248.3c9.1,0,18.1,0,27.2,0c0,0.4,0,0.9,0,1.3c0,22.3,0,44.5,0,66.8c0,1.5,0.1,3,0.4,4.5
		c0.8,4.4,3.6,6.8,8.1,6.9c2.1,0,4.2,0,6.3,0c0,8.2,0,16.2,0,24.4c-0.2,0-0.4,0.1-0.6,0.1c-5.2,0-10.4,0.2-15.5-0.1
		c-11-0.5-18.6-6-22.8-16.2c-1.8-4.3-2.6-8.9-2.9-13.6c-0.1-2.7-0.2-5.4-0.2-8.1c0-21.5,0-43.1,0-64.6
		C173.3,249.2,173.3,248.8,173.3,248.3z"/>
	<path class="st1" d="M125.8,248.3c9.1,0,18,0,27.1,0c0,0.5,0,0.9,0,1.3c0,21.5,0,43.1,0,64.6c0,2.3,0.1,4.6,0.5,6.8
		c0.8,4.3,3.7,6.5,8.1,6.6c2.1,0,4.2,0,6.3,0c0,8.2,0,16.3,0,24.4c-0.3,0-0.5,0.1-0.8,0.1c-5,0-10,0.1-14.9-0.1
		c-9.8-0.4-17.5-4.5-22.1-13.4c-2.1-4-3.2-8.3-3.7-12.8c-0.3-3.2-0.5-6.3-0.5-9.5c0-22.2,0-44.4,0-66.6
		C125.8,249.3,125.8,248.9,125.8,248.3z"/>
	<path class="st1" d="M223.2,248.3c9.1,0,18.2,0,27.3,0c0,34.6,0,69.1,0,103.8c-9.1,0-18.1,0-27.3,0
		C223.2,317.5,223.2,283,223.2,248.3z"/>
	<path class="st1" d="M549.2,288.9c-2.3-16.8-9.8-31.1-22.1-42.7c-17.8-16.8-39.1-23.3-63.2-19.8c-16.9,2.5-31.3,10.2-42.8,22.7
		c-16.5,18-22.8,39.3-19,63.4c2.4,15.2,9.3,28.4,20,39.4c12.9,13.2,28.6,20.6,47,22.3c1.4,0.1,2.7,0.2,4.1,0.4c1.5,0,3,0,4.4,0
		c0.3,0,0.6-0.1,0.8-0.1c2.8-0.3,5.6-0.4,8.4-0.8c17.1-2.7,31.7-10.3,43.4-23.1C546.1,332.9,552.4,312.3,549.2,288.9z M503.2,351.7
		c-0.3,0-0.7,0-1,0c-12.4,0-24.9,0.1-37.3,0c-8.4-0.1-15.9-2.8-22-8.7c-5.7-5.5-7.7-12.5-7.2-20.2c0.3-5,1.6-9.7,4.2-14
		c2.2-3.5,5.1-6.4,8.8-8.3c0.2-0.1,0.3-0.2,0.5-0.4c-2.5-1.4-4.5-3.2-6.3-5.3c-3.8-4.6-5.5-10-5.9-15.9c-0.5-8,1.8-15,7.4-20.7
		c4.6-4.7,10.4-7.6,16.8-8.9c3.1-0.6,6.4-1,9.6-1c10.4-0.1,20.8,0,31.3,0c0.3,0,0.6,0,1,0c0,7.8,0,15.5,0,23.4c-0.4,0-0.8,0-1.1,0
		c-8,0-16,0-23.9,0c-1.6,0-3.2,0.2-4.6,0.7c-3.6,1-5.8,3.8-6,7.1c-0.2,3.9,1.7,7.1,5.3,8.6c1.8,0.8,3.7,0.9,5.7,0.9c6,0,12,0,17.9,0
		c1.8,0,3.7-0.1,5.5-0.1c0.3,0,0.7,0,1.1,0.1c0,7.6,0,15.1,0,22.7c-0.4,0-0.8,0-1.2,0c-7.7,0-15.4,0-23.1,0c-1.1,0-2.1,0.1-3.1,0.4
		c-3.3,0.8-5.4,3-6.2,6.3c-0.8,3.1-0.3,6.1,2.2,8.4c2.1,1.9,4.7,2.3,7.5,2.3c7.7,0,15.4,0,23.2,0c0.4,0,0.8,0,1.2,0
		C503.2,336.6,503.2,344.1,503.2,351.7z"/>
</g>
</svg>
