<svg xmlns="http://www.w3.org/2000/svg" id="Logos" viewBox="0 0 600 600"><defs><style>.cls-1{fill:#e20613;}.cls-2,.cls-3{fill:#fff;fill-rule:evenodd;}.cls-3,.cls-4{stroke:#e20613;stroke-miterlimit:2.61;stroke-width:0.58px;}.cls-4{fill:none;}</style></defs><rect class="cls-1" width="600" height="600"></rect><polygon class="cls-2" points="50.62 263.79 72.83 263.79 72.83 322.47 97.23 322.57 97.23 344.7 50.62 344.7 50.62 263.79 50.62 263.79"></polygon><polygon class="cls-2" points="131.44 344.7 109.14 344.7 109.14 286.02 84.74 285.83 84.74 263.79 131.44 263.79 131.44 344.7 131.44 344.7"></polygon><polygon class="cls-2" points="76.16 256.92 81.69 256.92 81.69 285.93 76.16 285.93 76.16 256.92 76.16 256.92"></polygon><polygon class="cls-2" points="100.75 322.28 106.19 322.28 106.19 351.19 100.75 351.19 100.75 322.28 100.75 322.28"></polygon><polygon class="cls-3" points="160.04 260.83 178.91 260.83 178.91 348.23 160.04 348.23 160.04 260.83 160.04 260.83"></polygon><path class="cls-3" d="M318.54,283.83h18.68v6.39c6.29-6,10.11-7.44,19.73-8v14.6c-6.19.47-19.73,5.34-19.73,16.69v34.83H318.54v-64.5Z"></path><path class="cls-3" d="M425.77,289.84l-.1-6H406.9v64.5h18.77v-40c-.28-5.82,16.3-15.17,16.49,1.34v38.64H461V303.87c0-19-17.15-26.05-35.26-14Z"></path><path class="cls-2" d="M375.06,282.21c-3.72-.29-7.43-.29-10.86-.38v14.69a54.78,54.78,0,0,1,10.86.38c4.2.67,6.86,2.1,7,4.77v4.68a26.89,26.89,0,0,0-7-3.15,22,22,0,0,0-5.72-.67c-12.77,0-21.92,10.21-21.92,23s9.53,22.8,22.21,22.8a26.06,26.06,0,0,0,5.43-.48,20.9,20.9,0,0,0,6.86-2.67l.1,3.15H400.8V301.67c0-15.17-13-18.6-25.74-19.46Zm0,51a9.51,9.51,0,1,1,9.44-9.58v.14A9.49,9.49,0,0,1,375.06,333.21Z"></path><path class="cls-2" d="M505.45,260.64l-.1,28.72A23.28,23.28,0,0,0,495,285a18.67,18.67,0,0,0-3.34-.19c-15,0-27.16,13.93-27.16,31s12.2,31,27.16,31a19.64,19.64,0,0,0,3.34-.28,26.46,26.46,0,0,0,10.57-4.87l-.09,6.39h18.87v-87.4ZM495,327.91c-7,0-12.59-5.92-12.59-13.17A12.64,12.64,0,1,1,495,327.91Z"></path><path class="cls-2" d="M246.87,320.66a31.1,31.1,0,0,0,.38-5c0-18.8-14.2-34.16-31.64-34.26h-.2c-17.44,0-31.73,15.37-31.73,34.26s14.29,34.16,31.73,34.16h.2c13.34-.1,24.78-9.35,29.35-22H225.8c-2.09,2.67-4.57,4.39-9.53,4.48h-.65c-4.77-.28-10.3-4.58-11.16-11.83h11.16l31.26.1Zm-42.25-11.55c1.24-7.53,4.87-10.87,11-11.25H216c6.29-.39,9.53,4.29,10.58,11.16h-11Z"></path><path class="cls-2" d="M293.67,283.83l-.1,6.87a22.57,22.57,0,0,0-11.72-5.92,18.67,18.67,0,0,0-3.34-.28c-15.82,0-28.69,13.93-28.69,31s12.87,30.91,28.69,30.91c1.14,0,2.29,0,3.34-.09a22.6,22.6,0,0,0,11.82-4.39c3.05,8.77-3.91,18.6-11.82,18-3.15-.19-6.39-2-9.15-6.11H249.35c4.09,15.17,18.49,23.48,32.5,23.76,15.53.38,30.59-9.06,30.59-29.58V283.83Zm-11.82,45.89c-7.06,0-12.87-6.2-12.87-13.74s5.81-13.64,12.87-13.64,12.86,6.11,12.86,13.64S289,329.72,281.85,329.72Z"></path><path class="cls-4" d="M293.62,290.7l.1-6.87h18.77V348m0,0c0,39-54.42,37.88-63.09,5.82m0,0h23.35m0,0c9.91,14.51,25.16.29,21-11.92-4.58,3.34-9.25,4.48-15.16,4.48-15.82,0-28.69-13.93-28.69-30.91s12.87-31,28.69-31a21.76,21.76,0,0,1,15.06,6.2m-11.72,11.64c7.15,0,12.86,6.11,12.86,13.64s-5.71,13.74-12.86,13.74-12.87-6.2-12.87-13.74,5.81-13.64,12.87-13.64"></path><path class="cls-2" d="M532,268.4a8.35,8.35,0,1,1,0,.34C532,268.63,532,268.51,532,268.4Zm8.3,10.22a10.25,10.25,0,1,0-.21,0Zm-2.16-9.41h2.05l3.1,5.09h2L542,269.12a3,3,0,0,0,3-3.23c0-2.32-1.38-3.35-4.15-3.35h-4.47v11.74h1.77v-5.09Zm0-1.51v-3.65h2.45c1.24,0,2.56.27,2.56,1.73,0,1.81-1.35,1.92-2.86,1.92Z"></path></svg>