<svg xmlns="http://www.w3.org/2000/svg" id="Logos" viewBox="0 0 600 600"><defs><style>.cls-1{fill:#007338;}.cls-2{fill:#fff;fill-rule:evenodd;}</style></defs><rect class="cls-1" width="600" height="600"></rect><path class="cls-2" d="M383.43,352.67V289h17.23v10.9a26,26,0,0,1,8.49-9.62,21.14,21.14,0,0,1,11.54-3.09h1.7a8.49,8.49,0,0,1,1,.11l.07,17.27h-6.18c-5,0-8.87,1.22-11.41,3.64S402,314.19,402,319v33.67Z"></path><path class="cls-2" d="M376.55,353.19c-1.81,0-4,.12-6.5.23s-4.12.14-4.79.14q-11.4,0-15.57-3.75T345.5,335V299.72h-9.8V287.48h9.8V269.67h19.62v17.81h11.43v12.24H365.12v36.12c0,1.72.44,2.84,1.3,3.37s2.62.83,5.3.83h4.83Z"></path><path class="cls-2" d="M166.82,352.25V289h17.9v10.81a26.53,26.53,0,0,1,8.83-9.55,22.73,22.73,0,0,1,12-3.06h1.76a4.79,4.79,0,0,1,1,.11l.07,17.16H202q-7.87,0-11.86,3.61c-2.65,2.41-4,6-4,10.71v33.44Z"></path><path class="cls-2" d="M86.24,300v-9c0-2.56-1.4-4.67-3.11-4.67h0c-1.71,0-3.11,2.11-3.11,4.67v9.08Zm17.55-.23h6.48v-9c0-2.55-1.46-4.65-3.24-4.65h0c-1.78,0-3.24,2.1-3.24,4.65v9Zm24.07,0v-9.24c0-2.56,1.4-4.67,3.11-4.67h0c1.72,0,3.12,2.11,3.12,4.67v9.22h0Zm-77.71,1.59V300c0-31.63,25.59-57.42,57-57.42a57.22,57.22,0,0,1,55,42.58H140.8A36.86,36.86,0,0,0,107.12,263c-20.45,0-37.06,17.17-36.77,37.55l5-.2V289.69a8.07,8.07,0,0,1,7.8-8.29h0A8.07,8.07,0,0,1,91,289.69v10.25c2.65-.05,5.31-.08,8-.11V289.36a8.22,8.22,0,0,1,8.12-8.28h0a8.22,8.22,0,0,1,8.14,8.28v10.39h8V289.14a8.07,8.07,0,0,1,7.81-8.28h0a8.08,8.08,0,0,1,7.8,8.28l0,10.61h14.24v3.86l-25.11.08v9.63c0,4.22-3.9,7.67-8.67,7.67h0c-4.77,0-8.62-3.45-8.67-7.67v-9.58l-18.82.06v8.26c0,2.36,1.52,4.3,3.38,4.3h0c1.85,0,3.36-1.94,3.36-4.3V303.8a1.31,1.31,0,0,0,0-.28h5v9.8c0,4.22-3.8,7.67-8.45,7.67h0c-4.65,0-8.45-3.45-8.45-7.67v-9.73q-8,.2-16,.59a36.7,36.7,0,0,0,70.4,10.2h21.29a57.24,57.24,0,0,1-55.16,43c-29.5,0-53.88-22.78-56.71-51.78m72.23-1.92v.92l.12,7.42c0,2.36-1.55,4.31-3.45,4.31h0c-1.9,0-3.46-1.95-3.46-4.31v-8.25Z"></path><path class="cls-2" d="M248.34,321.61a48.06,48.06,0,0,1-9.94,3c-3.75.76-5.7,1.15-5.81,1.2-3.13.83-5.31,1.88-6.55,3.11a7.17,7.17,0,0,0-1.84,5.18,6.75,6.75,0,0,0,2.36,5.43,9.51,9.51,0,0,0,6.39,2c4.79,0,8.54-1.26,11.28-3.78s4.11-6,4.11-10.32Zm1.78,22.32a22.42,22.42,0,0,1-9.07,7.47,30.9,30.9,0,0,1-13,2.56c-6.64,0-11.72-1.73-15.31-5.2s-5.39-8.39-5.39-14.77q0-8.89,5.37-13.55c3.59-3.14,9.51-5.26,17.78-6.43,1.89-.25,4.36-.57,7.43-.9,7.78-.92,11.65-3,11.65-6.19q0-3.8-2.58-5.45c-1.72-1.09-4.6-1.63-8.62-1.63-3.69,0-6.52.66-8.5,2a6.56,6.56,0,0,0-3,5.76v.93H209.76v-1.16a17.8,17.8,0,0,1,7.43-15.13q7.41-5.52,20.51-5.51,14.34,0,22,4.55c5.1,3.05,7.65,7.42,7.65,13.16V340.1a15,15,0,0,0,.88,5.87,5.69,5.69,0,0,0,3,2.89v2.84H252.11a14.28,14.28,0,0,1-1.44-3.58,18.43,18.43,0,0,1-.55-4.18Z"></path><path class="cls-2" d="M322.09,319.42c0-5.67-1.29-10.14-3.84-13.38a12.64,12.64,0,0,0-10.5-4.87q-7,0-10.91,4.75c-2.57,3.16-3.85,7.67-3.85,13.5q0,9.45,3.67,14.32c2.44,3.26,6,4.89,10.72,4.89s8.42-1.63,10.93-4.91,3.78-8.05,3.78-14.3m-47.46-54.48h17.51v31a22,22,0,0,1,8.38-7.67A25,25,0,0,1,312,285.7a24.47,24.47,0,0,1,19.94,9.69q7.74,9.66,7.73,25.14t-7.73,24.83a24.87,24.87,0,0,1-20.17,9.47,23.34,23.34,0,0,1-11.3-2.62,25.71,25.71,0,0,1-8.7-8.34v8.76H274.63Z"></path><path class="cls-2" d="M438.07,313.33h26q-.26-6.24-3.55-9.52c-2.2-2.19-5.4-3.25-9.52-3.25q-5.76,0-9.09,3.3t-3.85,9.47m27.32,19.72h18.17a26.92,26.92,0,0,1-11.12,15.67q-8.37,5.67-20.39,5.68-14.78,0-23.43-9.22t-8.61-25q0-15.53,8.51-24.49t23.29-8.95q15.69,0,24.2,8.81t8.51,25.11v2.72a12.4,12.4,0,0,1-.18,1.71H438.84q.39,7.44,3.91,11.22t10.18,3.77a15.32,15.32,0,0,0,7.69-1.71,12.07,12.07,0,0,0,4.77-5.33Z"></path><path class="cls-2" d="M503.43,313.33h26q-.25-6.24-3.55-9.52c-2.19-2.19-5.39-3.25-9.52-3.25q-5.76,0-9.09,3.3t-3.86,9.47m27.33,19.72h18.17a27,27,0,0,1-11.11,15.67q-8.38,5.67-20.4,5.68-14.77,0-23.43-9.22t-8.63-25q0-15.54,8.51-24.49t23.3-8.95q15.68,0,24.19,8.81t8.51,25.1v2.72a14.12,14.12,0,0,1-.16,1.71H504.21q.39,7.44,3.91,11.22t10.18,3.77a15.54,15.54,0,0,0,7.69-1.71,12,12,0,0,0,4.77-5.31Z"></path></svg>