<svg xmlns="http://www.w3.org/2000/svg" id="Logos" viewBox="0 0 600 600"><defs><style>.cls-1{fill:#e41936;}.cls-2{fill:#fff;}</style></defs><rect class="cls-1" width="600" height="600"></rect><path class="cls-2" d="M50.25,288.25V287c0-24.39,16.72-40.66,39.16-40.66,19.57,0,37.19,11.6,37.19,39.76v5.27H68.93c.6,14.91,8.13,23.34,21.68,23.34,11,0,16.72-4.37,18.07-12.05H126.3c-2.56,16.57-16,25.6-36.14,25.6C67,328.31,50.25,313.1,50.25,288.25Zm58.28-9c-.9-13.55-7.83-19.58-19.12-19.58-11,0-18.37,7.38-20.18,19.58Z"></path><path class="cls-2" d="M136.09,298.49V248h18.22v48.34c0,11.89,5,17.32,15.51,17.32,9.79,0,18.37-6.33,18.37-18.83V248h18.22v78.76H188.19V314.46c-3.91,7.68-12.2,13.85-25,13.85C147.68,328.31,136.09,319.43,136.09,298.49Z"></path><path class="cls-2" d="M221.92,248h18.22v14.75c5-9.93,12.35-15.81,25.6-16v17c-16,.15-25.6,5.27-25.6,22v41H221.92Z"></path><path class="cls-2" d="M268.9,288.25V287c0-24.39,17.32-40.66,40.51-40.66,23,0,40.36,16.11,40.36,40.21v1.2c0,24.55-17.32,40.51-40.51,40.51S268.9,312.2,268.9,288.25Zm62.2-.3V286.9c0-16.26-8.13-26.2-21.69-26.2s-21.83,9.78-21.83,26v1.2c0,16.12,8,26.21,21.83,26.21C323,314.16,331.1,304.07,331.1,288Z"></path><path class="cls-2" d="M360.61,211.61h18.22v115.2H360.61Z"></path><path class="cls-2" d="M394.19,298.49V248h18.22v48.34c0,11.89,5,17.32,15.51,17.32,9.79,0,18.37-6.33,18.37-18.83V248h18.23v78.76H446.29V314.46c-3.91,7.68-12.2,13.85-25,13.85C405.79,328.31,394.19,319.43,394.19,298.49Z"></path><path class="cls-2" d="M499.75,286.45,474.15,248h21.08l16.42,25.45L527.91,248H547l-25.45,37,28.16,41.72h-21.2l-18.37-28.47-18.82,28.47h-19Z"></path><path class="cls-2" d="M224.32,349.38h3.75v27.76h14.1v3.06H224.32Z"></path><path class="cls-2" d="M244.84,350.59a2.37,2.37,0,1,1,2.37,2.37h0A2.39,2.39,0,0,1,244.84,350.59Zm.64,7.07h3.58V380.2h-3.58Z"></path><path class="cls-2" d="M253.45,381.49h3.67c.52,2.59,2.67,3.93,6.51,3.93,4.44,0,7.24-2.11,7.24-6.94V375.2a9.34,9.34,0,0,1-7.63,4.27c-5.91,0-10.26-4.48-10.26-10.69v-.3c0-6.12,4.31-11.21,10.52-11.21a8.06,8.06,0,0,1,7.37,4v-3.62h3.58v21c-.05,6.55-4.49,9.74-10.78,9.74C257,388.43,254.06,385.29,253.45,381.49Zm17.55-13v-.3c0-5.05-2.76-8-7.16-8s-7.15,3.32-7.15,8.06v.35c0,4.91,3.14,7.84,6.94,7.84,4.18.05,7.37-2.88,7.37-7.92Z"></path><path class="cls-2" d="M280,346.88h3.58v14.36c1-2.12,3.53-4,7.24-4,4.66,0,7.93,2.54,7.93,9.1v13.83h-3.58V366.11c0-4-1.68-5.74-5.3-5.74-3.32,0-6.29,2.12-6.29,6.17V380.2H280Z"></path><path class="cls-2" d="M304.78,374.56V360.68h-3.23v-3h3.23v-5.13h3.58v5.13h5.26v3h-5.26v13.53c0,2.2,1,3.28,2.8,3.28a7.43,7.43,0,0,0,2.76-.48v3a8.59,8.59,0,0,1-3.06.47C306.77,380.5,304.78,378.09,304.78,374.56Z"></path><path class="cls-2" d="M317,350.59a2.37,2.37,0,1,1,2.37,2.37h0A2.39,2.39,0,0,1,317,350.59Zm.65,7.07h3.58V380.2h-3.58Z"></path><path class="cls-2" d="M326.85,357.66h3.58v3.58c1-2.12,3.53-4,7.24-4,4.65,0,7.93,2.54,7.93,9.1v13.83H342V366.11c0-4-1.68-5.74-5.3-5.74-3.32,0-6.29,2.12-6.29,6.17V380.2h-3.58Z"></path><path class="cls-2" d="M349.69,381.49h3.66c.52,2.59,2.68,3.93,6.51,3.93,4.44,0,7.24-2.11,7.24-6.94V375.2a9.34,9.34,0,0,1-7.63,4.27c-5.9,0-10.25-4.48-10.25-10.69v-.3c0-6.12,4.3-11.21,10.51-11.21a8.06,8.06,0,0,1,7.37,4v-3.62h3.58v21c0,6.55-4.48,9.74-10.77,9.74C353.22,388.43,350.29,385.29,349.69,381.49Zm17.54-13v-.3c0-5.05-2.76-8-7.15-8s-7.16,3.32-7.16,8.06v.35c0,4.91,3.15,7.84,6.94,7.84,4.14.05,7.37-2.88,7.37-7.92Z"></path><path class="cls-2" d="M392.18,377.87l-8.83-20.21h3.83l6.9,16.16,6.25-16.16H404L391.54,388h-3.62Z"></path><path class="cls-2" d="M404.64,369.12v-.34c0-6.77,4.7-11.51,11.08-11.51s11.07,4.7,11.07,11.47v.34c0,6.81-4.7,11.51-11.12,11.51S404.64,375.72,404.64,369.12Zm18.45,0v-.3c0-5.21-2.89-8.58-7.37-8.58s-7.38,3.37-7.38,8.54v.34c0,5.13,2.81,8.49,7.38,8.49s7.37-3.4,7.37-8.49Z"></path><path class="cls-2" d="M430.41,371.93V357.66H434v14.09c0,4,1.68,5.74,5.21,5.74a5.94,5.94,0,0,0,6.21-5.66,4.34,4.34,0,0,0,0-.51V357.66H449V380.2h-3.58v-3.58a7.7,7.7,0,0,1-7.16,4C433.77,380.59,430.41,378.13,430.41,371.93Z"></path><path class="cls-2" d="M454.5,357.66h3.58v4a7.88,7.88,0,0,1,7.41-4.44v3.36c-4.53.22-7.41,1.64-7.41,7.2V380.2H454.5Z"></path><path class="cls-2" d="M476.26,357.66h3.88l5.26,18.14,5.48-18.14H494l5.13,18.14,5.3-18.14h3.66l-7,22.54h-4l-4.7-16.9-5.26,16.9H483.2Z"></path><path class="cls-2" d="M508.89,374c0-5.21,5.51-7,11.29-7h3.23v-1.64c0-3.58-1.38-5.09-4.82-5.09-3.11,0-4.83,1.3-5.18,4.06h-3.58c.48-5.13,4.57-7,8.93-7S527,359,527,365.33V380.2h-3.58v-2.84a8.11,8.11,0,0,1-7,3.23C512.21,380.59,508.89,378.56,508.89,374Zm14.52-1.64v-2.8h-3.1c-4.53,0-7.85,1.12-7.85,4.44,0,2.33,1.13,3.8,4.27,3.8,3.79,0,6.68-1.95,6.68-5.44Z"></path><path class="cls-2" d="M537.94,377.87l-8.84-20.21h3.84l6.89,16.16,6.25-16.16h3.67L537.29,388h-3.62Z"></path></svg>