<svg xmlns="http://www.w3.org/2000/svg" id="Logos" viewBox="0 0 600 600"><defs><style>.cls-1{fill:#fff;}.cls-2{fill:#e30613;}.cls-3{fill:#0054aa;}</style></defs><rect class="cls-1" width="600" height="600"></rect><path class="cls-2" d="M312.24,179c105.51,0,196.43,28.66,238.22,70C507.8,219.43,434,199.86,350.13,199.86c-132,0-239,48.4-239,108.1s107,108.09,239,108.09a518.38,518.38,0,0,0,55.49-3,542.82,542.82,0,0,1-93.38,7.9c-145.09,0-262.7-54.17-262.7-121S167.15,179,312.24,179Z"></path><path class="cls-3" d="M200.67,247.74h33.64L249,305.53l17.32-57.79h26.17L261.84,350.53H233.09L215.42,286l-19.13,64.55H170Z"></path><path class="cls-3" d="M296.47,306.25,314,247.74h29.47l-17.69,59.38c-4.55,14.95-1.37,22,10.85,22,11.64,0,16.74-6.61,20.8-20.13l18.24-61.24h29.75l-19,63.83c-8.36,27.75-25.12,40.69-53.44,40.69C301.79,352.26,287.28,336.87,296.47,306.25Z"></path><path class="cls-3" d="M427,247.74h39.1c25,0,36.25,11.07,33.56,29.19-2.42,17.25-13.79,27.6-28.1,31.19L485,350.53h-29.9l-11.65-36.8h-6.9l-10.92,36.8H396.28Zm25.76,46.87c9.92,0,16.28-4.31,17.65-14.09,1.15-7.19-2.82-10.64-11.3-10.64h-9.34l-7.36,24.73Z"></path></svg>