<svg xmlns="http://www.w3.org/2000/svg" viewBox="0 0 361.96 51.1"><defs><style>.cls-1{fill:#e30613;}.cls-2{fill:#0054aa;}.cls-3{fill:#fff;}</style></defs><g id="Layer_2" data-name="Layer 2"><g id="Layer_1-2" data-name="Layer 1"><path class="cls-1" d="M321.72,16.48H101.58s15,23.93,40.24,23.93H362S346.94,16.48,321.72,16.48Z"></path><path class="cls-2" d="M314.16,16.48H110s14.68,23.93,39.35,23.93H353.51S338.83,16.48,314.16,16.48Z"></path><path class="cls-3" d="M134.82,22.69h8v2.54H138.1v2h3.72v2.34H138.1v2.09H143v2.54h-8.2Z"></path><path class="cls-3" d="M144.66,22.69H148v8.94h4.34v2.55h-7.65Z"></path><path class="cls-3" d="M153.9,22.69h7.94v2.54h-4.66v2h3.71v2.34h-3.71v2.09h4.92v2.54h-8.2Z"></path><path class="cls-3" d="M163,28.51v-.13a5.62,5.62,0,0,1,5.87-5.87c3,0,5.06,1.38,5.33,4.42h-3.39a1.79,1.79,0,0,0-1.93-1.81c-1.48,0-2.41,1.15-2.41,3.24v.13c0,2.08.88,3.25,2.46,3.25a2,2,0,0,0,2.14-1.88h3.28c-.23,3-2.38,4.52-5.36,4.52C165,34.38,163,32,163,28.51Z"></path><path class="cls-3" d="M177.81,25.23h-3V22.69h9.26v2.54h-3v9h-3.31Z"></path><path class="cls-3" d="M185.54,22.69H190c3,0,4.68,1.22,4.68,3.65v.06a3,3,0,0,1-2.07,3l2.74,4.76h-3.47l-2.33-4.11h-.77v4.11h-3.28Zm4.34,5.24c1.11,0,1.66-.47,1.66-1.4v-.06c0-.94-.58-1.31-1.64-1.31h-1.08v2.77Z"></path><path class="cls-3" d="M196.81,22.69h3.32V34.18h-3.32Z"></path><path class="cls-3" d="M201.8,28.51v-.13a5.62,5.62,0,0,1,5.87-5.87c3,0,5.06,1.38,5.34,4.42h-3.4a1.78,1.78,0,0,0-1.92-1.81c-1.48,0-2.42,1.15-2.42,3.24v.13c0,2.08.89,3.25,2.46,3.25a2,2,0,0,0,2.14-1.88h3.28c-.22,3-2.38,4.52-5.35,4.52C203.78,34.38,201.8,32,201.8,28.51Z"></path><path class="cls-3" d="M217.13,22.69h4.26L225,34.18h-3.49L220.94,32h-3.81l-.61,2.14h-3.07Zm.65,7.09h2.52l-1.25-4.42Z"></path><path class="cls-3" d="M226.36,22.69h3.31v8.94H234v2.55h-7.65Z"></path><path class="cls-3" d="M247.81,31.84l1.92,2.34H246l-.68-.83a4.6,4.6,0,0,1-3.1,1c-2.44,0-4-1.29-4-3.48,0-1.48.9-2.57,2.52-3.34a3.66,3.66,0,0,1-.71-2c0-2,1.68-3,3.7-3,1.83,0,3.49.92,3.49,2.69,0,1.25-.74,2.17-2.3,2.84l1.45,1.77.83-1.64h2.51Zm-4-.34L242,29.31a1.37,1.37,0,0,0-.77,1.24A1.34,1.34,0,0,0,242.7,32,1.54,1.54,0,0,0,243.83,31.5Zm-.36-4.63c.77-.37,1.14-.81,1.14-1.4a.82.82,0,0,0-.85-.88.92.92,0,0,0-.95,1A2.14,2.14,0,0,0,243.47,26.87Z"></path><path class="cls-3" d="M254.17,22.69h3.31v8.94h4.34v2.55h-7.65Z"></path><path class="cls-3" d="M263.48,22.69h3.32V34.18h-3.32Z"></path><path class="cls-3" d="M268.46,28.51v-.13a5.72,5.72,0,0,1,6-5.87c2.71,0,5.12,1.24,5.35,4.23h-3.26a1.83,1.83,0,0,0-2.08-1.64c-1.62,0-2.6,1.25-2.6,3.33v.13c0,1.86.69,3.31,2.68,3.31,1.61,0,2.22-.82,2.29-1.74h-2.16v-2.3h5.4v1.42c0,2.92-1.91,5.13-5.62,5.13C270.58,34.38,268.46,32,268.46,28.51Z"></path><path class="cls-3" d="M281.71,22.69H285v4.39h3.77V22.69h3.3V34.18h-3.3V29.65H285v4.53h-3.32Z"></path><path class="cls-3" d="M296.52,25.23h-3V22.69h9.26v2.54h-3v9h-3.31Z"></path><path class="cls-3" d="M304.31,22.69h3.33V34.18h-3.33Z"></path><path class="cls-3" d="M309.9,22.69h3.71l3.69,6.48V22.69h2.87V34.18H317L312.79,27v7.22H309.9Z"></path><path class="cls-3" d="M321.78,28.51v-.13a5.72,5.72,0,0,1,6-5.87c2.72,0,5.13,1.24,5.36,4.23h-3.27a1.82,1.82,0,0,0-2.07-1.64c-1.62,0-2.6,1.25-2.6,3.33v.13c0,1.86.69,3.31,2.68,3.31,1.61,0,2.22-.82,2.28-1.74H328v-2.3h5.4v1.42c0,2.92-1.91,5.13-5.63,5.13C323.9,34.38,321.78,32,321.78,28.51Z"></path><path class="cls-1" d="M51.1,0C71.62,0,89.3,6.05,97.43,14.78c-8.3-6.24-22.65-10.37-39-10.37C32.79,4.41,12,14.63,12,27.24S32.79,50.07,58.47,50.07a95,95,0,0,0,10.79-.64A97.24,97.24,0,0,1,51.1,51.1C22.88,51.1,0,39.66,0,25.54S22.88,0,51.1,0Z"></path><path class="cls-2" d="M31.86,14.29h11l4.51,12.94,4.59-12.94H62.66V41H54.27V25.21L48.19,41H45.36l-6-15.74V41H31.86Z"></path><path class="cls-2" d="M67.58,14.29h12.6c6.56,0,9.1,3,9.1,7v.15a5.46,5.46,0,0,1-4.63,5.74c3.14.56,5.34,2.5,5.34,6.23v.15C90,38.26,87,41,80.1,41H67.58Zm10.81,10.4c2.09,0,2.91-.71,2.91-2.35v-.15c0-1.6-.86-2.38-3-2.38H75.82v4.88Zm.11,10.7c2.16,0,3.17-1,3.17-2.79v-.15c0-1.76-1-2.73-3.36-2.73H75.82v5.67Z"></path></g></g></svg>